<?xml version="1.0" standalone="no"?>
 <!DOCTYPE svg PUBLIC "-//W3C//DTD SVG 1.1//EN" 
 "http://www.w3.org/Graphics/SVG/1.1/DTD/svg11.dtd"> 
<svg xmlns="http://www.w3.org/2000/svg" version="1.1" 
    width="29.7002cm" height="21.0007cm" viewBox="0 0 116930 82680 ">
<title>SVG Picture created as dev-AmpTwo-drl_map.svg date 2017/03/22 12:06:56 </title>
  <desc>Picture generated by PCBNEW </desc>
<g style="fill:#000000; fill-opacity:1;stroke:#000000; stroke-opacity:1;
stroke-linecap:round; stroke-linejoin:round; "
 transform="translate(0 0) scale(1 1)">
</g>
<g style="fill:#000000; fill-opacity:0.0; 
stroke:#000000; stroke-width:-0.000393701; stroke-opacity:1; 
stroke-linecap:round; stroke-linejoin:round;">
</g>
<g style="fill:#000000; fill-opacity:0.0; 
stroke:#000000; stroke-width:39.3701; stroke-opacity:1; 
stroke-linecap:round; stroke-linejoin:round;">
<path d="M42125 14173
L81496 14173
" />
<path d="M48031 53543
L42125 53543
" />
<path d="M81496 53543
L48031 53543
" />
<path d="M81496 14173
L81496 53543
" />
<path d="M42125 53543
L42125 14173
" />
</g>
<g style="fill:#000000; fill-opacity:0.0; 
stroke:#000000; stroke-width:78.7402; stroke-opacity:1; 
stroke-linecap:round; stroke-linejoin:round;">
<path d="M42618 32283
L42814 32480
" />
<path d="M42814 32283
L42618 32480
" />
<path d="M42634 35369
L42831 35566
" />
<path d="M42831 35369
L42634 35566
" />
<path d="M42716 17814
L42913 18011
" />
<path d="M42913 17814
L42716 18011
" />
<path d="M42716 22539
L42913 22736
" />
<path d="M42913 22539
L42716 22736
" />
<path d="M42913 39074
L43110 39271
" />
<path d="M43110 39074
L42913 39271
" />
<path d="M43307 20570
L43503 20767
" />
<path d="M43503 20570
L43307 20767
" />
<path d="M43307 25787
L43503 25984
" />
<path d="M43503 25787
L43307 25984
" />
<path d="M43367 29015
L43563 29212
" />
<path d="M43563 29015
L43367 29212
" />
<path d="M43602 45177
L43799 45374
" />
<path d="M43799 45177
L43602 45374
" />
<path d="M43897 17814
L44094 18011
" />
<path d="M44094 17814
L43897 18011
" />
<path d="M44291 23129
L44488 23326
" />
<path d="M44488 23129
L44291 23326
" />
<path d="M44389 34350
L44586 34547
" />
<path d="M44586 34350
L44389 34547
" />
<path d="M44586 44488
L44783 44685
" />
<path d="M44783 44488
L44586 44685
" />
<path d="M44685 25787
L44881 25984
" />
<path d="M44881 25787
L44685 25984
" />
<path d="M44783 42913
L44980 43110
" />
<path d="M44980 42913
L44783 43110
" />
<path d="M44980 17322
L45177 17519
" />
<path d="M45177 17322
L44980 17519
" />
<path d="M44980 39173
L45177 39370
" />
<path d="M45177 39173
L44980 39370
" />
<path d="M45076 21958
L45273 22155
" />
<path d="M45273 21958
L45076 22155
" />
<path d="M45177 14763
L45374 14960
" />
<path d="M45374 14763
L45177 14960
" />
<path d="M45374 37992
L45570 38188
" />
<path d="M45570 37992
L45374 38188
" />
<path d="M45570 46653
L45767 46850
" />
<path d="M45767 46653
L45570 46850
" />
<path d="M45964 25787
L46161 25984
" />
<path d="M46161 25787
L45964 25984
" />
<path d="M46259 16043
L46456 16240
" />
<path d="M46456 16043
L46259 16240
" />
<path d="M46358 44783
L46555 44980
" />
<path d="M46555 44783
L46358 44980
" />
<path d="M46456 29133
L46653 29330
" />
<path d="M46653 29133
L46456 29330
" />
<path d="M46555 32283
L46751 32480
" />
<path d="M46751 32283
L46555 32480
" />
<path d="M46588 20578
L46785 20775
" />
<path d="M46785 20578
L46588 20775
" />
<path d="M46653 17519
L46850 17716
" />
<path d="M46850 17519
L46653 17716
" />
<path d="M46850 40255
L47047 40452
" />
<path d="M47047 40255
L46850 40452
" />
<path d="M46948 33956
L47145 34153
" />
<path d="M47145 33956
L46948 34153
" />
<path d="M46948 42618
L47145 42814
" />
<path d="M47145 42618
L46948 42814
" />
<path d="M47539 32283
L47736 32480
" />
<path d="M47736 32283
L47539 32480
" />
<path d="M47637 37007
L47834 37204
" />
<path d="M47834 37007
L47637 37204
" />
<path d="M47736 22539
L47933 22736
" />
<path d="M47933 22539
L47736 22736
" />
<path d="M47736 24114
L47933 24311
" />
<path d="M47933 24114
L47736 24311
" />
<path d="M47736 38779
L47933 38976
" />
<path d="M47933 38779
L47736 38976
" />
<path d="M47736 46751
L47933 46948
" />
<path d="M47933 46751
L47736 46948
" />
<path d="M48031 20570
L48228 20767
" />
<path d="M48228 20570
L48031 20767
" />
<path d="M48720 45472
L48917 45669
" />
<path d="M48917 45472
L48720 45669
" />
<path d="M48917 17519
L49114 17716
" />
<path d="M49114 17519
L48917 17716
" />
<path d="M48917 36515
L49114 36712
" />
<path d="M49114 36515
L48917 36712
" />
<path d="M49015 30413
L49212 30610
" />
<path d="M49212 30413
L49015 30610
" />
<path d="M49015 34153
L49212 34350
" />
<path d="M49212 34153
L49015 34350
" />
<path d="M49114 28937
L49311 29133
" />
<path d="M49311 28937
L49114 29133
" />
<path d="M49114 32283
L49311 32480
" />
<path d="M49311 32283
L49114 32480
" />
<path d="M49212 44488
L49409 44685
" />
<path d="M49409 44488
L49212 44685
" />
<path d="M49311 23326
L49507 23523
" />
<path d="M49507 23326
L49311 23523
" />
<path d="M49606 42519
L49803 42716
" />
<path d="M49803 42519
L49606 42716
" />
<path d="M49803 46555
L50000 46751
" />
<path d="M50000 46555
L49803 46751
" />
<path d="M50000 38582
L50196 38779
" />
<path d="M50196 38582
L50000 38779
" />
<path d="M50196 32578
L50393 32775
" />
<path d="M50393 32578
L50196 32775
" />
<path d="M50258 22383
L50455 22580
" />
<path d="M50455 22383
L50258 22580
" />
<path d="M50393 24212
L50590 24409
" />
<path d="M50590 24212
L50393 24409
" />
<path d="M50393 28838
L50590 29035
" />
<path d="M50590 28838
L50393 29035
" />
<path d="M50393 35433
L50590 35629
" />
<path d="M50590 35433
L50393 35629
" />
<path d="M50393 40649
L50590 40846
" />
<path d="M50590 40649
L50393 40846
" />
<path d="M50590 45472
L50787 45669
" />
<path d="M50787 45472
L50590 45669
" />
<path d="M50688 25885
L50885 26082
" />
<path d="M50885 25885
L50688 26082
" />
<path d="M50787 41141
L50984 41338
" />
<path d="M50984 41141
L50787 41338
" />
<path d="M50984 17519
L51181 17716
" />
<path d="M51181 17519
L50984 17716
" />
<path d="M51181 31791
L51377 31988
" />
<path d="M51377 31791
L51181 31988
" />
<path d="M51574 20570
L51771 20767
" />
<path d="M51771 20570
L51574 20767
" />
<path d="M51673 38582
L51870 38779
" />
<path d="M51870 38582
L51673 38779
" />
<path d="M51673 39665
L51870 39862
" />
<path d="M51870 39665
L51673 39862
" />
<path d="M51968 17519
L52165 17716
" />
<path d="M52165 17519
L51968 17716
" />
<path d="M52066 34153
L52263 34350
" />
<path d="M52263 34153
L52066 34350
" />
<path d="M52066 36712
L52263 36909
" />
<path d="M52263 36712
L52066 36909
" />
<path d="M52263 23326
L52460 23523
" />
<path d="M52460 23326
L52263 23523
" />
<path d="M52263 24704
L52460 24901
" />
<path d="M52460 24704
L52263 24901
" />
<path d="M52263 27165
L52460 27362
" />
<path d="M52460 27165
L52263 27362
" />
<path d="M52263 47244
L52460 47440
" />
<path d="M52460 47244
L52263 47440
" />
<path d="M52460 45472
L52657 45669
" />
<path d="M52657 45472
L52460 45669
" />
<path d="M52527 20578
L52724 20775
" />
<path d="M52724 20578
L52527 20775
" />
<path d="M52854 49409
L53051 49606
" />
<path d="M53051 49409
L52854 49606
" />
<path d="M53149 17519
L53346 17716
" />
<path d="M53346 17519
L53149 17716
" />
<path d="M53149 38582
L53346 38779
" />
<path d="M53346 38582
L53149 38779
" />
<path d="M53149 41830
L53346 42027
" />
<path d="M53346 41830
L53149 42027
" />
<path d="M53543 43011
L53740 43208
" />
<path d="M53740 43011
L53543 43208
" />
<path d="M53543 52755
L53740 52952
" />
<path d="M53740 52755
L53543 52952
" />
<path d="M53740 36712
L53937 36909
" />
<path d="M53937 36712
L53740 36909
" />
<path d="M53937 24507
L54133 24704
" />
<path d="M54133 24507
L53937 24704
" />
<path d="M53937 29035
L54133 29232
" />
<path d="M54133 29035
L53937 29232
" />
<path d="M53937 31791
L54133 31988
" />
<path d="M54133 31791
L53937 31988
" />
<path d="M54232 32381
L54429 32578
" />
<path d="M54429 32381
L54232 32578
" />
<path d="M54232 46948
L54429 47145
" />
<path d="M54429 46948
L54232 47145
" />
<path d="M54527 44783
L54724 44980
" />
<path d="M54724 44783
L54527 44980
" />
<path d="M54921 37500
L55118 37696
" />
<path d="M55118 37500
L54921 37696
" />
<path d="M55118 17519
L55314 17716
" />
<path d="M55314 17519
L55118 17716
" />
<path d="M55314 22736
L55511 22933
" />
<path d="M55511 22736
L55314 22933
" />
<path d="M55314 24409
L55511 24606
" />
<path d="M55511 24409
L55314 24606
" />
<path d="M55314 45374
L55511 45570
" />
<path d="M55511 45374
L55314 45570
" />
<path d="M55314 47244
L55511 47440
" />
<path d="M55511 47244
L55314 47440
" />
<path d="M55610 39566
L55807 39763
" />
<path d="M55807 39566
L55610 39763
" />
<path d="M55610 41043
L55807 41240
" />
<path d="M55807 41043
L55610 41240
" />
<path d="M55807 43307
L56003 43503
" />
<path d="M56003 43307
L55807 43503
" />
<path d="M56299 20570
L56496 20767
" />
<path d="M56496 20570
L56299 20767
" />
<path d="M56594 45767
L56791 45964
" />
<path d="M56791 45767
L56594 45964
" />
<path d="M56791 31889
L56988 32086
" />
<path d="M56988 31889
L56791 32086
" />
<path d="M56791 33464
L56988 33661
" />
<path d="M56988 33464
L56791 33661
" />
<path d="M56791 34645
L56988 34842
" />
<path d="M56988 34645
L56791 34842
" />
<path d="M56988 37303
L57185 37500
" />
<path d="M57185 37303
L56988 37500
" />
<path d="M57084 39040
L57281 39237
" />
<path d="M57281 39040
L57084 39237
" />
<path d="M57185 26673
L57381 26870
" />
<path d="M57381 26673
L57185 26870
" />
<path d="M57283 47244
L57480 47440
" />
<path d="M57480 47244
L57283 47440
" />
<path d="M57381 24901
L57578 25098
" />
<path d="M57578 24901
L57381 25098
" />
<path d="M57480 17519
L57677 17716
" />
<path d="M57677 17519
L57480 17716
" />
<path d="M57480 29625
L57677 29822
" />
<path d="M57677 29625
L57480 29822
" />
<path d="M57480 30708
L57677 30905
" />
<path d="M57677 30708
L57480 30905
" />
<path d="M57480 45767
L57677 45964
" />
<path d="M57677 45767
L57480 45964
" />
<path d="M57578 20570
L57775 20767
" />
<path d="M57775 20570
L57578 20767
" />
<path d="M57578 22834
L57775 23031
" />
<path d="M57775 22834
L57578 23031
" />
<path d="M57972 44488
L58169 44685
" />
<path d="M58169 44488
L57972 44685
" />
<path d="M58070 16043
L58267 16240
" />
<path d="M58267 16043
L58070 16240
" />
<path d="M58759 47224
L58956 47421
" />
<path d="M58956 47224
L58759 47421
" />
<path d="M58956 30314
L59153 30511
" />
<path d="M59153 30314
L58956 30511
" />
<path d="M58996 45767
L59192 45964
" />
<path d="M59192 45767
L58996 45964
" />
<path d="M59055 14862
L59251 15059
" />
<path d="M59251 14862
L59055 15059
" />
<path d="M59547 17322
L59744 17519
" />
<path d="M59744 17322
L59547 17519
" />
<path d="M59547 25885
L59744 26082
" />
<path d="M59744 25885
L59547 26082
" />
<path d="M59940 22933
L60137 23129
" />
<path d="M60137 22933
L59940 23129
" />
<path d="M60236 30314
L60433 30511
" />
<path d="M60433 30314
L60236 30511
" />
<path d="M60236 31003
L60433 31200
" />
<path d="M60433 31003
L60236 31200
" />
<path d="M60334 25492
L60531 25688
" />
<path d="M60531 25492
L60334 25688
" />
<path d="M60826 47637
L61023 47834
" />
<path d="M61023 47637
L60826 47834
" />
<path d="M60910 20554
L61107 20751
" />
<path d="M61107 20554
L60910 20751
" />
<path d="M60925 26279
L61122 26476
" />
<path d="M61122 26279
L60925 26476
" />
<path d="M60925 36614
L61122 36811
" />
<path d="M61122 36614
L60925 36811
" />
<path d="M60925 42421
L61122 42618
" />
<path d="M61122 42421
L60925 42618
" />
<path d="M61023 14862
L61220 15059
" />
<path d="M61220 14862
L61023 15059
" />
<path d="M61515 17519
L61712 17716
" />
<path d="M61712 17519
L61515 17716
" />
<path d="M61614 43602
L61811 43799
" />
<path d="M61811 43602
L61614 43799
" />
<path d="M61712 45275
L61909 45472
" />
<path d="M61909 45275
L61712 45472
" />
<path d="M61712 46653
L61909 46850
" />
<path d="M61909 46653
L61712 46850
" />
<path d="M62106 23523
L62303 23720
" />
<path d="M62303 23523
L62106 23720
" />
<path d="M62106 25885
L62303 26082
" />
<path d="M62303 25885
L62106 26082
" />
<path d="M62106 29035
L62303 29232
" />
<path d="M62303 29035
L62106 29232
" />
<path d="M62106 31397
L62303 31594
" />
<path d="M62303 31397
L62106 31594
" />
<path d="M62106 34055
L62303 34251
" />
<path d="M62303 34055
L62106 34251
" />
<path d="M62106 36515
L62303 36712
" />
<path d="M62303 36515
L62106 36712
" />
<path d="M62106 42814
L62303 43011
" />
<path d="M62303 42814
L62106 43011
" />
<path d="M62696 14862
L62893 15059
" />
<path d="M62893 14862
L62696 15059
" />
<path d="M62696 32342
L62893 32539
" />
<path d="M62893 32342
L62696 32539
" />
<path d="M62751 19022
L62948 19219
" />
<path d="M62948 19022
L62751 19219
" />
<path d="M63090 43011
L63287 43208
" />
<path d="M63287 43011
L63090 43208
" />
<path d="M63287 26082
L63484 26279
" />
<path d="M63484 26082
L63287 26279
" />
<path d="M63287 31496
L63484 31692
" />
<path d="M63484 31496
L63287 31692
" />
<path d="M63287 36515
L63484 36712
" />
<path d="M63484 36515
L63287 36712
" />
<path d="M63287 37500
L63484 37696
" />
<path d="M63484 37500
L63287 37696
" />
<path d="M63385 16338
L63582 16535
" />
<path d="M63582 16338
L63385 16535
" />
<path d="M63385 17913
L63582 18110
" />
<path d="M63582 17913
L63385 18110
" />
<path d="M63877 27066
L64074 27263
" />
<path d="M64074 27066
L63877 27263
" />
<path d="M64021 22562
L64217 22759
" />
<path d="M64217 22562
L64021 22759
" />
<path d="M64468 21456
L64665 21653
" />
<path d="M64665 21456
L64468 21653
" />
<path d="M64566 14862
L64763 15059
" />
<path d="M64763 14862
L64566 15059
" />
<path d="M64566 18996
L64763 19192
" />
<path d="M64763 18996
L64566 19192
" />
<path d="M64566 22145
L64763 22342
" />
<path d="M64763 22145
L64566 22342
" />
<path d="M65354 44389
L65551 44586
" />
<path d="M65551 44389
L65354 44586
" />
<path d="M65649 18405
L65846 18602
" />
<path d="M65846 18405
L65649 18602
" />
<path d="M66437 48129
L66633 48326
" />
<path d="M66633 48129
L66437 48326
" />
<path d="M67165 20767
L67362 20964
" />
<path d="M67362 20767
L67165 20964
" />
<path d="M67263 31673
L67460 31870
" />
<path d="M67460 31673
L67263 31870
" />
<path d="M67342 24940
L67539 25137
" />
<path d="M67539 24940
L67342 25137
" />
<path d="M67381 27381
L67578 27578
" />
<path d="M67578 27381
L67381 27578
" />
<path d="M67381 41870
L67578 42066
" />
<path d="M67578 41870
L67381 42066
" />
<path d="M67519 21850
L67716 22047
" />
<path d="M67716 21850
L67519 22047
" />
<path d="M67519 29429
L67716 29625
" />
<path d="M67716 29429
L67519 29625
" />
<path d="M67519 34350
L67716 34547
" />
<path d="M67716 34350
L67519 34547
" />
<path d="M67775 35728
L67972 35925
" />
<path d="M67972 35728
L67775 35925
" />
<path d="M67775 38641
L67972 38838
" />
<path d="M67972 38641
L67775 38838
" />
<path d="M68307 14960
L68503 15157
" />
<path d="M68503 14960
L68307 15157
" />
<path d="M68307 17125
L68503 17322
" />
<path d="M68503 17125
L68307 17322
" />
<path d="M69192 40216
L69389 40413
" />
<path d="M69389 40216
L69192 40413
" />
<path d="M69488 17125
L69685 17322
" />
<path d="M69685 17125
L69488 17322
" />
<path d="M70078 19783
L70275 19980
" />
<path d="M70275 19783
L70078 19980
" />
<path d="M70374 19488
L70570 19685
" />
<path d="M70570 19488
L70374 19685
" />
<path d="M70570 19783
L70767 19980
" />
<path d="M70767 19783
L70570 19980
" />
<path d="M70767 14862
L70964 15059
" />
<path d="M70964 14862
L70767 15059
" />
<path d="M70767 17125
L70964 17322
" />
<path d="M70964 17125
L70767 17322
" />
<path d="M70767 19488
L70964 19685
" />
<path d="M70964 19488
L70767 19685
" />
<path d="M70767 37500
L70964 37696
" />
<path d="M70964 37500
L70767 37696
" />
<path d="M71062 19783
L71259 19980
" />
<path d="M71259 19783
L71062 19980
" />
<path d="M71358 33858
L71555 34055
" />
<path d="M71555 33858
L71358 34055
" />
<path d="M71555 26476
L71751 26673
" />
<path d="M71751 26476
L71555 26673
" />
<path d="M72145 14862
L72342 15059
" />
<path d="M72342 14862
L72145 15059
" />
<path d="M72145 17125
L72342 17322
" />
<path d="M72342 17125
L72145 17322
" />
<path d="M72145 29232
L72342 29429
" />
<path d="M72342 29232
L72145 29429
" />
<path d="M72145 40649
L72342 40846
" />
<path d="M72342 40649
L72145 40846
" />
<path d="M73228 17125
L73425 17322
" />
<path d="M73425 17125
L73228 17322
" />
<path d="M73228 31200
L73425 31397
" />
<path d="M73425 31200
L73228 31397
" />
<path d="M73917 23720
L74114 23917
" />
<path d="M74114 23720
L73917 23917
" />
<path d="M74212 14862
L74409 15059
" />
<path d="M74409 14862
L74212 15059
" />
<path d="M74212 17125
L74409 17322
" />
<path d="M74409 17125
L74212 17322
" />
<path d="M74507 43996
L74704 44192
" />
<path d="M74704 43996
L74507 44192
" />
<path d="M75468 29224
L75665 29421
" />
<path d="M75665 29224
L75468 29421
" />
<path d="M75492 34744
L75688 34940
" />
<path d="M75688 34744
L75492 34940
" />
<path d="M75492 23579
L75689 23776
" />
<path d="M75689 23579
L75492 23776
" />
<path d="M76673 20374
L76870 20570
" />
<path d="M76870 20374
L76673 20570
" />
<path d="M76673 37500
L76870 37696
" />
<path d="M76870 37500
L76673 37696
" />
<path d="M77854 14763
L78051 14960
" />
<path d="M78051 14763
L77854 14960
" />
<path d="M77854 29232
L78051 29429
" />
<path d="M78051 29232
L77854 29429
" />
<path d="M77854 40649
L78051 40846
" />
<path d="M78051 40649
L77854 40846
" />
<path d="M78149 17519
L78346 17716
" />
<path d="M78346 17519
L78149 17716
" />
<path d="M78149 20866
L78346 21062
" />
<path d="M78346 20866
L78149 21062
" />
<path d="M79129 26490
L79326 26687
" />
<path d="M79326 26490
L79129 26687
" />
<path d="M80118 20275
L80314 20472
" />
<path d="M80314 20275
L80118 20472
" />
<path d="M80413 17814
L80610 18011
" />
<path d="M80610 17814
L80413 18011
" />
<circle cx="44094.5" cy="40354.3" r="157.48" /> 
<circle cx="45866.1" cy="42421.3" r="157.48" /> 
<circle cx="45866.1" cy="43799.2" r="157.48" /> 
<circle cx="46063" cy="40354.3" r="157.48" /> 
<circle cx="46850.4" cy="22834.6" r="157.48" /> 
<circle cx="46850.4" cy="38385.8" r="157.48" /> 
<circle cx="47145.7" cy="25393.7" r="157.48" /> 
<circle cx="47145.7" cy="35826.8" r="157.48" /> 
<circle cx="47834.6" cy="29822.8" r="157.48" /> 
<circle cx="47834.6" cy="31200.8" r="157.48" /> 
<circle cx="47933.1" cy="40944.9" r="157.48" /> 
<circle cx="48523.6" cy="25393.7" r="157.48" /> 
<circle cx="48523.6" cy="35826.8" r="157.48" /> 
<circle cx="48818.9" cy="22834.6" r="157.48" /> 
<circle cx="48818.9" cy="38385.8" r="157.48" /> 
<circle cx="49311" cy="40944.9" r="157.48" /> 
<circle cx="50787.4" cy="42519.7" r="157.48" /> 
<circle cx="50787.4" cy="44488.2" r="157.48" /> 
<circle cx="52559.1" cy="40354.3" r="157.48" /> 
<circle cx="54527.6" cy="23031.5" r="157.48" /> 
<circle cx="54527.6" cy="38582.7" r="157.48" /> 
<circle cx="54527.6" cy="40354.3" r="157.48" /> 
<circle cx="54724.4" cy="42421.3" r="157.48" /> 
<circle cx="54724.4" cy="43799.2" r="157.48" /> 
<circle cx="54822.8" cy="25590.6" r="157.48" /> 
<circle cx="54822.8" cy="36023.6" r="157.48" /> 
<circle cx="55511.8" cy="29822.8" r="157.48" /> 
<circle cx="55511.8" cy="31200.8" r="157.48" /> 
<circle cx="56200.8" cy="25590.6" r="157.48" /> 
<circle cx="56200.8" cy="36023.6" r="157.48" /> 
<circle cx="56496.1" cy="23031.5" r="157.48" /> 
<circle cx="56496.1" cy="38582.7" r="157.48" /> 
<circle cx="56988.2" cy="41141.7" r="157.48" /> 
<circle cx="58366.1" cy="41141.7" r="157.48" /> 
<circle cx="58858.3" cy="22834.6" r="157.48" /> 
<circle cx="58858.3" cy="24212.6" r="157.48" /> 
<circle cx="58858.3" cy="27165.4" r="157.48" /> 
<circle cx="58858.3" cy="28543.3" r="157.48" /> 
<circle cx="58858.3" cy="32185" r="157.48" /> 
<circle cx="58858.3" cy="33563" r="157.48" /> 
<circle cx="58858.3" cy="35728.3" r="157.48" /> 
<circle cx="58858.3" cy="37106.3" r="157.48" /> 
<circle cx="59744.1" cy="42519.7" r="157.48" /> 
<circle cx="59744.1" cy="44488.2" r="157.48" /> 
<circle cx="63385.8" cy="45669.3" r="157.48" /> 
<circle cx="63385.8" cy="47637.8" r="157.48" /> 
<circle cx="63385.8" cy="50196.9" r="157.48" /> 
<circle cx="63385.8" cy="52165.4" r="157.48" /> 
<circle cx="65255.9" cy="26476.4" r="157.48" /> 
<circle cx="65255.9" cy="37106.3" r="157.48" /> 
<circle cx="66633.9" cy="26476.4" r="157.48" /> 
<circle cx="66633.9" cy="37106.3" r="157.48" /> 
<circle cx="67618.1" cy="19881.9" r="157.48" /> 
<circle cx="68996.1" cy="19881.9" r="157.48" /> 
<circle cx="73523.6" cy="19881.9" r="157.48" /> 
<circle cx="74901.6" cy="19881.9" r="157.48" /> 
<circle cx="80315" cy="44291.3" r="157.48" /> 
<circle cx="80315" cy="46259.8" r="157.48" /> 
<circle cx="80315" cy="47440.9" r="157.48" /> 
<circle cx="80315" cy="49409.4" r="157.48" /> 
<path d="M47566 15444
L47566 15838
" />
<path d="M47370 15641
L47763 15641
" />
<path d="M47566 16444
L47566 16838
" />
<path d="M47370 16641
L47763 16641
" />
<path d="M48566 15444
L48566 15838
" />
<path d="M48370 15641
L48763 15641
" />
<path d="M48566 16444
L48566 16838
" />
<path d="M48370 16641
L48763 16641
" />
<path d="M49566 15444
L49566 15838
" />
<path d="M49370 15641
L49763 15641
" />
<path d="M49566 16444
L49566 16838
" />
<path d="M49370 16641
L49763 16641
" />
<path d="M50566 15444
L50566 15838
" />
<path d="M50370 15641
L50763 15641
" />
<path d="M50566 16444
L50566 16838
" />
<path d="M50370 16641
L50763 16641
" />
<path d="M51566 15444
L51566 15838
" />
<path d="M51370 15641
L51763 15641
" />
<path d="M51566 16444
L51566 16838
" />
<path d="M51370 16641
L51763 16641
" />
<path d="M52566 15444
L52566 15838
" />
<path d="M52370 15641
L52763 15641
" />
<path d="M52566 16444
L52566 16838
" />
<path d="M52370 16641
L52763 16641
" />
<path d="M53566 15444
L53566 15838
" />
<path d="M53370 15641
L53763 15641
" />
<path d="M53566 16444
L53566 16838
" />
<path d="M53370 16641
L53763 16641
" />
<path d="M54566 15444
L54566 15838
" />
<path d="M54370 15641
L54763 15641
" />
<path d="M54566 16444
L54566 16838
" />
<path d="M54370 16641
L54763 16641
" />
<path d="M55566 15444
L55566 15838
" />
<path d="M55370 15641
L55763 15641
" />
<path d="M55566 16444
L55566 16838
" />
<path d="M55370 16641
L55763 16641
" />
<path d="M56566 15444
L56566 15838
" />
<path d="M56370 15641
L56763 15641
" />
<path d="M56566 16444
L56566 16838
" />
<path d="M56370 16641
L56763 16641
" />
<polyline fill="none;"
points="47452,49736
47452,49318
47035,49318
47035,49736
47452,49736
" /> 
<path d="M46988 48444
L46988 50610
" />
<path d="M47500 48444
L47500 50610
" />
<path d="M46988.2 50610.2 A255.906 255.906 0.0 0 0 47500 50610.2 " />
<path d="M47500 48444.9 A255.906 255.906 0.0 0 0 46988.2 48444.9 " />
<polyline fill="none;"
points="47452,52689
47452,52271
47035,52271
47035,52689
47452,52689
" /> 
<polyline fill="none;"
points="49421,49736
49421,49318
49003,49318
49003,49736
49421,49736
" /> 
<path d="M48956 48444
L48956 50610
" />
<path d="M49468 48444
L49468 50610
" />
<path d="M48956.7 50610.2 A255.906 255.906 0.0 0 0 49468.5 50610.2 " />
<path d="M49468.5 48444.9 A255.906 255.906 0.0 0 0 48956.7 48444.9 " />
<polyline fill="none;"
points="49421,52689
49421,52271
49003,52271
49003,52689
49421,52689
" /> 
<polyline fill="none;"
points="51389,49736
51389,49318
50972,49318
50972,49736
51389,49736
" /> 
<path d="M50925 48444
L50925 50610
" />
<path d="M51437 48444
L51437 50610
" />
<path d="M50925.2 50610.2 A255.906 255.906 0.0 0 0 51437 50610.2 " />
<path d="M51437 48444.9 A255.906 255.906 0.0 0 0 50925.2 48444.9 " />
<polyline fill="none;"
points="51389,52689
51389,52271
50972,52271
50972,52689
51389,52689
" /> 
<polyline fill="none;"
points="56311,49736
56311,49318
55893,49318
55893,49736
56311,49736
" /> 
<path d="M55846 48444
L55846 50610
" />
<path d="M56358 48444
L56358 50610
" />
<path d="M55846.5 50610.2 A255.906 255.906 0.0 0 0 56358.3 50610.2 " />
<path d="M56358.3 48444.9 A255.906 255.906 0.0 0 0 55846.5 48444.9 " />
<polyline fill="none;"
points="56311,52689
56311,52271
55893,52271
55893,52689
56311,52689
" /> 
<polyline fill="none;"
points="58279,49736
58279,49318
57862,49318
57862,49736
58279,49736
" /> 
<path d="M57814 48444
L57814 50610
" />
<path d="M58326 48444
L58326 50610
" />
<path d="M57815 50610.2 A255.906 255.906 0.0 0 0 58326.8 50610.2 " />
<path d="M58326.8 48444.9 A255.906 255.906 0.0 0 0 57815 48444.9 " />
<polyline fill="none;"
points="58279,52689
58279,52271
57862,52271
57862,52689
58279,52689
" /> 
<polyline fill="none;"
points="60248,49736
60248,49318
59830,49318
59830,49736
60248,49736
" /> 
<path d="M59783 48444
L59783 50610
" />
<path d="M60295 48444
L60295 50610
" />
<path d="M59783.5 50610.2 A255.906 255.906 0.0 0 0 60295.3 50610.2 " />
<path d="M60295.3 48444.9 A255.906 255.906 0.0 0 0 59783.5 48444.9 " />
<polyline fill="none;"
points="60248,52689
60248,52271
59830,52271
59830,52689
60248,52689
" /> 
<polyline fill="none;"
points="65472,47106
65787,46791
65472,46476
65157,46791
65472,47106
" /> 
<polyline fill="none;"
points="65472,49606
65787,49291
65472,48976
65157,49291
65472,49606
" /> 
<polyline fill="none;"
points="65472,52106
65787,51791
65472,51476
65157,51791
65472,52106
" /> 
<polyline fill="none;"
points="69960,47106
70275,46791
69960,46476
69645,46791
69960,47106
" /> 
<polyline fill="none;"
points="69960,49606
70275,49291
69960,48976
69645,49291
69960,49606
" /> 
<polyline fill="none;"
points="69960,52106
70275,51791
69960,51476
69645,51791
69960,52106
" /> 
<polyline fill="none;"
points="72559,47106
72874,46791
72559,46476
72244,46791
72559,47106
" /> 
<polyline fill="none;"
points="72559,49606
72874,49291
72559,48976
72244,49291
72559,49606
" /> 
<polyline fill="none;"
points="72559,52106
72874,51791
72559,51476
72244,51791
72559,52106
" /> 
<polyline fill="none;"
points="77047,47106
77362,46791
77047,46476
76732,46791
77047,47106
" /> 
<polyline fill="none;"
points="77047,49606
77362,49291
77047,48976
76732,49291
77047,49606
" /> 
<polyline fill="none;"
points="77047,52106
77362,51791
77047,51476
76732,51791
77047,52106
" /> 
<path d="M66370 15688
L67078 16397
" />
<path d="M67078 15688
L66370 16397
" />
<circle cx="66724.4" cy="16043.3" r="354.331" /> 
<path d="M69338 15688
L70047 16397
" />
<path d="M70047 15688
L69338 16397
" />
<circle cx="69692.9" cy="16043.3" r="354.331" /> 
<path d="M72866 15688
L73574 16397
" />
<path d="M73574 15688
L72866 16397
" />
<circle cx="73220.5" cy="16043.3" r="354.331" /> 
<path d="M75834 15688
L76543 16397
" />
<path d="M76543 15688
L75834 16397
" />
<circle cx="76189" cy="16043.3" r="354.331" /> 
<path d="M43503 15551
L44685 16732
" />
<path d="M44685 15551
L43503 16732
" />
<path d="M44094 15551
L44094 16732
" />
<path d="M43503 16141
L44685 16141
" />
<path d="M43503 50984
L44685 52165
" />
<path d="M44685 50984
L43503 52165
" />
<path d="M44094 50984
L44094 52165
" />
<path d="M43503 51574
L44685 51574
" />
<path d="M78937 15551
L80118 16732
" />
<path d="M80118 15551
L78937 16732
" />
<path d="M79527 15551
L79527 16732
" />
<path d="M78937 16141
L80118 16141
" />
<path d="M78937 50984
L80118 52165
" />
<path d="M80118 50984
L78937 52165
" />
<path d="M79527 50984
L79527 52165
" />
<path d="M78937 51574
L80118 51574
" />
</g>
<g style="fill:#000000; fill-opacity:0.0; 
stroke:#000000; stroke-width:118.11; stroke-opacity:1; 
stroke-linecap:round; stroke-linejoin:round;">
<path d="M43174 55396
L43174 54215
L43456 54215
L43624 54271
L43737 54384
L43793 54496
L43849 54721
L43849 54890
L43793 55115
L43737 55227
L43624 55340
L43456 55396
L43174 55396
" />
<path d="M44356 55396
L44356 54609
" />
<path d="M44356 54834
L44412 54721
L44468 54665
L44580 54609
L44693 54609
" />
<path d="M45087 55396
L45087 54609
" />
<path d="M45087 54215
L45030 54271
L45087 54327
L45143 54271
L45087 54215
L45087 54327
" />
<path d="M45818 55396
L45705 55340
L45649 55227
L45649 54215
" />
<path d="M46437 55396
L46324 55340
L46268 55227
L46268 54215
" />
<path d="M47786 55396
L47786 54215
L48180 55059
L48574 54215
L48574 55396
" />
<path d="M49642 55396
L49642 54777
L49586 54665
L49474 54609
L49249 54609
L49136 54665
" />
<path d="M49642 55340
L49530 55396
L49249 55396
L49136 55340
L49080 55227
L49080 55115
L49136 55002
L49249 54946
L49530 54946
L49642 54890
" />
<path d="M50205 54609
L50205 55790
" />
<path d="M50205 54665
L50317 54609
L50542 54609
L50655 54665
L50711 54721
L50767 54834
L50767 55171
L50711 55284
L50655 55340
L50542 55396
L50317 55396
L50205 55340
" />
<path d="M51273 55284
L51330 55340
L51273 55396
L51217 55340
L51273 55284
L51273 55396
" />
<path d="M51273 54665
L51330 54721
L51273 54777
L51217 54721
L51273 54665
L51273 54777
" />
<path d="M41909 57244
L42106 57440
" />
<path d="M42106 57244
L41909 57440
" />
<path d="M43399 56695
L43512 56695
L43624 56751
L43681 56808
L43737 56920
L43793 57145
L43793 57426
L43737 57651
L43681 57764
L43624 57820
L43512 57876
L43399 57876
L43287 57820
L43231 57764
L43174 57651
L43118 57426
L43118 57145
L43174 56920
L43231 56808
L43287 56751
L43399 56695
" />
<path d="M44299 57764
L44356 57820
L44299 57876
L44243 57820
L44299 57764
L44299 57876
" />
<path d="M45424 56695
L44862 56695
L44805 57258
L44862 57201
L44974 57145
L45255 57145
L45368 57201
L45424 57258
L45480 57370
L45480 57651
L45424 57764
L45368 57820
L45255 57876
L44974 57876
L44862 57820
L44805 57764
" />
<path d="M46212 56695
L46324 56695
L46437 56751
L46493 56808
L46549 56920
L46605 57145
L46605 57426
L46549 57651
L46493 57764
L46437 57820
L46324 57876
L46212 57876
L46099 57820
L46043 57764
L45987 57651
L45930 57426
L45930 57145
L45987 56920
L46043 56808
L46099 56751
L46212 56695
" />
<path d="M47111 57876
L47111 57089
" />
<path d="M47111 57201
L47168 57145
L47280 57089
L47449 57089
L47561 57145
L47618 57258
L47618 57876
" />
<path d="M47618 57258
L47674 57145
L47786 57089
L47955 57089
L48068 57145
L48124 57258
L48124 57876
" />
<path d="M48686 57876
L48686 57089
" />
<path d="M48686 57201
L48742 57145
L48855 57089
L49024 57089
L49136 57145
L49192 57258
L49192 57876
" />
<path d="M49192 57258
L49249 57145
L49361 57089
L49530 57089
L49642 57145
L49699 57258
L49699 57876
" />
<path d="M52005 56639
L50992 58158
" />
<path d="M53523 56695
L53636 56695
L53748 56751
L53804 56808
L53861 56920
L53917 57145
L53917 57426
L53861 57651
L53804 57764
L53748 57820
L53636 57876
L53523 57876
L53411 57820
L53354 57764
L53298 57651
L53242 57426
L53242 57145
L53298 56920
L53354 56808
L53411 56751
L53523 56695
" />
<path d="M54423 57764
L54479 57820
L54423 57876
L54367 57820
L54423 57764
L54423 57876
" />
<path d="M55210 56695
L55323 56695
L55435 56751
L55492 56808
L55548 56920
L55604 57145
L55604 57426
L55548 57651
L55492 57764
L55435 57820
L55323 57876
L55210 57876
L55098 57820
L55042 57764
L54985 57651
L54929 57426
L54929 57145
L54985 56920
L55042 56808
L55098 56751
L55210 56695
" />
<path d="M56054 56808
L56110 56751
L56223 56695
L56504 56695
L56616 56751
L56673 56808
L56729 56920
L56729 57033
L56673 57201
L55998 57876
L56729 57876
" />
<path d="M57460 56695
L57573 56695
L57685 56751
L57741 56808
L57798 56920
L57854 57145
L57854 57426
L57798 57651
L57741 57764
L57685 57820
L57573 57876
L57460 57876
L57348 57820
L57291 57764
L57235 57651
L57179 57426
L57179 57145
L57235 56920
L57291 56808
L57348 56751
L57460 56695
" />
<path d="M58304 56695
L58304 56920
" />
<path d="M58754 56695
L58754 56920
" />
<path d="M60497 58326
L60441 58270
L60329 58101
L60272 57989
L60216 57820
L60160 57539
L60160 57314
L60216 57033
L60272 56864
L60329 56751
L60441 56583
L60497 56526
" />
<path d="M60891 56808
L60947 56751
L61060 56695
L61341 56695
L61453 56751
L61510 56808
L61566 56920
L61566 57033
L61510 57201
L60835 57876
L61566 57876
" />
<path d="M62297 56695
L62410 56695
L62522 56751
L62578 56808
L62634 56920
L62691 57145
L62691 57426
L62634 57651
L62578 57764
L62522 57820
L62410 57876
L62297 57876
L62185 57820
L62128 57764
L62072 57651
L62016 57426
L62016 57145
L62072 56920
L62128 56808
L62185 56751
L62297 56695
" />
<path d="M63703 56695
L63478 56695
L63366 56751
L63309 56808
L63197 56976
L63141 57201
L63141 57651
L63197 57764
L63253 57820
L63366 57876
L63591 57876
L63703 57820
L63759 57764
L63816 57651
L63816 57370
L63759 57258
L63703 57201
L63591 57145
L63366 57145
L63253 57201
L63197 57258
L63141 57370
" />
<path d="M65222 57876
L65222 56695
" />
<path d="M65728 57876
L65728 57258
L65672 57145
L65559 57089
L65390 57089
L65278 57145
L65222 57201
" />
<path d="M66459 57876
L66347 57820
L66290 57764
L66234 57651
L66234 57314
L66290 57201
L66347 57145
L66459 57089
L66628 57089
L66740 57145
L66796 57201
L66853 57314
L66853 57651
L66796 57764
L66740 57820
L66628 57876
L66459 57876
" />
<path d="M67528 57876
L67415 57820
L67359 57708
L67359 56695
" />
<path d="M68428 57820
L68315 57876
L68090 57876
L67978 57820
L67921 57708
L67921 57258
L67978 57145
L68090 57089
L68315 57089
L68428 57145
L68484 57258
L68484 57370
L67921 57483
" />
<path d="M68934 57820
L69046 57876
L69271 57876
L69384 57820
L69440 57708
L69440 57651
L69384 57539
L69271 57483
L69102 57483
L68990 57426
L68934 57314
L68934 57258
L68990 57145
L69102 57089
L69271 57089
L69384 57145
" />
<path d="M69834 58326
L69890 58270
L70002 58101
L70059 57989
L70115 57820
L70171 57539
L70171 57314
L70115 57033
L70059 56864
L70002 56751
L69890 56583
L69834 56526
" />
<circle cx="41948.8" cy="58901.6" r="157.48" /> 
<path d="M43399 58254
L43512 58254
L43624 58311
L43681 58367
L43737 58479
L43793 58704
L43793 58985
L43737 59210
L43681 59323
L43624 59379
L43512 59435
L43399 59435
L43287 59379
L43231 59323
L43174 59210
L43118 58985
L43118 58704
L43174 58479
L43231 58367
L43287 58311
L43399 58254
" />
<path d="M44299 59323
L44356 59379
L44299 59435
L44243 59379
L44299 59323
L44299 59435
" />
<path d="M45030 58760
L44918 58704
L44862 58648
L44805 58535
L44805 58479
L44862 58367
L44918 58311
L45030 58254
L45255 58254
L45368 58311
L45424 58367
L45480 58479
L45480 58535
L45424 58648
L45368 58704
L45255 58760
L45030 58760
L44918 58817
L44862 58873
L44805 58985
L44805 59210
L44862 59323
L44918 59379
L45030 59435
L45255 59435
L45368 59379
L45424 59323
L45480 59210
L45480 58985
L45424 58873
L45368 58817
L45255 58760
" />
<path d="M46212 58254
L46324 58254
L46437 58311
L46493 58367
L46549 58479
L46605 58704
L46605 58985
L46549 59210
L46493 59323
L46437 59379
L46324 59435
L46212 59435
L46099 59379
L46043 59323
L45987 59210
L45930 58985
L45930 58704
L45987 58479
L46043 58367
L46099 58311
L46212 58254
" />
<path d="M47111 59435
L47111 58648
" />
<path d="M47111 58760
L47168 58704
L47280 58648
L47449 58648
L47561 58704
L47618 58817
L47618 59435
" />
<path d="M47618 58817
L47674 58704
L47786 58648
L47955 58648
L48068 58704
L48124 58817
L48124 59435
" />
<path d="M48686 59435
L48686 58648
" />
<path d="M48686 58760
L48742 58704
L48855 58648
L49024 58648
L49136 58704
L49192 58817
L49192 59435
" />
<path d="M49192 58817
L49249 58704
L49361 58648
L49530 58648
L49642 58704
L49699 58817
L49699 59435
" />
<path d="M52005 58198
L50992 59717
" />
<path d="M53523 58254
L53636 58254
L53748 58311
L53804 58367
L53861 58479
L53917 58704
L53917 58985
L53861 59210
L53804 59323
L53748 59379
L53636 59435
L53523 59435
L53411 59379
L53354 59323
L53298 59210
L53242 58985
L53242 58704
L53298 58479
L53354 58367
L53411 58311
L53523 58254
" />
<path d="M54423 59323
L54479 59379
L54423 59435
L54367 59379
L54423 59323
L54423 59435
" />
<path d="M55210 58254
L55323 58254
L55435 58311
L55492 58367
L55548 58479
L55604 58704
L55604 58985
L55548 59210
L55492 59323
L55435 59379
L55323 59435
L55210 59435
L55098 59379
L55042 59323
L54985 59210
L54929 58985
L54929 58704
L54985 58479
L55042 58367
L55098 58311
L55210 58254
" />
<path d="M55998 58254
L56729 58254
L56335 58704
L56504 58704
L56616 58760
L56673 58817
L56729 58929
L56729 59210
L56673 59323
L56616 59379
L56504 59435
L56167 59435
L56054 59379
L55998 59323
" />
<path d="M57854 59435
L57179 59435
" />
<path d="M57516 59435
L57516 58254
L57404 58423
L57291 58535
L57179 58592
" />
<path d="M58304 58254
L58304 58479
" />
<path d="M58754 58254
L58754 58479
" />
<path d="M60497 59885
L60441 59829
L60329 59660
L60272 59548
L60216 59379
L60160 59098
L60160 58873
L60216 58592
L60272 58423
L60329 58311
L60441 58142
L60497 58086
" />
<path d="M61453 58254
L61228 58254
L61116 58311
L61060 58367
L60947 58535
L60891 58760
L60891 59210
L60947 59323
L61003 59379
L61116 59435
L61341 59435
L61453 59379
L61510 59323
L61566 59210
L61566 58929
L61510 58817
L61453 58760
L61341 58704
L61116 58704
L61003 58760
L60947 58817
L60891 58929
" />
<path d="M62297 58254
L62410 58254
L62522 58311
L62578 58367
L62634 58479
L62691 58704
L62691 58985
L62634 59210
L62578 59323
L62522 59379
L62410 59435
L62297 59435
L62185 59379
L62128 59323
L62072 59210
L62016 58985
L62016 58704
L62072 58479
L62128 58367
L62185 58311
L62297 58254
" />
<path d="M64097 59435
L64097 58254
" />
<path d="M64603 59435
L64603 58817
L64547 58704
L64434 58648
L64266 58648
L64153 58704
L64097 58760
" />
<path d="M65334 59435
L65222 59379
L65165 59323
L65109 59210
L65109 58873
L65165 58760
L65222 58704
L65334 58648
L65503 58648
L65615 58704
L65672 58760
L65728 58873
L65728 59210
L65672 59323
L65615 59379
L65503 59435
L65334 59435
" />
<path d="M66403 59435
L66290 59379
L66234 59267
L66234 58254
" />
<path d="M67303 59379
L67190 59435
L66965 59435
L66853 59379
L66796 59267
L66796 58817
L66853 58704
L66965 58648
L67190 58648
L67303 58704
L67359 58817
L67359 58929
L66796 59042
" />
<path d="M67809 59379
L67921 59435
L68146 59435
L68259 59379
L68315 59267
L68315 59210
L68259 59098
L68146 59042
L67978 59042
L67865 58985
L67809 58873
L67809 58817
L67865 58704
L67978 58648
L68146 58648
L68259 58704
" />
<path d="M68709 59885
L68765 59829
L68877 59660
L68934 59548
L68990 59379
L69046 59098
L69046 58873
L68990 58592
L68934 58423
L68877 58311
L68765 58142
L68709 58086
" />
<path d="M41909 60263
L41909 60657
" />
<path d="M41712 60460
L42106 60460
" />
<path d="M43793 60994
L43118 60994
" />
<path d="M43456 60994
L43456 59813
L43343 59982
L43231 60095
L43118 60151
" />
<path d="M44299 60882
L44356 60938
L44299 60994
L44243 60938
L44299 60882
L44299 60994
" />
<path d="M45087 59813
L45199 59813
L45312 59870
L45368 59926
L45424 60038
L45480 60263
L45480 60544
L45424 60769
L45368 60882
L45312 60938
L45199 60994
L45087 60994
L44974 60938
L44918 60882
L44862 60769
L44805 60544
L44805 60263
L44862 60038
L44918 59926
L44974 59870
L45087 59813
" />
<path d="M46212 59813
L46324 59813
L46437 59870
L46493 59926
L46549 60038
L46605 60263
L46605 60544
L46549 60769
L46493 60882
L46437 60938
L46324 60994
L46212 60994
L46099 60938
L46043 60882
L45987 60769
L45930 60544
L45930 60263
L45987 60038
L46043 59926
L46099 59870
L46212 59813
" />
<path d="M47111 60994
L47111 60207
" />
<path d="M47111 60320
L47168 60263
L47280 60207
L47449 60207
L47561 60263
L47618 60376
L47618 60994
" />
<path d="M47618 60376
L47674 60263
L47786 60207
L47955 60207
L48068 60263
L48124 60376
L48124 60994
" />
<path d="M48686 60994
L48686 60207
" />
<path d="M48686 60320
L48742 60263
L48855 60207
L49024 60207
L49136 60263
L49192 60376
L49192 60994
" />
<path d="M49192 60376
L49249 60263
L49361 60207
L49530 60207
L49642 60263
L49699 60376
L49699 60994
" />
<path d="M52005 59757
L50992 61276
" />
<path d="M53523 59813
L53636 59813
L53748 59870
L53804 59926
L53861 60038
L53917 60263
L53917 60544
L53861 60769
L53804 60882
L53748 60938
L53636 60994
L53523 60994
L53411 60938
L53354 60882
L53298 60769
L53242 60544
L53242 60263
L53298 60038
L53354 59926
L53411 59870
L53523 59813
" />
<path d="M54423 60882
L54479 60938
L54423 60994
L54367 60938
L54423 60882
L54423 60994
" />
<path d="M55210 59813
L55323 59813
L55435 59870
L55492 59926
L55548 60038
L55604 60263
L55604 60544
L55548 60769
L55492 60882
L55435 60938
L55323 60994
L55210 60994
L55098 60938
L55042 60882
L54985 60769
L54929 60544
L54929 60263
L54985 60038
L55042 59926
L55098 59870
L55210 59813
" />
<path d="M55998 59813
L56729 59813
L56335 60263
L56504 60263
L56616 60320
L56673 60376
L56729 60488
L56729 60769
L56673 60882
L56616 60938
L56504 60994
L56167 60994
L56054 60938
L55998 60882
" />
<path d="M57291 60994
L57516 60994
L57629 60938
L57685 60882
L57798 60713
L57854 60488
L57854 60038
L57798 59926
L57741 59870
L57629 59813
L57404 59813
L57291 59870
L57235 59926
L57179 60038
L57179 60320
L57235 60432
L57291 60488
L57404 60544
L57629 60544
L57741 60488
L57798 60432
L57854 60320
" />
<path d="M58304 59813
L58304 60038
" />
<path d="M58754 59813
L58754 60038
" />
<path d="M60497 61444
L60441 61388
L60329 61219
L60272 61107
L60216 60938
L60160 60657
L60160 60432
L60216 60151
L60272 59982
L60329 59870
L60441 59701
L60497 59645
" />
<path d="M60891 59926
L60947 59870
L61060 59813
L61341 59813
L61453 59870
L61510 59926
L61566 60038
L61566 60151
L61510 60320
L60835 60994
L61566 60994
" />
<path d="M62297 59813
L62410 59813
L62522 59870
L62578 59926
L62634 60038
L62691 60263
L62691 60544
L62634 60769
L62578 60882
L62522 60938
L62410 60994
L62297 60994
L62185 60938
L62128 60882
L62072 60769
L62016 60544
L62016 60263
L62072 60038
L62128 59926
L62185 59870
L62297 59813
" />
<path d="M64097 60994
L64097 59813
" />
<path d="M64603 60994
L64603 60376
L64547 60263
L64434 60207
L64266 60207
L64153 60263
L64097 60320
" />
<path d="M65334 60994
L65222 60938
L65165 60882
L65109 60769
L65109 60432
L65165 60320
L65222 60263
L65334 60207
L65503 60207
L65615 60263
L65672 60320
L65728 60432
L65728 60769
L65672 60882
L65615 60938
L65503 60994
L65334 60994
" />
<path d="M66403 60994
L66290 60938
L66234 60826
L66234 59813
" />
<path d="M67303 60938
L67190 60994
L66965 60994
L66853 60938
L66796 60826
L66796 60376
L66853 60263
L66965 60207
L67190 60207
L67303 60263
L67359 60376
L67359 60488
L66796 60601
" />
<path d="M67809 60938
L67921 60994
L68146 60994
L68259 60938
L68315 60826
L68315 60769
L68259 60657
L68146 60601
L67978 60601
L67865 60544
L67809 60432
L67809 60376
L67865 60263
L67978 60207
L68146 60207
L68259 60263
" />
<path d="M68709 61444
L68765 61388
L68877 61219
L68934 61107
L68990 60938
L69046 60657
L69046 60432
L68990 60151
L68934 59982
L68877 59870
L68765 59701
L68709 59645
" />
<polyline fill="none;"
points="42019,62228
42019,61810
41602,61810
41602,62228
42019,62228
" /> 
<path d="M43793 62553
L43118 62553
" />
<path d="M43456 62553
L43456 61372
L43343 61541
L43231 61654
L43118 61710
" />
<path d="M44299 62441
L44356 62497
L44299 62553
L44243 62497
L44299 62441
L44299 62553
" />
<path d="M45424 61372
L44862 61372
L44805 61935
L44862 61879
L44974 61822
L45255 61822
L45368 61879
L45424 61935
L45480 62047
L45480 62329
L45424 62441
L45368 62497
L45255 62553
L44974 62553
L44862 62497
L44805 62441
" />
<path d="M46212 61372
L46324 61372
L46437 61429
L46493 61485
L46549 61597
L46605 61822
L46605 62104
L46549 62329
L46493 62441
L46437 62497
L46324 62553
L46212 62553
L46099 62497
L46043 62441
L45987 62329
L45930 62104
L45930 61822
L45987 61597
L46043 61485
L46099 61429
L46212 61372
" />
<path d="M47111 62553
L47111 61766
" />
<path d="M47111 61879
L47168 61822
L47280 61766
L47449 61766
L47561 61822
L47618 61935
L47618 62553
" />
<path d="M47618 61935
L47674 61822
L47786 61766
L47955 61766
L48068 61822
L48124 61935
L48124 62553
" />
<path d="M48686 62553
L48686 61766
" />
<path d="M48686 61879
L48742 61822
L48855 61766
L49024 61766
L49136 61822
L49192 61935
L49192 62553
" />
<path d="M49192 61935
L49249 61822
L49361 61766
L49530 61766
L49642 61822
L49699 61935
L49699 62553
" />
<path d="M52005 61316
L50992 62835
" />
<path d="M53523 61372
L53636 61372
L53748 61429
L53804 61485
L53861 61597
L53917 61822
L53917 62104
L53861 62329
L53804 62441
L53748 62497
L53636 62553
L53523 62553
L53411 62497
L53354 62441
L53298 62329
L53242 62104
L53242 61822
L53298 61597
L53354 61485
L53411 61429
L53523 61372
" />
<path d="M54423 62441
L54479 62497
L54423 62553
L54367 62497
L54423 62441
L54423 62553
" />
<path d="M55210 61372
L55323 61372
L55435 61429
L55492 61485
L55548 61597
L55604 61822
L55604 62104
L55548 62329
L55492 62441
L55435 62497
L55323 62553
L55210 62553
L55098 62497
L55042 62441
L54985 62329
L54929 62104
L54929 61822
L54985 61597
L55042 61485
L55098 61429
L55210 61372
" />
<path d="M56673 61372
L56110 61372
L56054 61935
L56110 61879
L56223 61822
L56504 61822
L56616 61879
L56673 61935
L56729 62047
L56729 62329
L56673 62441
L56616 62497
L56504 62553
L56223 62553
L56110 62497
L56054 62441
" />
<path d="M57291 62553
L57516 62553
L57629 62497
L57685 62441
L57798 62272
L57854 62047
L57854 61597
L57798 61485
L57741 61429
L57629 61372
L57404 61372
L57291 61429
L57235 61485
L57179 61597
L57179 61879
L57235 61991
L57291 62047
L57404 62104
L57629 62104
L57741 62047
L57798 61991
L57854 61879
" />
<path d="M58304 61372
L58304 61597
" />
<path d="M58754 61372
L58754 61597
" />
<path d="M60497 63003
L60441 62947
L60329 62778
L60272 62666
L60216 62497
L60160 62216
L60160 61991
L60216 61710
L60272 61541
L60329 61429
L60441 61260
L60497 61204
" />
<path d="M61453 61372
L61228 61372
L61116 61429
L61060 61485
L60947 61654
L60891 61879
L60891 62329
L60947 62441
L61003 62497
L61116 62553
L61341 62553
L61453 62497
L61510 62441
L61566 62329
L61566 62047
L61510 61935
L61453 61879
L61341 61822
L61116 61822
L61003 61879
L60947 61935
L60891 62047
" />
<path d="M62972 62553
L62972 61372
" />
<path d="M63478 62553
L63478 61935
L63422 61822
L63309 61766
L63141 61766
L63028 61822
L62972 61879
" />
<path d="M64209 62553
L64097 62497
L64041 62441
L63984 62329
L63984 61991
L64041 61879
L64097 61822
L64209 61766
L64378 61766
L64491 61822
L64547 61879
L64603 61991
L64603 62329
L64547 62441
L64491 62497
L64378 62553
L64209 62553
" />
<path d="M65278 62553
L65165 62497
L65109 62385
L65109 61372
" />
<path d="M66178 62497
L66065 62553
L65840 62553
L65728 62497
L65672 62385
L65672 61935
L65728 61822
L65840 61766
L66065 61766
L66178 61822
L66234 61935
L66234 62047
L65672 62160
" />
<path d="M66684 62497
L66796 62553
L67021 62553
L67134 62497
L67190 62385
L67190 62329
L67134 62216
L67021 62160
L66853 62160
L66740 62104
L66684 61991
L66684 61935
L66740 61822
L66853 61766
L67021 61766
L67134 61822
" />
<path d="M68596 62104
L69496 62104
" />
<path d="M69046 62553
L69046 61654
" />
<path d="M71465 61372
L71240 61372
L71127 61429
L71071 61485
L70958 61654
L70902 61879
L70902 62329
L70958 62441
L71015 62497
L71127 62553
L71352 62553
L71465 62497
L71521 62441
L71577 62329
L71577 62047
L71521 61935
L71465 61879
L71352 61822
L71127 61822
L71015 61879
L70958 61935
L70902 62047
" />
<path d="M72927 62497
L73039 62553
L73264 62553
L73377 62497
L73433 62385
L73433 62329
L73377 62216
L73264 62160
L73096 62160
L72983 62104
L72927 61991
L72927 61935
L72983 61822
L73096 61766
L73264 61766
L73377 61822
" />
<path d="M74108 62553
L73996 62497
L73939 62385
L73939 61372
" />
<path d="M74727 62553
L74614 62497
L74558 62441
L74502 62329
L74502 61991
L74558 61879
L74614 61822
L74727 61766
L74895 61766
L75008 61822
L75064 61879
L75120 61991
L75120 62329
L75064 62441
L75008 62497
L74895 62553
L74727 62553
" />
<path d="M75458 61766
L75908 61766
" />
<path d="M75627 61372
L75627 62385
L75683 62497
L75795 62553
L75908 62553
" />
<path d="M76245 62497
L76358 62553
L76583 62553
L76695 62497
L76751 62385
L76751 62329
L76695 62216
L76583 62160
L76414 62160
L76302 62104
L76245 61991
L76245 61935
L76302 61822
L76414 61766
L76583 61766
L76695 61822
" />
<path d="M77145 63003
L77201 62947
L77314 62778
L77370 62666
L77426 62497
L77483 62216
L77483 61991
L77426 61710
L77370 61541
L77314 61429
L77201 61260
L77145 61204
" />
<polyline fill="none;"
points="41791,63893
42106,63578
41791,63263
41476,63578
41791,63893
" /> 
<path d="M43793 64113
L43118 64113
" />
<path d="M43456 64113
L43456 62931
L43343 63100
L43231 63213
L43118 63269
" />
<path d="M44299 64000
L44356 64056
L44299 64113
L44243 64056
L44299 64000
L44299 64113
" />
<path d="M45368 62931
L45143 62931
L45030 62988
L44974 63044
L44862 63213
L44805 63438
L44805 63888
L44862 64000
L44918 64056
L45030 64113
L45255 64113
L45368 64056
L45424 64000
L45480 63888
L45480 63606
L45424 63494
L45368 63438
L45255 63381
L45030 63381
L44918 63438
L44862 63494
L44805 63606
" />
<path d="M46212 62931
L46324 62931
L46437 62988
L46493 63044
L46549 63156
L46605 63381
L46605 63663
L46549 63888
L46493 64000
L46437 64056
L46324 64113
L46212 64113
L46099 64056
L46043 64000
L45987 63888
L45930 63663
L45930 63381
L45987 63156
L46043 63044
L46099 62988
L46212 62931
" />
<path d="M47111 64113
L47111 63325
" />
<path d="M47111 63438
L47168 63381
L47280 63325
L47449 63325
L47561 63381
L47618 63494
L47618 64113
" />
<path d="M47618 63494
L47674 63381
L47786 63325
L47955 63325
L48068 63381
L48124 63494
L48124 64113
" />
<path d="M48686 64113
L48686 63325
" />
<path d="M48686 63438
L48742 63381
L48855 63325
L49024 63325
L49136 63381
L49192 63494
L49192 64113
" />
<path d="M49192 63494
L49249 63381
L49361 63325
L49530 63325
L49642 63381
L49699 63494
L49699 64113
" />
<path d="M52005 62875
L50992 64394
" />
<path d="M53523 62931
L53636 62931
L53748 62988
L53804 63044
L53861 63156
L53917 63381
L53917 63663
L53861 63888
L53804 64000
L53748 64056
L53636 64113
L53523 64113
L53411 64056
L53354 64000
L53298 63888
L53242 63663
L53242 63381
L53298 63156
L53354 63044
L53411 62988
L53523 62931
" />
<path d="M54423 64000
L54479 64056
L54423 64113
L54367 64056
L54423 64000
L54423 64113
" />
<path d="M55210 62931
L55323 62931
L55435 62988
L55492 63044
L55548 63156
L55604 63381
L55604 63663
L55548 63888
L55492 64000
L55435 64056
L55323 64113
L55210 64113
L55098 64056
L55042 64000
L54985 63888
L54929 63663
L54929 63381
L54985 63156
L55042 63044
L55098 62988
L55210 62931
" />
<path d="M56616 62931
L56392 62931
L56279 62988
L56223 63044
L56110 63213
L56054 63438
L56054 63888
L56110 64000
L56167 64056
L56279 64113
L56504 64113
L56616 64056
L56673 64000
L56729 63888
L56729 63606
L56673 63494
L56616 63438
L56504 63381
L56279 63381
L56167 63438
L56110 63494
L56054 63606
" />
<path d="M57123 62931
L57854 62931
L57460 63381
L57629 63381
L57741 63438
L57798 63494
L57854 63606
L57854 63888
L57798 64000
L57741 64056
L57629 64113
L57291 64113
L57179 64056
L57123 64000
" />
<path d="M58304 62931
L58304 63156
" />
<path d="M58754 62931
L58754 63156
" />
<path d="M60497 64562
L60441 64506
L60329 64338
L60272 64225
L60216 64056
L60160 63775
L60160 63550
L60216 63269
L60272 63100
L60329 62988
L60441 62819
L60497 62763
" />
<path d="M61566 64113
L60891 64113
" />
<path d="M61228 64113
L61228 62931
L61116 63100
L61003 63213
L60891 63269
" />
<path d="M62016 63044
L62072 62988
L62185 62931
L62466 62931
L62578 62988
L62634 63044
L62691 63156
L62691 63269
L62634 63438
L61960 64113
L62691 64113
" />
<path d="M64097 64113
L64097 62931
" />
<path d="M64603 64113
L64603 63494
L64547 63381
L64434 63325
L64266 63325
L64153 63381
L64097 63438
" />
<path d="M65334 64113
L65222 64056
L65165 64000
L65109 63888
L65109 63550
L65165 63438
L65222 63381
L65334 63325
L65503 63325
L65615 63381
L65672 63438
L65728 63550
L65728 63888
L65672 64000
L65615 64056
L65503 64113
L65334 64113
" />
<path d="M66403 64113
L66290 64056
L66234 63944
L66234 62931
" />
<path d="M67303 64056
L67190 64113
L66965 64113
L66853 64056
L66796 63944
L66796 63494
L66853 63381
L66965 63325
L67190 63325
L67303 63381
L67359 63494
L67359 63606
L66796 63719
" />
<path d="M67809 64056
L67921 64113
L68146 64113
L68259 64056
L68315 63944
L68315 63888
L68259 63775
L68146 63719
L67978 63719
L67865 63663
L67809 63550
L67809 63494
L67865 63381
L67978 63325
L68146 63325
L68259 63381
" />
<path d="M68709 64562
L68765 64506
L68877 64338
L68934 64225
L68990 64056
L69046 63775
L69046 63550
L68990 63269
L68934 63100
L68877 62988
L68765 62819
L68709 62763
" />
<path d="M41397 64783
L42106 65492
" />
<path d="M42106 64783
L41397 65492
" />
<circle cx="41752" cy="65137.8" r="354.331" /> 
<path d="M43793 65672
L43118 65672
" />
<path d="M43456 65672
L43456 64491
L43343 64659
L43231 64772
L43118 64828
" />
<path d="M44299 65559
L44356 65615
L44299 65672
L44243 65615
L44299 65559
L44299 65672
" />
<path d="M45030 64997
L44918 64940
L44862 64884
L44805 64772
L44805 64715
L44862 64603
L44918 64547
L45030 64491
L45255 64491
L45368 64547
L45424 64603
L45480 64715
L45480 64772
L45424 64884
L45368 64940
L45255 64997
L45030 64997
L44918 65053
L44862 65109
L44805 65222
L44805 65447
L44862 65559
L44918 65615
L45030 65672
L45255 65672
L45368 65615
L45424 65559
L45480 65447
L45480 65222
L45424 65109
L45368 65053
L45255 64997
" />
<path d="M46212 64491
L46324 64491
L46437 64547
L46493 64603
L46549 64715
L46605 64940
L46605 65222
L46549 65447
L46493 65559
L46437 65615
L46324 65672
L46212 65672
L46099 65615
L46043 65559
L45987 65447
L45930 65222
L45930 64940
L45987 64715
L46043 64603
L46099 64547
L46212 64491
" />
<path d="M47111 65672
L47111 64884
" />
<path d="M47111 64997
L47168 64940
L47280 64884
L47449 64884
L47561 64940
L47618 65053
L47618 65672
" />
<path d="M47618 65053
L47674 64940
L47786 64884
L47955 64884
L48068 64940
L48124 65053
L48124 65672
" />
<path d="M48686 65672
L48686 64884
" />
<path d="M48686 64997
L48742 64940
L48855 64884
L49024 64884
L49136 64940
L49192 65053
L49192 65672
" />
<path d="M49192 65053
L49249 64940
L49361 64884
L49530 64884
L49642 64940
L49699 65053
L49699 65672
" />
<path d="M52005 64434
L50992 65953
" />
<path d="M53523 64491
L53636 64491
L53748 64547
L53804 64603
L53861 64715
L53917 64940
L53917 65222
L53861 65447
L53804 65559
L53748 65615
L53636 65672
L53523 65672
L53411 65615
L53354 65559
L53298 65447
L53242 65222
L53242 64940
L53298 64715
L53354 64603
L53411 64547
L53523 64491
" />
<path d="M54423 65559
L54479 65615
L54423 65672
L54367 65615
L54423 65559
L54423 65672
" />
<path d="M55210 64491
L55323 64491
L55435 64547
L55492 64603
L55548 64715
L55604 64940
L55604 65222
L55548 65447
L55492 65559
L55435 65615
L55323 65672
L55210 65672
L55098 65615
L55042 65559
L54985 65447
L54929 65222
L54929 64940
L54985 64715
L55042 64603
L55098 64547
L55210 64491
" />
<path d="M55998 64491
L56785 64491
L56279 65672
" />
<path d="M57854 65672
L57179 65672
" />
<path d="M57516 65672
L57516 64491
L57404 64659
L57291 64772
L57179 64828
" />
<path d="M58304 64491
L58304 64715
" />
<path d="M58754 64491
L58754 64715
" />
<path d="M60497 66122
L60441 66065
L60329 65897
L60272 65784
L60216 65615
L60160 65334
L60160 65109
L60216 64828
L60272 64659
L60329 64547
L60441 64378
L60497 64322
" />
<path d="M61453 64884
L61453 65672
" />
<path d="M61172 64434
L60891 65278
L61622 65278
" />
<path d="M62972 65672
L62972 64491
" />
<path d="M63478 65672
L63478 65053
L63422 64940
L63309 64884
L63141 64884
L63028 64940
L62972 64997
" />
<path d="M64209 65672
L64097 65615
L64041 65559
L63984 65447
L63984 65109
L64041 64997
L64097 64940
L64209 64884
L64378 64884
L64491 64940
L64547 64997
L64603 65109
L64603 65447
L64547 65559
L64491 65615
L64378 65672
L64209 65672
" />
<path d="M65278 65672
L65165 65615
L65109 65503
L65109 64491
" />
<path d="M66178 65615
L66065 65672
L65840 65672
L65728 65615
L65672 65503
L65672 65053
L65728 64940
L65840 64884
L66065 64884
L66178 64940
L66234 65053
L66234 65165
L65672 65278
" />
<path d="M66684 65615
L66796 65672
L67021 65672
L67134 65615
L67190 65503
L67190 65447
L67134 65334
L67021 65278
L66853 65278
L66740 65222
L66684 65109
L66684 65053
L66740 64940
L66853 64884
L67021 64884
L67134 64940
" />
<path d="M67584 66122
L67640 66065
L67753 65897
L67809 65784
L67865 65615
L67921 65334
L67921 65109
L67865 64828
L67809 64659
L67753 64547
L67640 64378
L67584 64322
" />
<path d="M40925 66106
L42106 67287
" />
<path d="M42106 66106
L40925 67287
" />
<path d="M41515 66106
L41515 67287
" />
<path d="M40925 66696
L42106 66696
" />
<path d="M43062 66050
L43793 66050
L43399 66500
L43568 66500
L43681 66556
L43737 66612
L43793 66724
L43793 67006
L43737 67118
L43681 67174
L43568 67231
L43231 67231
L43118 67174
L43062 67118
" />
<path d="M44299 67118
L44356 67174
L44299 67231
L44243 67174
L44299 67118
L44299 67231
" />
<path d="M45087 66050
L45199 66050
L45312 66106
L45368 66162
L45424 66275
L45480 66500
L45480 66781
L45424 67006
L45368 67118
L45312 67174
L45199 67231
L45087 67231
L44974 67174
L44918 67118
L44862 67006
L44805 66781
L44805 66500
L44862 66275
L44918 66162
L44974 66106
L45087 66050
" />
<path d="M46212 66050
L46324 66050
L46437 66106
L46493 66162
L46549 66275
L46605 66500
L46605 66781
L46549 67006
L46493 67118
L46437 67174
L46324 67231
L46212 67231
L46099 67174
L46043 67118
L45987 67006
L45930 66781
L45930 66500
L45987 66275
L46043 66162
L46099 66106
L46212 66050
" />
<path d="M47111 67231
L47111 66443
" />
<path d="M47111 66556
L47168 66500
L47280 66443
L47449 66443
L47561 66500
L47618 66612
L47618 67231
" />
<path d="M47618 66612
L47674 66500
L47786 66443
L47955 66443
L48068 66500
L48124 66612
L48124 67231
" />
<path d="M48686 67231
L48686 66443
" />
<path d="M48686 66556
L48742 66500
L48855 66443
L49024 66443
L49136 66500
L49192 66612
L49192 67231
" />
<path d="M49192 66612
L49249 66500
L49361 66443
L49530 66443
L49642 66500
L49699 66612
L49699 67231
" />
<path d="M52005 65993
L50992 67512
" />
<path d="M53523 66050
L53636 66050
L53748 66106
L53804 66162
L53861 66275
L53917 66500
L53917 66781
L53861 67006
L53804 67118
L53748 67174
L53636 67231
L53523 67231
L53411 67174
L53354 67118
L53298 67006
L53242 66781
L53242 66500
L53298 66275
L53354 66162
L53411 66106
L53523 66050
" />
<path d="M54423 67118
L54479 67174
L54423 67231
L54367 67174
L54423 67118
L54423 67231
" />
<path d="M55604 67231
L54929 67231
" />
<path d="M55267 67231
L55267 66050
L55154 66218
L55042 66331
L54929 66387
" />
<path d="M56729 67231
L56054 67231
" />
<path d="M56392 67231
L56392 66050
L56279 66218
L56167 66331
L56054 66387
" />
<path d="M57404 66556
L57291 66500
L57235 66443
L57179 66331
L57179 66275
L57235 66162
L57291 66106
L57404 66050
L57629 66050
L57741 66106
L57798 66162
L57854 66275
L57854 66331
L57798 66443
L57741 66500
L57629 66556
L57404 66556
L57291 66612
L57235 66668
L57179 66781
L57179 67006
L57235 67118
L57291 67174
L57404 67231
L57629 67231
L57741 67174
L57798 67118
L57854 67006
L57854 66781
L57798 66668
L57741 66612
L57629 66556
" />
<path d="M58304 66050
L58304 66275
" />
<path d="M58754 66050
L58754 66275
" />
<path d="M60497 67681
L60441 67624
L60329 67456
L60272 67343
L60216 67174
L60160 66893
L60160 66668
L60216 66387
L60272 66218
L60329 66106
L60441 65937
L60497 65881
" />
<path d="M61453 66443
L61453 67231
" />
<path d="M61172 65993
L60891 66837
L61622 66837
" />
<path d="M62972 67231
L62972 66050
" />
<path d="M63478 67231
L63478 66612
L63422 66500
L63309 66443
L63141 66443
L63028 66500
L62972 66556
" />
<path d="M64209 67231
L64097 67174
L64041 67118
L63984 67006
L63984 66668
L64041 66556
L64097 66500
L64209 66443
L64378 66443
L64491 66500
L64547 66556
L64603 66668
L64603 67006
L64547 67118
L64491 67174
L64378 67231
L64209 67231
" />
<path d="M65278 67231
L65165 67174
L65109 67062
L65109 66050
" />
<path d="M66178 67174
L66065 67231
L65840 67231
L65728 67174
L65672 67062
L65672 66612
L65728 66500
L65840 66443
L66065 66443
L66178 66500
L66234 66612
L66234 66724
L65672 66837
" />
<path d="M66684 67174
L66796 67231
L67021 67231
L67134 67174
L67190 67062
L67190 67006
L67134 66893
L67021 66837
L66853 66837
L66740 66781
L66684 66668
L66684 66612
L66740 66500
L66853 66443
L67021 66443
L67134 66500
" />
<path d="M67584 67681
L67640 67624
L67753 67456
L67809 67343
L67865 67174
L67921 66893
L67921 66668
L67865 66387
L67809 66218
L67753 66106
L67640 65937
L67584 65881
" />
<path d="M69721 67681
L69665 67624
L69552 67456
L69496 67343
L69440 67174
L69384 66893
L69384 66668
L69440 66387
L69496 66218
L69552 66106
L69665 65937
L69721 65881
" />
<path d="M70171 66443
L70171 67231
" />
<path d="M70171 66556
L70227 66500
L70340 66443
L70508 66443
L70621 66500
L70677 66612
L70677 67231
" />
<path d="M71408 67231
L71296 67174
L71240 67118
L71183 67006
L71183 66668
L71240 66556
L71296 66500
L71408 66443
L71577 66443
L71690 66500
L71746 66556
L71802 66668
L71802 67006
L71746 67118
L71690 67174
L71577 67231
L71408 67231
" />
<path d="M72140 66443
L72589 66443
" />
<path d="M72308 66050
L72308 67062
L72365 67174
L72477 67231
L72589 67231
" />
<path d="M73883 66443
L73883 67624
" />
<path d="M73883 66500
L73996 66443
L74221 66443
L74333 66500
L74389 66556
L74446 66668
L74446 67006
L74389 67118
L74333 67174
L74221 67231
L73996 67231
L73883 67174
" />
<path d="M75120 67231
L75008 67174
L74952 67062
L74952 66050
" />
<path d="M76077 67231
L76077 66612
L76020 66500
L75908 66443
L75683 66443
L75570 66500
" />
<path d="M76077 67174
L75964 67231
L75683 67231
L75570 67174
L75514 67062
L75514 66949
L75570 66837
L75683 66781
L75964 66781
L76077 66724
" />
<path d="M76470 66443
L76920 66443
" />
<path d="M76639 66050
L76639 67062
L76695 67174
L76808 67231
L76920 67231
" />
<path d="M77764 67174
L77651 67231
L77426 67231
L77314 67174
L77258 67062
L77258 66612
L77314 66500
L77426 66443
L77651 66443
L77764 66500
L77820 66612
L77820 66724
L77258 66837
" />
<path d="M78832 67231
L78832 66050
" />
<path d="M78832 67174
L78720 67231
L78495 67231
L78383 67174
L78326 67118
L78270 67006
L78270 66668
L78326 66556
L78383 66500
L78495 66443
L78720 66443
L78832 66500
" />
<path d="M79282 67681
L79339 67624
L79451 67456
L79507 67343
L79564 67174
L79620 66893
L79620 66668
L79564 66387
L79507 66218
L79451 66106
L79339 65937
L79282 65881
" />
</g> 
</svg>
