G04 #@! TF.FileFunction,Copper,L2,Bot,Signal*
%FSLAX46Y46*%
G04 Gerber Fmt 4.6, Leading zero omitted, Abs format (unit mm)*
G04 Created by KiCad (PCBNEW 4.0.5) date 03/22/17 11:59:18*
%MOMM*%
%LPD*%
G01*
G04 APERTURE LIST*
%ADD10C,0.150000*%
%ADD11C,0.100000*%
%ADD12C,3.000000*%
%ADD13O,3.000000X8.500000*%
%ADD14C,2.000000*%
%ADD15C,2.200000*%
%ADD16C,1.600000*%
%ADD17C,0.800000*%
%ADD18C,0.300000*%
%ADD19C,2.000000*%
%ADD20C,1.000000*%
%ADD21C,0.254000*%
G04 APERTURE END LIST*
D10*
D11*
X0Y100000000D02*
X100000000Y100000000D01*
X15000000Y0D02*
X0Y0D01*
X100000000Y0D02*
X15000000Y0D01*
X100000000Y100000000D02*
X100000000Y0D01*
X0Y0D02*
X0Y100000000D01*
D12*
X59300000Y4450000D03*
X59300000Y10800000D03*
X59300000Y17150000D03*
X70700000Y4450000D03*
X70700000Y17150000D03*
X70700000Y10800000D03*
X77300000Y4450000D03*
X77300000Y10800000D03*
X77300000Y17150000D03*
X88700000Y4450000D03*
X88700000Y17150000D03*
X88700000Y10800000D03*
X13000000Y2700000D03*
X18000000Y2700000D03*
X23000000Y2700000D03*
D13*
X13000000Y10200000D03*
X18000000Y10200000D03*
X23000000Y10200000D03*
D12*
X35500000Y2700000D03*
X40500000Y2700000D03*
X45500000Y2700000D03*
D13*
X35500000Y10200000D03*
X40500000Y10200000D03*
X45500000Y10200000D03*
D12*
X70020000Y95250000D03*
X62480000Y95250000D03*
X86519998Y95250000D03*
X78979998Y95250000D03*
D14*
X42500000Y41750000D03*
X42500000Y45250000D03*
X42500000Y67000000D03*
X42500000Y63500000D03*
D15*
X54000000Y3500000D03*
X54000000Y8500000D03*
X97000000Y15500000D03*
X97000000Y10500000D03*
D14*
X42500000Y54250000D03*
X42500000Y50750000D03*
X42500000Y78000000D03*
X42500000Y74500000D03*
D15*
X54000000Y15000000D03*
X54000000Y20000000D03*
X97000000Y18500000D03*
X97000000Y23500000D03*
D14*
X62250000Y41750000D03*
X58750000Y41750000D03*
X62250000Y68750000D03*
X58750000Y68750000D03*
X14500000Y56750000D03*
X14500000Y60250000D03*
D15*
X22000000Y28000000D03*
X22000000Y23000000D03*
X12000000Y38500000D03*
X17000000Y38500000D03*
D14*
X18250000Y32000000D03*
X14750000Y32000000D03*
X16250000Y45000000D03*
X12750000Y45000000D03*
D15*
X10000000Y33500000D03*
X5000000Y33500000D03*
X12000000Y78000000D03*
X17000000Y78000000D03*
D14*
X9500000Y28250000D03*
X9500000Y24750000D03*
X16250000Y71500000D03*
X12750000Y71500000D03*
D15*
X44750000Y28000000D03*
X44750000Y23000000D03*
X36500000Y38000000D03*
X31500000Y38000000D03*
D14*
X41250000Y31500000D03*
X37750000Y31500000D03*
X32250000Y44500000D03*
X35750000Y44500000D03*
D15*
X31500000Y33500000D03*
X26500000Y33500000D03*
X31500000Y77500000D03*
X36500000Y77500000D03*
D14*
X32000000Y28250000D03*
X32000000Y24750000D03*
X35750000Y71000000D03*
X32250000Y71000000D03*
X34000000Y56750000D03*
X34000000Y60250000D03*
X68250000Y85500000D03*
X64750000Y85500000D03*
X83250000Y85500000D03*
X79750000Y85500000D03*
D16*
X36680000Y96270000D03*
X36680000Y93730000D03*
X34140000Y96270000D03*
X34140000Y93730000D03*
X31600000Y96270000D03*
X31600000Y93730000D03*
X29060000Y96270000D03*
X29060000Y93730000D03*
X26520000Y96270000D03*
X26520000Y93730000D03*
X23980000Y96270000D03*
X23980000Y93730000D03*
X21440000Y96270000D03*
X21440000Y93730000D03*
X18900000Y96270000D03*
X18900000Y93730000D03*
X16360000Y96270000D03*
X16360000Y93730000D03*
X13820000Y96270000D03*
X13820000Y93730000D03*
D17*
X43100000Y19500000D03*
X42500000Y15800000D03*
X64300000Y72400000D03*
X69000000Y33600000D03*
X65400000Y45000000D03*
X64400000Y66200000D03*
X64100000Y55300000D03*
X65400000Y37600000D03*
X64400000Y29400000D03*
X20906126Y78896494D03*
X26669332Y83480854D03*
X11585178Y83480854D03*
X7745217Y79975658D03*
X29250000Y1750000D03*
X27500000Y10250000D03*
X17000000Y20250000D03*
X26000000Y15750000D03*
X49750000Y25000000D03*
X50000000Y20750000D03*
X50000000Y17250000D03*
X47750000Y14750000D03*
X33750000Y15750000D03*
X39250000Y19500000D03*
X37000000Y19500000D03*
X38750000Y15750000D03*
X40750000Y95000000D03*
X10750000Y95000000D03*
X81750000Y98000000D03*
X76500000Y98000000D03*
X73000000Y98000000D03*
X66750000Y97750000D03*
X45500000Y77500000D03*
X47963045Y83540806D03*
X52638326Y87432794D03*
X14500000Y37250000D03*
X12250000Y33500000D03*
X21250000Y32500000D03*
X22250000Y31250000D03*
X29250000Y26500000D03*
X24500000Y35000000D03*
X7500000Y36250000D03*
X12500000Y27500000D03*
X38245490Y36586995D03*
X30250000Y62000000D03*
X18000000Y62250000D03*
X17750000Y58500000D03*
X39250000Y91250000D03*
X33250000Y91250000D03*
X28250000Y91250000D03*
X25250000Y91250000D03*
X22750000Y91250000D03*
X17500000Y91250000D03*
X11750000Y91250000D03*
X1750000Y90500000D03*
X4750000Y90500000D03*
X7500000Y91750000D03*
X8000000Y98250000D03*
X91000000Y98250000D03*
X91750000Y91250000D03*
X97500000Y90500000D03*
X96750000Y84250000D03*
X91750000Y82750000D03*
X54250000Y90250000D03*
X54250000Y94250000D03*
X49500000Y91250000D03*
X44500000Y91750000D03*
X43250000Y98000000D03*
X48250000Y98000000D03*
X52500000Y98000000D03*
X57250000Y98000000D03*
X57250000Y87500000D03*
X30250000Y55000000D03*
X23250000Y55000000D03*
X33750000Y78000000D03*
X14500000Y78500000D03*
X39500000Y77750000D03*
X3402213Y62050738D03*
X1750000Y78500000D03*
X5750000Y77000000D03*
X26000000Y76500000D03*
X21250000Y74250000D03*
X26000000Y66750000D03*
X26000000Y73000000D03*
X25500000Y49000000D03*
X17500000Y43000000D03*
X18000000Y53750000D03*
X17750000Y49000000D03*
X14000000Y53750000D03*
X12500000Y49500000D03*
X2250000Y36500000D03*
X8500000Y39250000D03*
X29750000Y42500000D03*
X25500000Y42500000D03*
X51000000Y49250000D03*
X51000000Y62000000D03*
X51000000Y76000000D03*
X48000000Y69000000D03*
X44500000Y70000000D03*
X39000000Y72500000D03*
X38500000Y68000000D03*
X46250000Y58750000D03*
X43000000Y58750000D03*
X39250000Y60500000D03*
X39250000Y57750000D03*
X73000000Y86250000D03*
X72000000Y86250000D03*
X73750000Y85500000D03*
X72500000Y85500000D03*
X71250000Y85500000D03*
X81750000Y92250000D03*
X79250000Y92250000D03*
X76500000Y92250000D03*
X73000000Y92250000D03*
X69750000Y92250000D03*
X66750000Y92250000D03*
X64750000Y80250000D03*
X57250000Y79500000D03*
X57000000Y81250000D03*
X9000000Y17250000D03*
X14500000Y17000000D03*
X11000000Y22000000D03*
X34500000Y35250000D03*
X28250000Y29500000D03*
X34500000Y31500000D03*
X35000000Y25750000D03*
X31750000Y22000000D03*
X33750000Y20500000D03*
X31000000Y16500000D03*
X19750000Y17500000D03*
X21750000Y20250000D03*
X31000000Y53500000D03*
X11500000Y53750000D03*
X11250000Y61750000D03*
X10000000Y70250000D03*
X6750000Y70250000D03*
X6000000Y48500000D03*
X1542584Y45910291D03*
X6500000Y22750000D03*
X7000000Y26750000D03*
X19250000Y27750000D03*
X28250000Y37750000D03*
X24500000Y37750000D03*
X20250000Y37750000D03*
X32750000Y40500000D03*
X14250000Y41750000D03*
X14500000Y74500000D03*
X33750000Y73750000D03*
X18500000Y76500000D03*
X30250000Y73500000D03*
X38000000Y41000000D03*
X37500000Y54750000D03*
X37500000Y47750000D03*
X37500000Y50750000D03*
X88000000Y84000000D03*
X60000000Y89000000D03*
X53500000Y26500000D03*
X54000000Y43000000D03*
X54000000Y55750000D03*
X54000000Y69500000D03*
X4000000Y21000000D03*
X18250000Y22750000D03*
X26500000Y20250000D03*
X40500000Y22750000D03*
X21250000Y45750000D03*
X20750000Y53000000D03*
X3250000Y70250000D03*
X1500000Y53750000D03*
X22000000Y70000000D03*
X21250000Y62500000D03*
X39500000Y83500000D03*
X24250000Y83500000D03*
X15250000Y83500000D03*
X51000000Y70000000D03*
X51000000Y56000000D03*
X51000000Y27000000D03*
X3250000Y83500000D03*
X36250000Y83500000D03*
X51000000Y43000000D03*
X59250000Y23000000D03*
X52500000Y53600000D03*
X88000000Y40500000D03*
X75000000Y68500000D03*
X82500000Y24000000D03*
X55500000Y67000000D03*
X63850000Y83000000D03*
X81000000Y75500000D03*
X91000000Y61500000D03*
X91000000Y32500000D03*
X84940800Y61518869D03*
X85001588Y75857080D03*
X85000000Y47500000D03*
X76500000Y32500000D03*
X76500000Y61500000D03*
X55863614Y78441119D03*
X94239867Y68464990D03*
X62000000Y13500000D03*
X54000000Y40500000D03*
X73000000Y40500000D03*
X74500000Y49750000D03*
X64750000Y48500000D03*
X79250000Y56500000D03*
X64750000Y61000000D03*
X46500000Y71000000D03*
X46250000Y57000000D03*
X48000000Y42750000D03*
X48000000Y28000000D03*
D18*
X39250000Y19500000D02*
X43100000Y19500000D01*
X38750000Y15750000D02*
X42450000Y15750000D01*
X42450000Y15750000D02*
X42500000Y15800000D01*
X65400000Y37600000D02*
X65400000Y45000000D01*
X60600000Y62400000D02*
X64400000Y66200000D01*
X60600000Y58000000D02*
X60600000Y62400000D01*
X63300000Y55300000D02*
X60600000Y58000000D01*
X64100000Y55300000D02*
X63300000Y55300000D01*
X62500000Y50900000D02*
X64100000Y52500000D01*
X64100000Y52500000D02*
X64100000Y55300000D01*
X62500000Y46500000D02*
X62500000Y50900000D01*
X65400000Y43600000D02*
X62500000Y46500000D01*
X65400000Y37600000D02*
X65400000Y43600000D01*
X64400000Y29400000D02*
X64400000Y36600000D01*
X64400000Y36600000D02*
X65400000Y37600000D01*
X27500000Y1750000D02*
X29250000Y1750000D01*
X27500000Y10250000D02*
X27500000Y1750000D01*
X26500000Y20250000D02*
X26500000Y16250000D01*
X26500000Y16250000D02*
X26000000Y15750000D01*
X50000000Y20750000D02*
X50000000Y24750000D01*
X50000000Y24750000D02*
X49750000Y25000000D01*
X47750000Y14750000D02*
X47750000Y15000000D01*
X47750000Y15000000D02*
X50000000Y17250000D01*
X31750000Y15750000D02*
X33750000Y15750000D01*
X33750000Y15750000D02*
X38750000Y15750000D01*
X37000000Y19500000D02*
X39250000Y19500000D01*
X31000000Y16500000D02*
X31750000Y15750000D01*
X76500000Y92250000D02*
X76500000Y98000000D01*
X66750000Y92250000D02*
X66750000Y97750000D01*
X42500000Y74500000D02*
X45500000Y77500000D01*
X52638326Y87432794D02*
X52705532Y87500000D01*
X52705532Y87500000D02*
X57250000Y87500000D01*
X13500000Y34750000D02*
X12250000Y33500000D01*
X19000000Y34750000D02*
X13500000Y34750000D01*
X21250000Y32500000D02*
X19000000Y34750000D01*
X24500000Y35000000D02*
X24500000Y33500000D01*
X24500000Y33500000D02*
X22250000Y31250000D01*
X19250000Y27750000D02*
X12750000Y27750000D01*
X12750000Y27750000D02*
X12500000Y27500000D01*
X38245490Y36586995D02*
X38673795Y37015300D01*
X38673795Y37015300D02*
X38673795Y40326205D01*
X38673795Y40326205D02*
X38000000Y41000000D01*
X26000000Y66750000D02*
X26000000Y66250000D01*
X26000000Y66250000D02*
X30250000Y62000000D01*
X33250000Y91250000D02*
X39250000Y91250000D01*
X28250000Y91250000D02*
X33250000Y91250000D01*
X25250000Y91250000D02*
X28250000Y91250000D01*
X22750000Y91250000D02*
X25250000Y91250000D01*
X17500000Y91250000D02*
X22750000Y91250000D01*
X11750000Y91250000D02*
X17500000Y91250000D01*
X7500000Y91750000D02*
X11250000Y91750000D01*
X11250000Y91750000D02*
X11750000Y91250000D01*
X4750000Y90500000D02*
X1750000Y90500000D01*
X9000000Y97250000D02*
X9000000Y93250000D01*
X9000000Y93250000D02*
X7500000Y91750000D01*
X8000000Y98250000D02*
X9000000Y97250000D01*
X97500000Y90500000D02*
X96750000Y91250000D01*
X96750000Y91250000D02*
X91750000Y91250000D01*
X91750000Y82750000D02*
X93250000Y84250000D01*
X93250000Y84250000D02*
X96750000Y84250000D01*
X54250000Y94250000D02*
X54250000Y90250000D01*
X44500000Y91750000D02*
X45000000Y91250000D01*
X45000000Y91250000D02*
X49500000Y91250000D01*
X48250000Y98000000D02*
X43250000Y98000000D01*
X57250000Y98000000D02*
X52500000Y98000000D01*
X3402213Y62050738D02*
X3851475Y62500000D01*
X3851475Y62500000D02*
X10500000Y62500000D01*
X10500000Y62500000D02*
X11250000Y61750000D01*
X3250000Y83500000D02*
X3250000Y79500000D01*
X3250000Y79500000D02*
X5750000Y77000000D01*
X26000000Y73000000D02*
X26000000Y76500000D01*
X26000000Y73000000D02*
X26000000Y66750000D01*
X25500000Y42500000D02*
X25500000Y49000000D01*
X18000000Y48750000D02*
X18000000Y43500000D01*
X18000000Y43500000D02*
X17500000Y43000000D01*
X17750000Y49000000D02*
X18000000Y48750000D01*
X17750000Y49000000D02*
X17750000Y53500000D01*
X17750000Y53500000D02*
X18000000Y53750000D01*
X12500000Y49500000D02*
X17250000Y49500000D01*
X17250000Y49500000D02*
X17750000Y49000000D01*
X6000000Y48500000D02*
X11500000Y48500000D01*
X11500000Y48500000D02*
X12500000Y49500000D01*
X6000000Y48500000D02*
X6000000Y41750000D01*
X6000000Y41750000D02*
X8500000Y39250000D01*
X21250000Y45750000D02*
X22250000Y45750000D01*
X22250000Y45750000D02*
X25500000Y42500000D01*
X51000000Y56000000D02*
X51000000Y49250000D01*
X51000000Y70000000D02*
X51000000Y62000000D01*
X51000000Y70000000D02*
X51000000Y76000000D01*
X38500000Y68000000D02*
X39000000Y68500000D01*
X39000000Y68500000D02*
X39000000Y72500000D01*
X39250000Y60500000D02*
X41250000Y60500000D01*
X41250000Y60500000D02*
X43000000Y58750000D01*
X37500000Y54750000D02*
X37500000Y56000000D01*
X37500000Y56000000D02*
X39250000Y57750000D01*
X72000000Y86250000D02*
X73000000Y86250000D01*
X72500000Y85500000D02*
X73750000Y85500000D01*
X68250000Y85500000D02*
X71250000Y85500000D01*
X68250000Y85500000D02*
X64750000Y82000000D01*
X64750000Y82000000D02*
X64750000Y80250000D01*
X76500000Y92250000D02*
X79250000Y92250000D01*
X69750000Y92250000D02*
X73000000Y92250000D01*
X70119998Y95524999D02*
X70024999Y95524999D01*
X70024999Y95524999D02*
X66750000Y92250000D01*
X57250000Y79500000D02*
X64000000Y79500000D01*
X64000000Y79500000D02*
X64750000Y80250000D01*
X57000000Y81250000D02*
X57250000Y81000000D01*
X57250000Y81000000D02*
X57250000Y79500000D01*
X33750000Y73750000D02*
X34326982Y73173018D01*
X34326982Y73173018D02*
X41173018Y73173018D01*
X41173018Y73173018D02*
X42500000Y74500000D01*
X34500000Y31500000D02*
X30250000Y31500000D01*
X30250000Y31500000D02*
X28250000Y29500000D01*
X33750000Y20500000D02*
X33750000Y24500000D01*
X33750000Y24500000D02*
X35000000Y25750000D01*
X33750000Y20500000D02*
X32250000Y22000000D01*
X32250000Y22000000D02*
X31750000Y22000000D01*
X40500000Y22750000D02*
X35000000Y22750000D01*
X35000000Y22750000D02*
X33500000Y21250000D01*
X26500000Y20250000D02*
X27250000Y20250000D01*
X27250000Y20250000D02*
X31000000Y16500000D01*
X18250000Y22750000D02*
X19250000Y22750000D01*
X19250000Y22750000D02*
X21750000Y20250000D01*
X37500000Y54750000D02*
X32250000Y54750000D01*
X32250000Y54750000D02*
X31000000Y53500000D01*
X1500000Y53750000D02*
X11500000Y53750000D01*
X6750000Y70250000D02*
X10000000Y70250000D01*
X3250000Y70250000D02*
X6750000Y70250000D01*
X1542584Y45910291D02*
X3410291Y45910291D01*
X3410291Y45910291D02*
X6000000Y48500000D01*
X4000000Y21000000D02*
X4000000Y23750000D01*
X4000000Y23750000D02*
X7000000Y26750000D01*
X18250000Y22750000D02*
X18250000Y26750000D01*
X18250000Y26750000D02*
X19250000Y27750000D01*
X24500000Y37750000D02*
X28250000Y37750000D01*
X22750000Y41750000D02*
X31500000Y41750000D01*
X14250000Y41750000D02*
X22750000Y41750000D01*
X22750000Y41750000D02*
X22750000Y40250000D01*
X22750000Y40250000D02*
X20250000Y37750000D01*
X31500000Y41750000D02*
X32750000Y40500000D01*
X21250000Y45750000D02*
X17250000Y41750000D01*
X17250000Y41750000D02*
X14250000Y41750000D01*
X18500000Y76500000D02*
X16500000Y74500000D01*
X16500000Y74500000D02*
X14500000Y74500000D01*
X30250000Y73500000D02*
X33500000Y73500000D01*
X33500000Y73500000D02*
X33750000Y73750000D01*
X22000000Y70000000D02*
X22000000Y73000000D01*
X22000000Y73000000D02*
X18500000Y76500000D01*
X37500000Y47750000D02*
X37500000Y41500000D01*
X37500000Y41500000D02*
X38000000Y41000000D01*
X37500000Y50750000D02*
X37500000Y54750000D01*
X37500000Y50750000D02*
X37500000Y47750000D01*
D19*
X70700000Y17150000D02*
X70700000Y18821320D01*
X70700000Y18821320D02*
X72151101Y20272421D01*
X72151101Y20272421D02*
X85123476Y20272421D01*
X85123476Y20272421D02*
X87232849Y22381794D01*
X87232849Y22381794D02*
X87232849Y39732849D01*
X87232849Y39732849D02*
X88000000Y40500000D01*
D18*
X52500000Y53600000D02*
X52500000Y29750000D01*
X52500000Y29750000D02*
X59250000Y23000000D01*
X65250000Y7000000D02*
X83000000Y7000000D01*
X88700000Y10800000D02*
X84900000Y7000000D01*
X84900000Y7000000D02*
X83000000Y7000000D01*
D19*
X82500000Y24000000D02*
X82500000Y65000000D01*
X82500000Y65000000D02*
X79000000Y68500000D01*
X79000000Y68500000D02*
X75000000Y68500000D01*
D18*
X55500000Y67000000D02*
X56000000Y66500000D01*
X56000000Y66500000D02*
X56000000Y31500000D01*
X56000000Y31500000D02*
X63168237Y24331763D01*
X63168237Y24331763D02*
X63168237Y9081763D01*
X63168237Y9081763D02*
X65250000Y7000000D01*
D19*
X86519998Y95250000D02*
X86519998Y88769998D01*
X81000000Y75500000D02*
X81000000Y76629869D01*
X81000000Y76629869D02*
X84620131Y80250000D01*
X84620131Y80250000D02*
X85250000Y80250000D01*
D20*
X34000000Y56750000D02*
X35000000Y56750000D01*
X63064415Y83785585D02*
X63850000Y83000000D01*
X35000000Y56750000D02*
X36750000Y58500000D01*
X36750000Y58500000D02*
X36750000Y61250000D01*
X36750000Y61250000D02*
X27750000Y70250000D01*
X27750000Y70250000D02*
X27750000Y77750000D01*
X27750000Y77750000D02*
X30500000Y80500000D01*
X30500000Y80500000D02*
X49475131Y80500000D01*
X49475131Y80500000D02*
X52760716Y83785585D01*
X52760716Y83785585D02*
X63064415Y83785585D01*
D19*
X86519998Y88769998D02*
X83250000Y85500000D01*
X91000000Y74500000D02*
X85250000Y80250000D01*
X85250000Y80250000D02*
X83250000Y82250000D01*
X83250000Y82250000D02*
X83250000Y85500000D01*
X91000000Y61500000D02*
X91000000Y74500000D01*
D20*
X14500000Y56750000D02*
X34000000Y56750000D01*
D19*
X91000000Y61500000D02*
X91000000Y32500000D01*
X62480000Y95250000D02*
X62480000Y89270000D01*
X62480000Y89270000D02*
X62579998Y89170002D01*
X84940800Y61518869D02*
X84959669Y61500000D01*
X84959669Y61500000D02*
X85000000Y61500000D01*
X85000000Y72000000D02*
X85000000Y75855492D01*
X85000000Y75855492D02*
X85001588Y75857080D01*
D20*
X24500000Y60250000D02*
X24500000Y77250000D01*
X24500000Y77250000D02*
X29250000Y82000000D01*
X29250000Y82000000D02*
X48796597Y82000000D01*
X48796597Y82000000D02*
X52296597Y85500000D01*
X52296597Y85500000D02*
X64750000Y85500000D01*
D19*
X64750000Y87000000D02*
X66000000Y88250000D01*
X66000000Y88250000D02*
X74577458Y88250000D01*
X74577458Y88250000D02*
X76500000Y86327458D01*
X76500000Y86327458D02*
X76500000Y74500000D01*
X76500000Y74500000D02*
X79000000Y72000000D01*
X79000000Y72000000D02*
X85000000Y72000000D01*
D20*
X24500000Y60250000D02*
X14500000Y60250000D01*
X34000000Y60250000D02*
X24500000Y60250000D01*
D19*
X62579998Y89170002D02*
X64750000Y87000000D01*
X85000000Y61500000D02*
X85000000Y72000000D01*
X64750000Y85500000D02*
X64750000Y87000000D01*
X85000000Y47500000D02*
X85000000Y61500000D01*
X76500000Y61500000D02*
X76500000Y32500000D01*
D18*
X66250000Y7750000D02*
X78900000Y7750000D01*
X88700000Y17150000D02*
X79300000Y7750000D01*
X79300000Y7750000D02*
X78900000Y7750000D01*
D19*
X91256043Y27517340D02*
X91256043Y21000000D01*
X88700000Y17150000D02*
X91256043Y19706043D01*
X91256043Y19706043D02*
X91256043Y21000000D01*
X94239867Y68464990D02*
X94000000Y68225123D01*
X94000000Y68225123D02*
X94000000Y30261297D01*
X94000000Y30261297D02*
X91256043Y27517340D01*
D18*
X55863614Y78441119D02*
X57000000Y77304733D01*
X57000000Y77304733D02*
X57000000Y33750000D01*
X57000000Y33750000D02*
X64250000Y26500000D01*
X64250000Y9750000D02*
X66250000Y7750000D01*
X64250000Y26500000D02*
X64500000Y26250000D01*
X64250000Y26500000D02*
X64250000Y9750000D01*
D19*
X66923852Y20216653D02*
X66923852Y14576148D01*
X66923852Y14576148D02*
X67372770Y14127230D01*
X70700000Y10800000D02*
X67372770Y14127230D01*
X70700000Y10350000D02*
X70700000Y10351082D01*
X66923852Y20216653D02*
X73000000Y26292801D01*
X73000000Y26292801D02*
X73000000Y40500000D01*
D18*
X54000000Y31000000D02*
X62000000Y23000000D01*
X62000000Y23000000D02*
X62000000Y13500000D01*
X54000000Y40500000D02*
X54000000Y31000000D01*
D20*
X64750000Y48500000D02*
X73250000Y48500000D01*
X73250000Y48500000D02*
X74500000Y49750000D01*
X79250000Y56500000D02*
X78998197Y56751803D01*
X78998197Y56751803D02*
X78998197Y62751803D01*
X78998197Y62751803D02*
X77500000Y64250000D01*
X77500000Y64250000D02*
X68000000Y64250000D01*
X68000000Y64250000D02*
X67500000Y63750000D01*
X67500000Y63750000D02*
X64750000Y61000000D01*
D18*
X46500000Y63298224D02*
X46000000Y62798224D01*
X44750000Y38750000D02*
X44750000Y61548224D01*
X44750000Y61548224D02*
X46000000Y62798224D01*
X41750000Y35750000D02*
X44750000Y38750000D01*
X39250000Y35750000D02*
X41750000Y35750000D01*
X46500000Y71000000D02*
X46500000Y63298224D01*
X37000000Y33500000D02*
X31500000Y33500000D01*
X39250000Y35750000D02*
X37000000Y33500000D01*
X41250000Y34250000D02*
X46250000Y39250000D01*
X46250000Y39250000D02*
X46250000Y57000000D01*
X41250000Y31500000D02*
X41250000Y34250000D01*
X43500000Y18250000D02*
X35000000Y18250000D01*
X35000000Y18250000D02*
X34500000Y18250000D01*
X24500000Y27000000D02*
X33250000Y18250000D01*
X33250000Y18250000D02*
X35000000Y18250000D01*
X24500000Y28250000D02*
X23000000Y29750000D01*
X24500000Y28250000D02*
X24500000Y27000000D01*
X23000000Y29750000D02*
X11000000Y29750000D01*
X11000000Y29750000D02*
X9500000Y28250000D01*
X46500000Y21250000D02*
X43500000Y18250000D01*
X46500000Y36000000D02*
X46500000Y21250000D01*
X48000000Y37500000D02*
X46500000Y36000000D01*
X48000000Y42750000D02*
X48000000Y37500000D01*
X44250000Y17250000D02*
X32750000Y17250000D01*
X32750000Y17250000D02*
X22000000Y28000000D01*
X48000000Y21000000D02*
X44250000Y17250000D01*
X48000000Y28000000D02*
X48000000Y21000000D01*
D21*
G36*
X98873000Y1127000D02*
X46934912Y1127000D01*
X47302131Y1493578D01*
X47626630Y2275057D01*
X47626630Y2275132D01*
X52954737Y2275132D01*
X53065641Y1997901D01*
X53711593Y1754677D01*
X54401453Y1777164D01*
X54934359Y1997901D01*
X55045263Y2275132D01*
X54000000Y3320395D01*
X52954737Y2275132D01*
X47626630Y2275132D01*
X47627368Y3121230D01*
X47351697Y3788407D01*
X52254677Y3788407D01*
X52277164Y3098547D01*
X52497901Y2565641D01*
X52775132Y2454737D01*
X53820395Y3500000D01*
X54179605Y3500000D01*
X55224868Y2454737D01*
X55502099Y2565641D01*
X55641563Y2936030D01*
X57965635Y2936030D01*
X58125418Y2617261D01*
X58916187Y2307277D01*
X59765387Y2323503D01*
X60474582Y2617261D01*
X60634365Y2936030D01*
X69365635Y2936030D01*
X69525418Y2617261D01*
X70316187Y2307277D01*
X71165387Y2323503D01*
X71874582Y2617261D01*
X72034365Y2936030D01*
X75965635Y2936030D01*
X76125418Y2617261D01*
X76916187Y2307277D01*
X77765387Y2323503D01*
X78474582Y2617261D01*
X78634365Y2936030D01*
X87365635Y2936030D01*
X87525418Y2617261D01*
X88316187Y2307277D01*
X89165387Y2323503D01*
X89874582Y2617261D01*
X90034365Y2936030D01*
X88700000Y4270395D01*
X87365635Y2936030D01*
X78634365Y2936030D01*
X77300000Y4270395D01*
X75965635Y2936030D01*
X72034365Y2936030D01*
X70700000Y4270395D01*
X69365635Y2936030D01*
X60634365Y2936030D01*
X59300000Y4270395D01*
X57965635Y2936030D01*
X55641563Y2936030D01*
X55745323Y3211593D01*
X55722836Y3901453D01*
X55502099Y4434359D01*
X55224868Y4545263D01*
X54179605Y3500000D01*
X53820395Y3500000D01*
X52775132Y4545263D01*
X52497901Y4434359D01*
X52254677Y3788407D01*
X47351697Y3788407D01*
X47304234Y3903274D01*
X46706422Y4502131D01*
X46170013Y4724868D01*
X52954737Y4724868D01*
X54000000Y3679605D01*
X55045263Y4724868D01*
X55001681Y4833813D01*
X57157277Y4833813D01*
X57173503Y3984613D01*
X57467261Y3275418D01*
X57786030Y3115635D01*
X59120395Y4450000D01*
X59479605Y4450000D01*
X60813970Y3115635D01*
X61132739Y3275418D01*
X61442723Y4066187D01*
X61428056Y4833813D01*
X68557277Y4833813D01*
X68573503Y3984613D01*
X68867261Y3275418D01*
X69186030Y3115635D01*
X70520395Y4450000D01*
X70879605Y4450000D01*
X72213970Y3115635D01*
X72532739Y3275418D01*
X72842723Y4066187D01*
X72828056Y4833813D01*
X75157277Y4833813D01*
X75173503Y3984613D01*
X75467261Y3275418D01*
X75786030Y3115635D01*
X77120395Y4450000D01*
X77479605Y4450000D01*
X78813970Y3115635D01*
X79132739Y3275418D01*
X79442723Y4066187D01*
X79428056Y4833813D01*
X86557277Y4833813D01*
X86573503Y3984613D01*
X86867261Y3275418D01*
X87186030Y3115635D01*
X88520395Y4450000D01*
X88879605Y4450000D01*
X90213970Y3115635D01*
X90532739Y3275418D01*
X90842723Y4066187D01*
X90837470Y4341122D01*
X91672424Y4341122D01*
X92177862Y3117868D01*
X93112945Y2181151D01*
X94335315Y1673579D01*
X95658878Y1672424D01*
X96882132Y2177862D01*
X97818849Y3112945D01*
X98326421Y4335315D01*
X98327576Y5658878D01*
X97822138Y6882132D01*
X96887055Y7818849D01*
X95664685Y8326421D01*
X94341122Y8327576D01*
X93117868Y7822138D01*
X92181151Y6887055D01*
X91673579Y5664685D01*
X91672424Y4341122D01*
X90837470Y4341122D01*
X90826497Y4915387D01*
X90532739Y5624582D01*
X90213970Y5784365D01*
X88879605Y4450000D01*
X88520395Y4450000D01*
X87186030Y5784365D01*
X86867261Y5624582D01*
X86557277Y4833813D01*
X79428056Y4833813D01*
X79426497Y4915387D01*
X79132739Y5624582D01*
X78813970Y5784365D01*
X77479605Y4450000D01*
X77120395Y4450000D01*
X75786030Y5784365D01*
X75467261Y5624582D01*
X75157277Y4833813D01*
X72828056Y4833813D01*
X72826497Y4915387D01*
X72532739Y5624582D01*
X72213970Y5784365D01*
X70879605Y4450000D01*
X70520395Y4450000D01*
X69186030Y5784365D01*
X68867261Y5624582D01*
X68557277Y4833813D01*
X61428056Y4833813D01*
X61426497Y4915387D01*
X61132739Y5624582D01*
X60813970Y5784365D01*
X59479605Y4450000D01*
X59120395Y4450000D01*
X57786030Y5784365D01*
X57467261Y5624582D01*
X57157277Y4833813D01*
X55001681Y4833813D01*
X54934359Y5002099D01*
X54288407Y5245323D01*
X53598547Y5222836D01*
X53065641Y5002099D01*
X52954737Y4724868D01*
X46170013Y4724868D01*
X45924943Y4826630D01*
X45078770Y4827368D01*
X44296726Y4504234D01*
X43697869Y3906422D01*
X43373370Y3124943D01*
X43372632Y2278770D01*
X43695766Y1496726D01*
X44064847Y1127000D01*
X41934912Y1127000D01*
X42302131Y1493578D01*
X42626630Y2275057D01*
X42627368Y3121230D01*
X42304234Y3903274D01*
X41706422Y4502131D01*
X40924943Y4826630D01*
X40078770Y4827368D01*
X39296726Y4504234D01*
X38697869Y3906422D01*
X38373370Y3124943D01*
X38372632Y2278770D01*
X38695766Y1496726D01*
X39064847Y1127000D01*
X36804776Y1127000D01*
X36834365Y1186030D01*
X35500000Y2520395D01*
X34165635Y1186030D01*
X34195224Y1127000D01*
X24434912Y1127000D01*
X24802131Y1493578D01*
X25126630Y2275057D01*
X25127335Y3083813D01*
X33357277Y3083813D01*
X33373503Y2234613D01*
X33667261Y1525418D01*
X33986030Y1365635D01*
X35320395Y2700000D01*
X35679605Y2700000D01*
X37013970Y1365635D01*
X37332739Y1525418D01*
X37642723Y2316187D01*
X37626497Y3165387D01*
X37332739Y3874582D01*
X37013970Y4034365D01*
X35679605Y2700000D01*
X35320395Y2700000D01*
X33986030Y4034365D01*
X33667261Y3874582D01*
X33357277Y3083813D01*
X25127335Y3083813D01*
X25127368Y3121230D01*
X24804234Y3903274D01*
X24494081Y4213970D01*
X34165635Y4213970D01*
X35500000Y2879605D01*
X36834365Y4213970D01*
X36674582Y4532739D01*
X35883813Y4842723D01*
X35034613Y4826497D01*
X34325418Y4532739D01*
X34165635Y4213970D01*
X24494081Y4213970D01*
X24206422Y4502131D01*
X23424943Y4826630D01*
X22578770Y4827368D01*
X21796726Y4504234D01*
X21197869Y3906422D01*
X20873370Y3124943D01*
X20872632Y2278770D01*
X21195766Y1496726D01*
X21564847Y1127000D01*
X19434912Y1127000D01*
X19802131Y1493578D01*
X20126630Y2275057D01*
X20127368Y3121230D01*
X19804234Y3903274D01*
X19206422Y4502131D01*
X18424943Y4826630D01*
X17578770Y4827368D01*
X16796726Y4504234D01*
X16197869Y3906422D01*
X15873370Y3124943D01*
X15872632Y2278770D01*
X16195766Y1496726D01*
X16564847Y1127000D01*
X14304776Y1127000D01*
X14334365Y1186030D01*
X13000000Y2520395D01*
X11665635Y1186030D01*
X11695224Y1127000D01*
X1127000Y1127000D01*
X1127000Y4341122D01*
X1672424Y4341122D01*
X2177862Y3117868D01*
X3112945Y2181151D01*
X4335315Y1673579D01*
X5658878Y1672424D01*
X6882132Y2177862D01*
X7789666Y3083813D01*
X10857277Y3083813D01*
X10873503Y2234613D01*
X11167261Y1525418D01*
X11486030Y1365635D01*
X12820395Y2700000D01*
X13179605Y2700000D01*
X14513970Y1365635D01*
X14832739Y1525418D01*
X15142723Y2316187D01*
X15126497Y3165387D01*
X14832739Y3874582D01*
X14513970Y4034365D01*
X13179605Y2700000D01*
X12820395Y2700000D01*
X11486030Y4034365D01*
X11167261Y3874582D01*
X10857277Y3083813D01*
X7789666Y3083813D01*
X7818849Y3112945D01*
X8276034Y4213970D01*
X11665635Y4213970D01*
X13000000Y2879605D01*
X14334365Y4213970D01*
X14174582Y4532739D01*
X13383813Y4842723D01*
X12534613Y4826497D01*
X11825418Y4532739D01*
X11665635Y4213970D01*
X8276034Y4213970D01*
X8326421Y4335315D01*
X8327576Y5658878D01*
X7822138Y6882132D01*
X6887055Y7818849D01*
X5664685Y8326421D01*
X4341122Y8327576D01*
X3117868Y7822138D01*
X2181151Y6887055D01*
X1673579Y5664685D01*
X1672424Y4341122D01*
X1127000Y4341122D01*
X1127000Y10073000D01*
X10865000Y10073000D01*
X10865000Y7323000D01*
X11076118Y6515638D01*
X11580130Y5850524D01*
X12300304Y5428916D01*
X12541167Y5364887D01*
X12873000Y5477835D01*
X12873000Y10073000D01*
X13127000Y10073000D01*
X13127000Y5477835D01*
X13458833Y5364887D01*
X13699696Y5428916D01*
X14419870Y5850524D01*
X14923882Y6515638D01*
X15135000Y7323000D01*
X15135000Y10073000D01*
X13127000Y10073000D01*
X12873000Y10073000D01*
X10865000Y10073000D01*
X1127000Y10073000D01*
X1127000Y13077000D01*
X10865000Y13077000D01*
X10865000Y10327000D01*
X12873000Y10327000D01*
X12873000Y14922165D01*
X13127000Y14922165D01*
X13127000Y10327000D01*
X15135000Y10327000D01*
X15135000Y13045546D01*
X15873000Y13045546D01*
X15873000Y7354454D01*
X16034908Y6540486D01*
X16495984Y5850438D01*
X17186032Y5389362D01*
X18000000Y5227454D01*
X18813968Y5389362D01*
X19504016Y5850438D01*
X19965092Y6540486D01*
X20127000Y7354454D01*
X20127000Y13045546D01*
X20873000Y13045546D01*
X20873000Y7354454D01*
X21034908Y6540486D01*
X21495984Y5850438D01*
X22186032Y5389362D01*
X23000000Y5227454D01*
X23813968Y5389362D01*
X24504016Y5850438D01*
X24965092Y6540486D01*
X25127000Y7354454D01*
X25127000Y10073000D01*
X33365000Y10073000D01*
X33365000Y7323000D01*
X33576118Y6515638D01*
X34080130Y5850524D01*
X34800304Y5428916D01*
X35041167Y5364887D01*
X35373000Y5477835D01*
X35373000Y10073000D01*
X35627000Y10073000D01*
X35627000Y5477835D01*
X35958833Y5364887D01*
X36199696Y5428916D01*
X36919870Y5850524D01*
X37423882Y6515638D01*
X37635000Y7323000D01*
X37635000Y10073000D01*
X35627000Y10073000D01*
X35373000Y10073000D01*
X33365000Y10073000D01*
X25127000Y10073000D01*
X25127000Y13045546D01*
X25120744Y13077000D01*
X33365000Y13077000D01*
X33365000Y10327000D01*
X35373000Y10327000D01*
X35373000Y14922165D01*
X35627000Y14922165D01*
X35627000Y10327000D01*
X37635000Y10327000D01*
X37635000Y13045546D01*
X38373000Y13045546D01*
X38373000Y7354454D01*
X38534908Y6540486D01*
X38995984Y5850438D01*
X39686032Y5389362D01*
X40500000Y5227454D01*
X41313968Y5389362D01*
X42004016Y5850438D01*
X42465092Y6540486D01*
X42627000Y7354454D01*
X42627000Y13045546D01*
X43373000Y13045546D01*
X43373000Y7354454D01*
X43534908Y6540486D01*
X43995984Y5850438D01*
X44686032Y5389362D01*
X45500000Y5227454D01*
X46313968Y5389362D01*
X47004016Y5850438D01*
X47079875Y5963970D01*
X57965635Y5963970D01*
X59300000Y4629605D01*
X60634365Y5963970D01*
X60474582Y6282739D01*
X59683813Y6592723D01*
X58834613Y6576497D01*
X58125418Y6282739D01*
X57965635Y5963970D01*
X47079875Y5963970D01*
X47465092Y6540486D01*
X47627000Y7354454D01*
X47627000Y8157986D01*
X52272701Y8157986D01*
X52535067Y7523011D01*
X53020456Y7036774D01*
X53654971Y6773300D01*
X54342014Y6772701D01*
X54976989Y7035067D01*
X55463226Y7520456D01*
X55726700Y8154971D01*
X55727299Y8842014D01*
X55464933Y9476989D01*
X54979544Y9963226D01*
X54345029Y10226700D01*
X53657986Y10227299D01*
X53023011Y9964933D01*
X52536774Y9479544D01*
X52273300Y8845029D01*
X52272701Y8157986D01*
X47627000Y8157986D01*
X47627000Y10378770D01*
X57172632Y10378770D01*
X57495766Y9596726D01*
X58093578Y8997869D01*
X58875057Y8673370D01*
X59721230Y8672632D01*
X60503274Y8995766D01*
X61102131Y9593578D01*
X61426630Y10375057D01*
X61427368Y11221230D01*
X61104234Y12003274D01*
X60506422Y12602131D01*
X59724943Y12926630D01*
X58878770Y12927368D01*
X58096726Y12604234D01*
X57497869Y12006422D01*
X57173370Y11224943D01*
X57172632Y10378770D01*
X47627000Y10378770D01*
X47627000Y13045546D01*
X47481877Y13775132D01*
X52954737Y13775132D01*
X53065641Y13497901D01*
X53711593Y13254677D01*
X54401453Y13277164D01*
X54934359Y13497901D01*
X55045263Y13775132D01*
X54000000Y14820395D01*
X52954737Y13775132D01*
X47481877Y13775132D01*
X47465092Y13859514D01*
X47004016Y14549562D01*
X46313968Y15010638D01*
X45500000Y15172546D01*
X44686032Y15010638D01*
X43995984Y14549562D01*
X43534908Y13859514D01*
X43373000Y13045546D01*
X42627000Y13045546D01*
X42465092Y13859514D01*
X42004016Y14549562D01*
X41313968Y15010638D01*
X40500000Y15172546D01*
X39686032Y15010638D01*
X38995984Y14549562D01*
X38534908Y13859514D01*
X38373000Y13045546D01*
X37635000Y13045546D01*
X37635000Y13077000D01*
X37423882Y13884362D01*
X36919870Y14549476D01*
X36199696Y14971084D01*
X35958833Y15035113D01*
X35627000Y14922165D01*
X35373000Y14922165D01*
X35041167Y15035113D01*
X34800304Y14971084D01*
X34080130Y14549476D01*
X33576118Y13884362D01*
X33365000Y13077000D01*
X25120744Y13077000D01*
X24965092Y13859514D01*
X24504016Y14549562D01*
X23813968Y15010638D01*
X23000000Y15172546D01*
X22186032Y15010638D01*
X21495984Y14549562D01*
X21034908Y13859514D01*
X20873000Y13045546D01*
X20127000Y13045546D01*
X19965092Y13859514D01*
X19504016Y14549562D01*
X18813968Y15010638D01*
X18000000Y15172546D01*
X17186032Y15010638D01*
X16495984Y14549562D01*
X16034908Y13859514D01*
X15873000Y13045546D01*
X15135000Y13045546D01*
X15135000Y13077000D01*
X14923882Y13884362D01*
X14419870Y14549476D01*
X13699696Y14971084D01*
X13458833Y15035113D01*
X13127000Y14922165D01*
X12873000Y14922165D01*
X12541167Y15035113D01*
X12300304Y14971084D01*
X11580130Y14549476D01*
X11076118Y13884362D01*
X10865000Y13077000D01*
X1127000Y13077000D01*
X1127000Y15288407D01*
X52254677Y15288407D01*
X52277164Y14598547D01*
X52497901Y14065641D01*
X52775132Y13954737D01*
X53820395Y15000000D01*
X54179605Y15000000D01*
X55224868Y13954737D01*
X55502099Y14065641D01*
X55745323Y14711593D01*
X55722836Y15401453D01*
X55502099Y15934359D01*
X55224868Y16045263D01*
X54179605Y15000000D01*
X53820395Y15000000D01*
X52775132Y16045263D01*
X52497901Y15934359D01*
X52254677Y15288407D01*
X1127000Y15288407D01*
X1127000Y16224868D01*
X52954737Y16224868D01*
X54000000Y15179605D01*
X55045263Y16224868D01*
X54934359Y16502099D01*
X54288407Y16745323D01*
X53598547Y16722836D01*
X53065641Y16502099D01*
X52954737Y16224868D01*
X1127000Y16224868D01*
X1127000Y22657986D01*
X20272701Y22657986D01*
X20535067Y22023011D01*
X21020456Y21536774D01*
X21654971Y21273300D01*
X22342014Y21272701D01*
X22976989Y21535067D01*
X23463226Y22020456D01*
X23726700Y22654971D01*
X23727299Y23342014D01*
X23464933Y23976989D01*
X22979544Y24463226D01*
X22345029Y24726700D01*
X21657986Y24727299D01*
X21023011Y24464933D01*
X20536774Y23979544D01*
X20273300Y23345029D01*
X20272701Y22657986D01*
X1127000Y22657986D01*
X1127000Y24427789D01*
X7872718Y24427789D01*
X8119892Y23829582D01*
X8577175Y23371501D01*
X9174950Y23123283D01*
X9822211Y23122718D01*
X10420418Y23369892D01*
X10878499Y23827175D01*
X11126717Y24424950D01*
X11127282Y25072211D01*
X10880108Y25670418D01*
X10422825Y26128499D01*
X9825050Y26376717D01*
X9177789Y26377282D01*
X8579582Y26130108D01*
X8121501Y25672825D01*
X7873283Y25075050D01*
X7872718Y24427789D01*
X1127000Y24427789D01*
X1127000Y27927789D01*
X7872718Y27927789D01*
X8119892Y27329582D01*
X8577175Y26871501D01*
X9174950Y26623283D01*
X9822211Y26622718D01*
X10420418Y26869892D01*
X10878499Y27327175D01*
X11126717Y27924950D01*
X11127282Y28572211D01*
X11066985Y28718141D01*
X11321844Y28973000D01*
X20534057Y28973000D01*
X20273300Y28345029D01*
X20272701Y27657986D01*
X20535067Y27023011D01*
X21020456Y26536774D01*
X21654971Y26273300D01*
X22342014Y26272701D01*
X22544705Y26356451D01*
X32200578Y16700578D01*
X32452655Y16532146D01*
X32750000Y16473000D01*
X44250000Y16473000D01*
X44547345Y16532146D01*
X44799422Y16700578D01*
X47756830Y19657986D01*
X52272701Y19657986D01*
X52535067Y19023011D01*
X53020456Y18536774D01*
X53654971Y18273300D01*
X54342014Y18272701D01*
X54976989Y18535067D01*
X55463226Y19020456D01*
X55726700Y19654971D01*
X55727299Y20342014D01*
X55464933Y20976989D01*
X54979544Y21463226D01*
X54345029Y21726700D01*
X53657986Y21727299D01*
X53023011Y21464933D01*
X52536774Y20979544D01*
X52273300Y20345029D01*
X52272701Y19657986D01*
X47756830Y19657986D01*
X48549422Y20450578D01*
X48717854Y20702655D01*
X48777000Y21000000D01*
X48777000Y27324514D01*
X48870140Y27417492D01*
X49026821Y27794821D01*
X49027178Y28203387D01*
X48871156Y28580989D01*
X48582508Y28870140D01*
X48205179Y29026821D01*
X47796613Y29027178D01*
X47419011Y28871156D01*
X47277000Y28729392D01*
X47277000Y35678156D01*
X48549422Y36950578D01*
X48717854Y37202655D01*
X48777000Y37500000D01*
X48777000Y42074514D01*
X48870140Y42167492D01*
X49026821Y42544821D01*
X49027178Y42953387D01*
X48871156Y43330989D01*
X48582508Y43620140D01*
X48205179Y43776821D01*
X47796613Y43777178D01*
X47419011Y43621156D01*
X47129860Y43332508D01*
X47027000Y43084794D01*
X47027000Y53396613D01*
X51472822Y53396613D01*
X51628844Y53019011D01*
X51723000Y52924691D01*
X51723000Y29750000D01*
X51782146Y29452655D01*
X51950578Y29200578D01*
X58222937Y22928219D01*
X58222822Y22796613D01*
X58378844Y22419011D01*
X58667492Y22129860D01*
X59044821Y21973179D01*
X59453387Y21972822D01*
X59830989Y22128844D01*
X60120140Y22417492D01*
X60276821Y22794821D01*
X60277178Y23203387D01*
X60121156Y23580989D01*
X59832508Y23870140D01*
X59455179Y24026821D01*
X59321907Y24026937D01*
X53277000Y30071844D01*
X53277000Y30728526D01*
X53282146Y30702655D01*
X53450578Y30450578D01*
X61223000Y22678156D01*
X61223000Y18065838D01*
X61104234Y18353274D01*
X60506422Y18952131D01*
X59724943Y19276630D01*
X58878770Y19277368D01*
X58096726Y18954234D01*
X57497869Y18356422D01*
X57173370Y17574943D01*
X57172632Y16728770D01*
X57495766Y15946726D01*
X58093578Y15347869D01*
X58875057Y15023370D01*
X59721230Y15022632D01*
X60503274Y15345766D01*
X61102131Y15943578D01*
X61223000Y16234662D01*
X61223000Y14175486D01*
X61129860Y14082508D01*
X60973179Y13705179D01*
X60972822Y13296613D01*
X61128844Y12919011D01*
X61417492Y12629860D01*
X61794821Y12473179D01*
X62203387Y12472822D01*
X62391237Y12550440D01*
X62391237Y9081763D01*
X62450383Y8784418D01*
X62618815Y8532341D01*
X64700578Y6450578D01*
X64952655Y6282146D01*
X65250000Y6223000D01*
X69495474Y6223000D01*
X69365635Y5963970D01*
X70700000Y4629605D01*
X72034365Y5963970D01*
X71904526Y6223000D01*
X76095474Y6223000D01*
X75965635Y5963970D01*
X77300000Y4629605D01*
X78634365Y5963970D01*
X87365635Y5963970D01*
X88700000Y4629605D01*
X90034365Y5963970D01*
X89874582Y6282739D01*
X89083813Y6592723D01*
X88234613Y6576497D01*
X87525418Y6282739D01*
X87365635Y5963970D01*
X78634365Y5963970D01*
X78504526Y6223000D01*
X84900000Y6223000D01*
X85197345Y6282146D01*
X85449422Y6450578D01*
X87849091Y8850247D01*
X88275057Y8673370D01*
X89121230Y8672632D01*
X89903274Y8995766D01*
X90502131Y9593578D01*
X90736494Y10157986D01*
X95272701Y10157986D01*
X95535067Y9523011D01*
X96020456Y9036774D01*
X96654971Y8773300D01*
X97342014Y8772701D01*
X97976989Y9035067D01*
X98463226Y9520456D01*
X98726700Y10154971D01*
X98727299Y10842014D01*
X98464933Y11476989D01*
X97979544Y11963226D01*
X97345029Y12226700D01*
X96657986Y12227299D01*
X96023011Y11964933D01*
X95536774Y11479544D01*
X95273300Y10845029D01*
X95272701Y10157986D01*
X90736494Y10157986D01*
X90826630Y10375057D01*
X90827368Y11221230D01*
X90504234Y12003274D01*
X89906422Y12602131D01*
X89124943Y12926630D01*
X88278770Y12927368D01*
X87496726Y12604234D01*
X86897869Y12006422D01*
X86573370Y11224943D01*
X86572632Y10378770D01*
X86750194Y9949038D01*
X84578156Y7777000D01*
X80425844Y7777000D01*
X86923976Y14275132D01*
X95954737Y14275132D01*
X96065641Y13997901D01*
X96711593Y13754677D01*
X97401453Y13777164D01*
X97934359Y13997901D01*
X98045263Y14275132D01*
X97000000Y15320395D01*
X95954737Y14275132D01*
X86923976Y14275132D01*
X87849091Y15200247D01*
X88275057Y15023370D01*
X89121230Y15022632D01*
X89903274Y15345766D01*
X90346688Y15788407D01*
X95254677Y15788407D01*
X95277164Y15098547D01*
X95497901Y14565641D01*
X95775132Y14454737D01*
X96820395Y15500000D01*
X97179605Y15500000D01*
X98224868Y14454737D01*
X98502099Y14565641D01*
X98745323Y15211593D01*
X98722836Y15901453D01*
X98502099Y16434359D01*
X98224868Y16545263D01*
X97179605Y15500000D01*
X96820395Y15500000D01*
X95775132Y16545263D01*
X95497901Y16434359D01*
X95254677Y15788407D01*
X90346688Y15788407D01*
X90502131Y15943578D01*
X90826630Y16725057D01*
X90826849Y16975923D01*
X91126058Y17275132D01*
X95954737Y17275132D01*
X96064801Y17000000D01*
X95954737Y16724868D01*
X97000000Y15679605D01*
X98045263Y16724868D01*
X97935199Y17000000D01*
X98045263Y17275132D01*
X97000000Y18320395D01*
X95954737Y17275132D01*
X91126058Y17275132D01*
X92406506Y18555580D01*
X92562075Y18788407D01*
X95254677Y18788407D01*
X95277164Y18098547D01*
X95497901Y17565641D01*
X95775132Y17454737D01*
X96820395Y18500000D01*
X97179605Y18500000D01*
X98224868Y17454737D01*
X98502099Y17565641D01*
X98745323Y18211593D01*
X98722836Y18901453D01*
X98502099Y19434359D01*
X98224868Y19545263D01*
X97179605Y18500000D01*
X96820395Y18500000D01*
X95775132Y19545263D01*
X95497901Y19434359D01*
X95254677Y18788407D01*
X92562075Y18788407D01*
X92759195Y19083417D01*
X92883044Y19706043D01*
X92883043Y19706048D01*
X92883043Y19724868D01*
X95954737Y19724868D01*
X97000000Y18679605D01*
X98045263Y19724868D01*
X97934359Y20002099D01*
X97288407Y20245323D01*
X96598547Y20222836D01*
X96065641Y20002099D01*
X95954737Y19724868D01*
X92883043Y19724868D01*
X92883043Y23157986D01*
X95272701Y23157986D01*
X95535067Y22523011D01*
X96020456Y22036774D01*
X96654971Y21773300D01*
X97342014Y21772701D01*
X97976989Y22035067D01*
X98463226Y22520456D01*
X98726700Y23154971D01*
X98727299Y23842014D01*
X98464933Y24476989D01*
X97979544Y24963226D01*
X97345029Y25226700D01*
X96657986Y25227299D01*
X96023011Y24964933D01*
X95536774Y24479544D01*
X95273300Y23845029D01*
X95272701Y23157986D01*
X92883043Y23157986D01*
X92883043Y26843414D01*
X95150463Y29110834D01*
X95503152Y29638671D01*
X95627000Y30261297D01*
X95627000Y67668729D01*
X95743019Y67842364D01*
X95866867Y68464990D01*
X95743019Y69087616D01*
X95390330Y69615453D01*
X94862493Y69968142D01*
X94239867Y70091990D01*
X93617241Y69968142D01*
X93089404Y69615453D01*
X92849537Y69375586D01*
X92627000Y69042535D01*
X92627000Y74500000D01*
X92503152Y75122626D01*
X92150463Y75650463D01*
X84877000Y82923926D01*
X84877000Y84826074D01*
X87670458Y87619533D01*
X87670461Y87619535D01*
X88023150Y88147372D01*
X88043564Y88250000D01*
X88146999Y88769998D01*
X88146998Y88770003D01*
X88146998Y93868753D01*
X88322129Y94043578D01*
X88445680Y94341122D01*
X91672424Y94341122D01*
X92177862Y93117868D01*
X93112945Y92181151D01*
X94335315Y91673579D01*
X95658878Y91672424D01*
X96882132Y92177862D01*
X97818849Y93112945D01*
X98326421Y94335315D01*
X98327576Y95658878D01*
X97822138Y96882132D01*
X96887055Y97818849D01*
X95664685Y98326421D01*
X94341122Y98327576D01*
X93117868Y97822138D01*
X92181151Y96887055D01*
X91673579Y95664685D01*
X91672424Y94341122D01*
X88445680Y94341122D01*
X88646628Y94825057D01*
X88647366Y95671230D01*
X88324232Y96453274D01*
X87726420Y97052131D01*
X86944941Y97376630D01*
X86098768Y97377368D01*
X85316724Y97054234D01*
X84717867Y96456422D01*
X84393368Y95674943D01*
X84392630Y94828770D01*
X84715764Y94046726D01*
X84892998Y93869182D01*
X84892998Y89443923D01*
X82099968Y86650894D01*
X81871501Y86422825D01*
X81623283Y85825050D01*
X81622718Y85177789D01*
X81623000Y85177107D01*
X81623000Y82250000D01*
X81746848Y81627374D01*
X82099537Y81099537D01*
X82634140Y80564934D01*
X79849537Y77780332D01*
X79496848Y77252495D01*
X79373000Y76629869D01*
X79373000Y75500000D01*
X79496848Y74877374D01*
X79849537Y74349537D01*
X80377374Y73996848D01*
X81000000Y73873000D01*
X81622626Y73996848D01*
X82150463Y74349537D01*
X82503152Y74877374D01*
X82627000Y75500000D01*
X82627000Y75955943D01*
X84935065Y78264009D01*
X89373000Y73826074D01*
X89373000Y41317412D01*
X89150462Y41650462D01*
X88622626Y42003152D01*
X88000000Y42127000D01*
X87377374Y42003152D01*
X86849537Y41650462D01*
X86082386Y40883312D01*
X85729697Y40355475D01*
X85605849Y39732849D01*
X85605849Y23055720D01*
X84449550Y21899421D01*
X72151106Y21899421D01*
X72151101Y21899422D01*
X71528475Y21775573D01*
X71000638Y21422884D01*
X69549537Y19971783D01*
X69196848Y19443946D01*
X69073000Y18821320D01*
X69073000Y18531247D01*
X68897869Y18356422D01*
X68573370Y17574943D01*
X68572632Y16728770D01*
X68895766Y15946726D01*
X69493578Y15347869D01*
X70275057Y15023370D01*
X71121230Y15022632D01*
X71903274Y15345766D01*
X72502131Y15943578D01*
X72826630Y16725057D01*
X72827368Y17571230D01*
X72512610Y18333004D01*
X72825027Y18645421D01*
X75787373Y18645421D01*
X75497869Y18356422D01*
X75173370Y17574943D01*
X75172632Y16728770D01*
X75495766Y15946726D01*
X76093578Y15347869D01*
X76875057Y15023370D01*
X77721230Y15022632D01*
X78503274Y15345766D01*
X79102131Y15943578D01*
X79426630Y16725057D01*
X79427368Y17571230D01*
X79104234Y18353274D01*
X78812597Y18645421D01*
X85123476Y18645421D01*
X85746102Y18769269D01*
X86273939Y19121958D01*
X88383312Y21231331D01*
X88736001Y21759168D01*
X88859849Y22381794D01*
X88859849Y39058924D01*
X89150462Y39349537D01*
X89373000Y39682588D01*
X89373000Y32500000D01*
X89496848Y31877374D01*
X89849537Y31349537D01*
X90377374Y30996848D01*
X91000000Y30873000D01*
X91622626Y30996848D01*
X92150463Y31349537D01*
X92373000Y31682588D01*
X92373000Y30935223D01*
X90105580Y28667803D01*
X89752891Y28139966D01*
X89629043Y27517340D01*
X89629043Y20379969D01*
X88526226Y19277152D01*
X88278770Y19277368D01*
X87496726Y18954234D01*
X86897869Y18356422D01*
X86573370Y17574943D01*
X86572632Y16728770D01*
X86750194Y16299038D01*
X78978156Y8527000D01*
X66571844Y8527000D01*
X65027000Y10071844D01*
X65027000Y20216653D01*
X65296852Y20216653D01*
X65296852Y14576148D01*
X65420700Y13953522D01*
X65773389Y13425685D01*
X68572848Y10626226D01*
X68572632Y10378770D01*
X68895766Y9596726D01*
X69493578Y8997869D01*
X70275057Y8673370D01*
X71121230Y8672632D01*
X71903274Y8995766D01*
X72502131Y9593578D01*
X72826630Y10375057D01*
X72826633Y10378770D01*
X75172632Y10378770D01*
X75495766Y9596726D01*
X76093578Y8997869D01*
X76875057Y8673370D01*
X77721230Y8672632D01*
X78503274Y8995766D01*
X79102131Y9593578D01*
X79426630Y10375057D01*
X79427368Y11221230D01*
X79104234Y12003274D01*
X78506422Y12602131D01*
X77724943Y12926630D01*
X76878770Y12927368D01*
X76096726Y12604234D01*
X75497869Y12006422D01*
X75173370Y11224943D01*
X75172632Y10378770D01*
X72826633Y10378770D01*
X72827368Y11221230D01*
X72504234Y12003274D01*
X71906422Y12602131D01*
X71124943Y12926630D01*
X70874077Y12926849D01*
X68550852Y15250074D01*
X68550852Y19542727D01*
X74150463Y25142338D01*
X74503152Y25670175D01*
X74627000Y26292801D01*
X74627000Y40500000D01*
X74503152Y41122626D01*
X74150463Y41650463D01*
X73622626Y42003152D01*
X73000000Y42127000D01*
X72377374Y42003152D01*
X71849537Y41650463D01*
X71496848Y41122626D01*
X71373000Y40500000D01*
X71373000Y26966727D01*
X65773389Y21367116D01*
X65420700Y20839279D01*
X65296852Y20216653D01*
X65027000Y20216653D01*
X65027000Y25685596D01*
X65049422Y25700578D01*
X65217854Y25952656D01*
X65277000Y26250000D01*
X65217854Y26547345D01*
X65049422Y26799422D01*
X57777000Y34071844D01*
X57777000Y40421764D01*
X57827175Y40371501D01*
X58424950Y40123283D01*
X59072211Y40122718D01*
X59670418Y40369892D01*
X60128499Y40827175D01*
X60376717Y41424950D01*
X60376719Y41427789D01*
X60622718Y41427789D01*
X60869892Y40829582D01*
X61327175Y40371501D01*
X61924950Y40123283D01*
X62572211Y40122718D01*
X63170418Y40369892D01*
X63628499Y40827175D01*
X63876717Y41424950D01*
X63877282Y42072211D01*
X63630108Y42670418D01*
X63172825Y43128499D01*
X62575050Y43376717D01*
X61927789Y43377282D01*
X61329582Y43130108D01*
X60871501Y42672825D01*
X60623283Y42075050D01*
X60622718Y41427789D01*
X60376719Y41427789D01*
X60377282Y42072211D01*
X60130108Y42670418D01*
X59672825Y43128499D01*
X59075050Y43376717D01*
X58427789Y43377282D01*
X57829582Y43130108D01*
X57777000Y43077618D01*
X57777000Y61000000D01*
X63623000Y61000000D01*
X63708788Y60568716D01*
X63953091Y60203091D01*
X64318716Y59958788D01*
X64750000Y59873000D01*
X65181284Y59958788D01*
X65546909Y60203091D01*
X68296909Y62953090D01*
X68296911Y62953093D01*
X68466818Y63123000D01*
X76479891Y63123000D01*
X75877374Y63003152D01*
X75349537Y62650463D01*
X74996848Y62122626D01*
X74873000Y61500000D01*
X74873000Y50802805D01*
X74500000Y50877000D01*
X74068716Y50791212D01*
X73703091Y50546909D01*
X72783182Y49627000D01*
X64750000Y49627000D01*
X64318716Y49541212D01*
X63953091Y49296909D01*
X63708788Y48931284D01*
X63623000Y48500000D01*
X63708788Y48068716D01*
X63953091Y47703091D01*
X64318716Y47458788D01*
X64750000Y47373000D01*
X73250000Y47373000D01*
X73681284Y47458788D01*
X74046909Y47703091D01*
X74873000Y48529182D01*
X74873000Y32500000D01*
X74996848Y31877374D01*
X75349537Y31349537D01*
X75877374Y30996848D01*
X76500000Y30873000D01*
X77122626Y30996848D01*
X77650463Y31349537D01*
X78003152Y31877374D01*
X78127000Y32500000D01*
X78127000Y56066074D01*
X78201288Y55954894D01*
X78453091Y55703091D01*
X78818716Y55458788D01*
X79250000Y55373001D01*
X79681284Y55458788D01*
X80046909Y55703091D01*
X80291212Y56068716D01*
X80376999Y56500000D01*
X80291212Y56931284D01*
X80125197Y57179743D01*
X80125197Y62751803D01*
X80039409Y63183087D01*
X79947663Y63320395D01*
X79795107Y63548712D01*
X78296909Y65046909D01*
X77931284Y65291212D01*
X77500000Y65377000D01*
X68000000Y65377000D01*
X67568716Y65291212D01*
X67203091Y65046909D01*
X66703093Y64546911D01*
X66703090Y64546909D01*
X63953091Y61796909D01*
X63708788Y61431284D01*
X63623000Y61000000D01*
X57777000Y61000000D01*
X57777000Y67421764D01*
X57827175Y67371501D01*
X58424950Y67123283D01*
X59072211Y67122718D01*
X59670418Y67369892D01*
X60128499Y67827175D01*
X60376717Y68424950D01*
X60376719Y68427789D01*
X60622718Y68427789D01*
X60869892Y67829582D01*
X61327175Y67371501D01*
X61924950Y67123283D01*
X62572211Y67122718D01*
X63170418Y67369892D01*
X63628499Y67827175D01*
X63876717Y68424950D01*
X63877282Y69072211D01*
X63630108Y69670418D01*
X63172825Y70128499D01*
X62575050Y70376717D01*
X61927789Y70377282D01*
X61329582Y70130108D01*
X60871501Y69672825D01*
X60623283Y69075050D01*
X60622718Y68427789D01*
X60376719Y68427789D01*
X60377282Y69072211D01*
X60130108Y69670418D01*
X59672825Y70128499D01*
X59075050Y70376717D01*
X58427789Y70377282D01*
X57829582Y70130108D01*
X57777000Y70077618D01*
X57777000Y77304733D01*
X57717854Y77602078D01*
X57549422Y77854155D01*
X56890677Y78512900D01*
X56890792Y78644506D01*
X56734770Y79022108D01*
X56446122Y79311259D01*
X56068793Y79467940D01*
X55660227Y79468297D01*
X55282625Y79312275D01*
X54993474Y79023627D01*
X54836793Y78646298D01*
X54836436Y78237732D01*
X54992458Y77860130D01*
X55281106Y77570979D01*
X55658435Y77414298D01*
X55791707Y77414182D01*
X56223000Y76982889D01*
X56223000Y67729403D01*
X56082508Y67870140D01*
X55705179Y68026821D01*
X55296613Y68027178D01*
X54919011Y67871156D01*
X54629860Y67582508D01*
X54473179Y67205179D01*
X54472822Y66796613D01*
X54628844Y66419011D01*
X54917492Y66129860D01*
X55223000Y66003002D01*
X55223000Y31500000D01*
X55282146Y31202655D01*
X55450578Y30950578D01*
X62391237Y24009919D01*
X62391237Y23707607D01*
X54777000Y31321844D01*
X54777000Y39824514D01*
X54870140Y39917492D01*
X55026821Y40294821D01*
X55027178Y40703387D01*
X54871156Y41080989D01*
X54582508Y41370140D01*
X54205179Y41526821D01*
X53796613Y41527178D01*
X53419011Y41371156D01*
X53277000Y41229392D01*
X53277000Y52924514D01*
X53370140Y53017492D01*
X53526821Y53394821D01*
X53527178Y53803387D01*
X53371156Y54180989D01*
X53082508Y54470140D01*
X52705179Y54626821D01*
X52296613Y54627178D01*
X51919011Y54471156D01*
X51629860Y54182508D01*
X51473179Y53805179D01*
X51472822Y53396613D01*
X47027000Y53396613D01*
X47027000Y56324514D01*
X47120140Y56417492D01*
X47276821Y56794821D01*
X47277178Y57203387D01*
X47121156Y57580989D01*
X46832508Y57870140D01*
X46455179Y58026821D01*
X46046613Y58027178D01*
X45669011Y57871156D01*
X45527000Y57729392D01*
X45527000Y61226380D01*
X47049422Y62748802D01*
X47217854Y63000879D01*
X47277000Y63298224D01*
X47277000Y70324514D01*
X47370140Y70417492D01*
X47526821Y70794821D01*
X47527178Y71203387D01*
X47371156Y71580989D01*
X47082508Y71870140D01*
X46705179Y72026821D01*
X46296613Y72027178D01*
X45919011Y71871156D01*
X45629860Y71582508D01*
X45473179Y71205179D01*
X45472822Y70796613D01*
X45628844Y70419011D01*
X45723000Y70324691D01*
X45723000Y63620068D01*
X44200578Y62097646D01*
X44032146Y61845569D01*
X43973000Y61548224D01*
X43973000Y54945602D01*
X43880108Y55170418D01*
X43422825Y55628499D01*
X42825050Y55876717D01*
X42177789Y55877282D01*
X41579582Y55630108D01*
X41121501Y55172825D01*
X40873283Y54575050D01*
X40872718Y53927789D01*
X41119892Y53329582D01*
X41577175Y52871501D01*
X42174950Y52623283D01*
X42822211Y52622718D01*
X43420418Y52869892D01*
X43878499Y53327175D01*
X43973000Y53554759D01*
X43973000Y51494831D01*
X43919387Y51624264D01*
X43652532Y51722927D01*
X42679605Y50750000D01*
X43652532Y49777073D01*
X43919387Y49875736D01*
X43973000Y50020046D01*
X43973000Y45994831D01*
X43919387Y46124264D01*
X43652532Y46222927D01*
X42679605Y45250000D01*
X43652532Y44277073D01*
X43919387Y44375736D01*
X43973000Y44520046D01*
X43973000Y42445602D01*
X43880108Y42670418D01*
X43422825Y43128499D01*
X42825050Y43376717D01*
X42177789Y43377282D01*
X41579582Y43130108D01*
X41121501Y42672825D01*
X40873283Y42075050D01*
X40872718Y41427789D01*
X41119892Y40829582D01*
X41577175Y40371501D01*
X42174950Y40123283D01*
X42822211Y40122718D01*
X43420418Y40369892D01*
X43878499Y40827175D01*
X43973000Y41054759D01*
X43973000Y39071844D01*
X41428156Y36527000D01*
X39250000Y36527000D01*
X38952655Y36467854D01*
X38700578Y36299422D01*
X36678156Y34277000D01*
X33047567Y34277000D01*
X32964933Y34476989D01*
X32479544Y34963226D01*
X31845029Y35226700D01*
X31157986Y35227299D01*
X30523011Y34964933D01*
X30036774Y34479544D01*
X29773300Y33845029D01*
X29772701Y33157986D01*
X30035067Y32523011D01*
X30520456Y32036774D01*
X31154971Y31773300D01*
X31842014Y31772701D01*
X32476989Y32035067D01*
X32963226Y32520456D01*
X33047330Y32723000D01*
X36672200Y32723000D01*
X36371501Y32422825D01*
X36123283Y31825050D01*
X36122718Y31177789D01*
X36369892Y30579582D01*
X36827175Y30121501D01*
X37424950Y29873283D01*
X38072211Y29872718D01*
X38670418Y30119892D01*
X39128499Y30577175D01*
X39376717Y31174950D01*
X39377282Y31822211D01*
X39130108Y32420418D01*
X38672825Y32878499D01*
X38075050Y33126717D01*
X37725866Y33127022D01*
X39571844Y34973000D01*
X40874156Y34973000D01*
X40700578Y34799422D01*
X40532146Y34547345D01*
X40473000Y34250000D01*
X40473000Y32939367D01*
X40329582Y32880108D01*
X39871501Y32422825D01*
X39623283Y31825050D01*
X39622718Y31177789D01*
X39869892Y30579582D01*
X40327175Y30121501D01*
X40924950Y29873283D01*
X41572211Y29872718D01*
X42170418Y30119892D01*
X42628499Y30577175D01*
X42876717Y31174950D01*
X42877282Y31822211D01*
X42630108Y32420418D01*
X42172825Y32878499D01*
X42027000Y32939051D01*
X42027000Y33928156D01*
X46799422Y38700578D01*
X46967854Y38952655D01*
X47027000Y39250000D01*
X47027000Y42415492D01*
X47128844Y42169011D01*
X47223000Y42074691D01*
X47223000Y37821844D01*
X45950578Y36549422D01*
X45782146Y36297345D01*
X45723000Y36000000D01*
X45723000Y29465943D01*
X45095029Y29726700D01*
X44407986Y29727299D01*
X43773011Y29464933D01*
X43286774Y28979544D01*
X43023300Y28345029D01*
X43022701Y27657986D01*
X43285067Y27023011D01*
X43770456Y26536774D01*
X44404971Y26273300D01*
X45092014Y26272701D01*
X45723000Y26533419D01*
X45723000Y24465943D01*
X45095029Y24726700D01*
X44407986Y24727299D01*
X43773011Y24464933D01*
X43286774Y23979544D01*
X43023300Y23345029D01*
X43022701Y22657986D01*
X43285067Y22023011D01*
X43770456Y21536774D01*
X44404971Y21273300D01*
X45092014Y21272701D01*
X45657518Y21506362D01*
X43178156Y19027000D01*
X33571844Y19027000D01*
X28171055Y24427789D01*
X30372718Y24427789D01*
X30619892Y23829582D01*
X31077175Y23371501D01*
X31674950Y23123283D01*
X32322211Y23122718D01*
X32920418Y23369892D01*
X33378499Y23827175D01*
X33626717Y24424950D01*
X33627282Y25072211D01*
X33380108Y25670418D01*
X32922825Y26128499D01*
X32325050Y26376717D01*
X31677789Y26377282D01*
X31079582Y26130108D01*
X30621501Y25672825D01*
X30373283Y25075050D01*
X30372718Y24427789D01*
X28171055Y24427789D01*
X25277000Y27321844D01*
X25277000Y27927789D01*
X30372718Y27927789D01*
X30619892Y27329582D01*
X31077175Y26871501D01*
X31674950Y26623283D01*
X32322211Y26622718D01*
X32920418Y26869892D01*
X33378499Y27327175D01*
X33626717Y27924950D01*
X33627282Y28572211D01*
X33380108Y29170418D01*
X32922825Y29628499D01*
X32325050Y29876717D01*
X31677789Y29877282D01*
X31079582Y29630108D01*
X30621501Y29172825D01*
X30373283Y28575050D01*
X30372718Y27927789D01*
X25277000Y27927789D01*
X25277000Y28250000D01*
X25217854Y28547345D01*
X25049422Y28799422D01*
X23549422Y30299422D01*
X23297345Y30467854D01*
X23000000Y30527000D01*
X18945602Y30527000D01*
X19170418Y30619892D01*
X19628499Y31077175D01*
X19876717Y31674950D01*
X19877282Y32322211D01*
X19630108Y32920418D01*
X19392954Y33157986D01*
X24772701Y33157986D01*
X25035067Y32523011D01*
X25520456Y32036774D01*
X26154971Y31773300D01*
X26842014Y31772701D01*
X27476989Y32035067D01*
X27963226Y32520456D01*
X28226700Y33154971D01*
X28227299Y33842014D01*
X27964933Y34476989D01*
X27479544Y34963226D01*
X26845029Y35226700D01*
X26157986Y35227299D01*
X25523011Y34964933D01*
X25036774Y34479544D01*
X24773300Y33845029D01*
X24772701Y33157986D01*
X19392954Y33157986D01*
X19172825Y33378499D01*
X18575050Y33626717D01*
X17927789Y33627282D01*
X17329582Y33380108D01*
X16871501Y32922825D01*
X16623283Y32325050D01*
X16622718Y31677789D01*
X16869892Y31079582D01*
X17327175Y30621501D01*
X17554759Y30527000D01*
X15445602Y30527000D01*
X15670418Y30619892D01*
X16128499Y31077175D01*
X16376717Y31674950D01*
X16377282Y32322211D01*
X16130108Y32920418D01*
X15672825Y33378499D01*
X15075050Y33626717D01*
X14427789Y33627282D01*
X13829582Y33380108D01*
X13371501Y32922825D01*
X13123283Y32325050D01*
X13122718Y31677789D01*
X13369892Y31079582D01*
X13827175Y30621501D01*
X14054759Y30527000D01*
X11000000Y30527000D01*
X10702655Y30467854D01*
X10450578Y30299422D01*
X9968364Y29817208D01*
X9825050Y29876717D01*
X9177789Y29877282D01*
X8579582Y29630108D01*
X8121501Y29172825D01*
X7873283Y28575050D01*
X7872718Y27927789D01*
X1127000Y27927789D01*
X1127000Y33157986D01*
X3272701Y33157986D01*
X3535067Y32523011D01*
X4020456Y32036774D01*
X4654971Y31773300D01*
X5342014Y31772701D01*
X5976989Y32035067D01*
X6463226Y32520456D01*
X6726700Y33154971D01*
X6726702Y33157986D01*
X8272701Y33157986D01*
X8535067Y32523011D01*
X9020456Y32036774D01*
X9654971Y31773300D01*
X10342014Y31772701D01*
X10976989Y32035067D01*
X11463226Y32520456D01*
X11726700Y33154971D01*
X11727299Y33842014D01*
X11464933Y34476989D01*
X10979544Y34963226D01*
X10345029Y35226700D01*
X9657986Y35227299D01*
X9023011Y34964933D01*
X8536774Y34479544D01*
X8273300Y33845029D01*
X8272701Y33157986D01*
X6726702Y33157986D01*
X6727299Y33842014D01*
X6464933Y34476989D01*
X5979544Y34963226D01*
X5345029Y35226700D01*
X4657986Y35227299D01*
X4023011Y34964933D01*
X3536774Y34479544D01*
X3273300Y33845029D01*
X3272701Y33157986D01*
X1127000Y33157986D01*
X1127000Y38157986D01*
X10272701Y38157986D01*
X10535067Y37523011D01*
X11020456Y37036774D01*
X11654971Y36773300D01*
X12342014Y36772701D01*
X12976989Y37035067D01*
X13463226Y37520456D01*
X13726700Y38154971D01*
X13726702Y38157986D01*
X15272701Y38157986D01*
X15535067Y37523011D01*
X16020456Y37036774D01*
X16654971Y36773300D01*
X17342014Y36772701D01*
X17976989Y37035067D01*
X18463226Y37520456D01*
X18520333Y37657986D01*
X29772701Y37657986D01*
X30035067Y37023011D01*
X30520456Y36536774D01*
X31154971Y36273300D01*
X31842014Y36272701D01*
X32476989Y36535067D01*
X32963226Y37020456D01*
X33226700Y37654971D01*
X33226702Y37657986D01*
X34772701Y37657986D01*
X35035067Y37023011D01*
X35520456Y36536774D01*
X36154971Y36273300D01*
X36842014Y36272701D01*
X37476989Y36535067D01*
X37963226Y37020456D01*
X38226700Y37654971D01*
X38227299Y38342014D01*
X37964933Y38976989D01*
X37479544Y39463226D01*
X36845029Y39726700D01*
X36157986Y39727299D01*
X35523011Y39464933D01*
X35036774Y38979544D01*
X34773300Y38345029D01*
X34772701Y37657986D01*
X33226702Y37657986D01*
X33227299Y38342014D01*
X32964933Y38976989D01*
X32479544Y39463226D01*
X31845029Y39726700D01*
X31157986Y39727299D01*
X30523011Y39464933D01*
X30036774Y38979544D01*
X29773300Y38345029D01*
X29772701Y37657986D01*
X18520333Y37657986D01*
X18726700Y38154971D01*
X18727299Y38842014D01*
X18464933Y39476989D01*
X17979544Y39963226D01*
X17345029Y40226700D01*
X16657986Y40227299D01*
X16023011Y39964933D01*
X15536774Y39479544D01*
X15273300Y38845029D01*
X15272701Y38157986D01*
X13726702Y38157986D01*
X13727299Y38842014D01*
X13464933Y39476989D01*
X12979544Y39963226D01*
X12345029Y40226700D01*
X11657986Y40227299D01*
X11023011Y39964933D01*
X10536774Y39479544D01*
X10273300Y38845029D01*
X10272701Y38157986D01*
X1127000Y38157986D01*
X1127000Y44677789D01*
X11122718Y44677789D01*
X11369892Y44079582D01*
X11827175Y43621501D01*
X12424950Y43373283D01*
X13072211Y43372718D01*
X13670418Y43619892D01*
X14128499Y44077175D01*
X14376717Y44674950D01*
X14376719Y44677789D01*
X14622718Y44677789D01*
X14869892Y44079582D01*
X15327175Y43621501D01*
X15924950Y43373283D01*
X16572211Y43372718D01*
X17170418Y43619892D01*
X17628499Y44077175D01*
X17670277Y44177789D01*
X30622718Y44177789D01*
X30869892Y43579582D01*
X31327175Y43121501D01*
X31924950Y42873283D01*
X32572211Y42872718D01*
X33170418Y43119892D01*
X33628499Y43577175D01*
X33876717Y44174950D01*
X33876719Y44177789D01*
X34122718Y44177789D01*
X34369892Y43579582D01*
X34827175Y43121501D01*
X35424950Y42873283D01*
X36072211Y42872718D01*
X36670418Y43119892D01*
X37128499Y43577175D01*
X37344543Y44097468D01*
X41527073Y44097468D01*
X41625736Y43830613D01*
X42235461Y43604092D01*
X42885460Y43628144D01*
X43374264Y43830613D01*
X43472927Y44097468D01*
X42500000Y45070395D01*
X41527073Y44097468D01*
X37344543Y44097468D01*
X37376717Y44174950D01*
X37377282Y44822211D01*
X37130108Y45420418D01*
X37036151Y45514539D01*
X40854092Y45514539D01*
X40878144Y44864540D01*
X41080613Y44375736D01*
X41347468Y44277073D01*
X42320395Y45250000D01*
X41347468Y46222927D01*
X41080613Y46124264D01*
X40854092Y45514539D01*
X37036151Y45514539D01*
X36672825Y45878499D01*
X36075050Y46126717D01*
X35427789Y46127282D01*
X34829582Y45880108D01*
X34371501Y45422825D01*
X34123283Y44825050D01*
X34122718Y44177789D01*
X33876719Y44177789D01*
X33877282Y44822211D01*
X33630108Y45420418D01*
X33172825Y45878499D01*
X32575050Y46126717D01*
X31927789Y46127282D01*
X31329582Y45880108D01*
X30871501Y45422825D01*
X30623283Y44825050D01*
X30622718Y44177789D01*
X17670277Y44177789D01*
X17876717Y44674950D01*
X17877282Y45322211D01*
X17630108Y45920418D01*
X17172825Y46378499D01*
X17114948Y46402532D01*
X41527073Y46402532D01*
X42500000Y45429605D01*
X43472927Y46402532D01*
X43374264Y46669387D01*
X42764539Y46895908D01*
X42114540Y46871856D01*
X41625736Y46669387D01*
X41527073Y46402532D01*
X17114948Y46402532D01*
X16575050Y46626717D01*
X15927789Y46627282D01*
X15329582Y46380108D01*
X14871501Y45922825D01*
X14623283Y45325050D01*
X14622718Y44677789D01*
X14376719Y44677789D01*
X14377282Y45322211D01*
X14130108Y45920418D01*
X13672825Y46378499D01*
X13075050Y46626717D01*
X12427789Y46627282D01*
X11829582Y46380108D01*
X11371501Y45922825D01*
X11123283Y45325050D01*
X11122718Y44677789D01*
X1127000Y44677789D01*
X1127000Y49597468D01*
X41527073Y49597468D01*
X41625736Y49330613D01*
X42235461Y49104092D01*
X42885460Y49128144D01*
X43374264Y49330613D01*
X43472927Y49597468D01*
X42500000Y50570395D01*
X41527073Y49597468D01*
X1127000Y49597468D01*
X1127000Y51014539D01*
X40854092Y51014539D01*
X40878144Y50364540D01*
X41080613Y49875736D01*
X41347468Y49777073D01*
X42320395Y50750000D01*
X41347468Y51722927D01*
X41080613Y51624264D01*
X40854092Y51014539D01*
X1127000Y51014539D01*
X1127000Y51902532D01*
X41527073Y51902532D01*
X42500000Y50929605D01*
X43472927Y51902532D01*
X43374264Y52169387D01*
X42764539Y52395908D01*
X42114540Y52371856D01*
X41625736Y52169387D01*
X41527073Y51902532D01*
X1127000Y51902532D01*
X1127000Y59927789D01*
X12872718Y59927789D01*
X13119892Y59329582D01*
X13577175Y58871501D01*
X14174950Y58623283D01*
X14822211Y58622718D01*
X15420418Y58869892D01*
X15673968Y59123000D01*
X32826114Y59123000D01*
X33077175Y58871501D01*
X33674950Y58623283D01*
X34322211Y58622718D01*
X34920418Y58869892D01*
X35378499Y59327175D01*
X35623000Y59915998D01*
X35623000Y58966819D01*
X34825213Y58169031D01*
X34325050Y58376717D01*
X33677789Y58377282D01*
X33079582Y58130108D01*
X32826032Y57877000D01*
X15673886Y57877000D01*
X15422825Y58128499D01*
X14825050Y58376717D01*
X14177789Y58377282D01*
X13579582Y58130108D01*
X13121501Y57672825D01*
X12873283Y57075050D01*
X12872718Y56427789D01*
X13119892Y55829582D01*
X13577175Y55371501D01*
X14174950Y55123283D01*
X14822211Y55122718D01*
X15420418Y55369892D01*
X15673968Y55623000D01*
X32826114Y55623000D01*
X33077175Y55371501D01*
X33674950Y55123283D01*
X34322211Y55122718D01*
X34920418Y55369892D01*
X35217259Y55666216D01*
X35431284Y55708788D01*
X35796909Y55953091D01*
X37546910Y57703091D01*
X37791212Y58068716D01*
X37877000Y58500000D01*
X37877000Y61250000D01*
X37791212Y61681284D01*
X37546909Y62046909D01*
X37246350Y62347468D01*
X41527073Y62347468D01*
X41625736Y62080613D01*
X42235461Y61854092D01*
X42885460Y61878144D01*
X43374264Y62080613D01*
X43472927Y62347468D01*
X42500000Y63320395D01*
X41527073Y62347468D01*
X37246350Y62347468D01*
X35829279Y63764539D01*
X40854092Y63764539D01*
X40878144Y63114540D01*
X41080613Y62625736D01*
X41347468Y62527073D01*
X42320395Y63500000D01*
X42679605Y63500000D01*
X43652532Y62527073D01*
X43919387Y62625736D01*
X44145908Y63235461D01*
X44121856Y63885460D01*
X43919387Y64374264D01*
X43652532Y64472927D01*
X42679605Y63500000D01*
X42320395Y63500000D01*
X41347468Y64472927D01*
X41080613Y64374264D01*
X40854092Y63764539D01*
X35829279Y63764539D01*
X34941286Y64652532D01*
X41527073Y64652532D01*
X42500000Y63679605D01*
X43472927Y64652532D01*
X43374264Y64919387D01*
X42764539Y65145908D01*
X42114540Y65121856D01*
X41625736Y64919387D01*
X41527073Y64652532D01*
X34941286Y64652532D01*
X32916029Y66677789D01*
X40872718Y66677789D01*
X41119892Y66079582D01*
X41577175Y65621501D01*
X42174950Y65373283D01*
X42822211Y65372718D01*
X43420418Y65619892D01*
X43878499Y66077175D01*
X44126717Y66674950D01*
X44127282Y67322211D01*
X43880108Y67920418D01*
X43422825Y68378499D01*
X42825050Y68626717D01*
X42177789Y68627282D01*
X41579582Y68380108D01*
X41121501Y67922825D01*
X40873283Y67325050D01*
X40872718Y66677789D01*
X32916029Y66677789D01*
X28916029Y70677789D01*
X30622718Y70677789D01*
X30869892Y70079582D01*
X31327175Y69621501D01*
X31924950Y69373283D01*
X32572211Y69372718D01*
X33170418Y69619892D01*
X33628499Y70077175D01*
X33876717Y70674950D01*
X33876719Y70677789D01*
X34122718Y70677789D01*
X34369892Y70079582D01*
X34827175Y69621501D01*
X35424950Y69373283D01*
X36072211Y69372718D01*
X36670418Y69619892D01*
X37128499Y70077175D01*
X37376717Y70674950D01*
X37377282Y71322211D01*
X37130108Y71920418D01*
X36672825Y72378499D01*
X36075050Y72626717D01*
X35427789Y72627282D01*
X34829582Y72380108D01*
X34371501Y71922825D01*
X34123283Y71325050D01*
X34122718Y70677789D01*
X33876719Y70677789D01*
X33877282Y71322211D01*
X33630108Y71920418D01*
X33172825Y72378499D01*
X32575050Y72626717D01*
X31927789Y72627282D01*
X31329582Y72380108D01*
X30871501Y71922825D01*
X30623283Y71325050D01*
X30622718Y70677789D01*
X28916029Y70677789D01*
X28877000Y70716818D01*
X28877000Y73347468D01*
X41527073Y73347468D01*
X41625736Y73080613D01*
X42235461Y72854092D01*
X42885460Y72878144D01*
X43374264Y73080613D01*
X43472927Y73347468D01*
X42500000Y74320395D01*
X41527073Y73347468D01*
X28877000Y73347468D01*
X28877000Y74764539D01*
X40854092Y74764539D01*
X40878144Y74114540D01*
X41080613Y73625736D01*
X41347468Y73527073D01*
X42320395Y74500000D01*
X42679605Y74500000D01*
X43652532Y73527073D01*
X43919387Y73625736D01*
X44145908Y74235461D01*
X44121856Y74885460D01*
X43919387Y75374264D01*
X43652532Y75472927D01*
X42679605Y74500000D01*
X42320395Y74500000D01*
X41347468Y75472927D01*
X41080613Y75374264D01*
X40854092Y74764539D01*
X28877000Y74764539D01*
X28877000Y75652532D01*
X41527073Y75652532D01*
X42500000Y74679605D01*
X43472927Y75652532D01*
X43374264Y75919387D01*
X42764539Y76145908D01*
X42114540Y76121856D01*
X41625736Y75919387D01*
X41527073Y75652532D01*
X28877000Y75652532D01*
X28877000Y77283182D01*
X30010793Y78416974D01*
X29773300Y77845029D01*
X29772701Y77157986D01*
X30035067Y76523011D01*
X30520456Y76036774D01*
X31154971Y75773300D01*
X31842014Y75772701D01*
X32476989Y76035067D01*
X32963226Y76520456D01*
X33226700Y77154971D01*
X33226702Y77157986D01*
X34772701Y77157986D01*
X35035067Y76523011D01*
X35520456Y76036774D01*
X36154971Y75773300D01*
X36842014Y75772701D01*
X37476989Y76035067D01*
X37963226Y76520456D01*
X38226700Y77154971D01*
X38227299Y77842014D01*
X37964933Y78476989D01*
X37479544Y78963226D01*
X36845029Y79226700D01*
X36157986Y79227299D01*
X35523011Y78964933D01*
X35036774Y78479544D01*
X34773300Y77845029D01*
X34772701Y77157986D01*
X33226702Y77157986D01*
X33227299Y77842014D01*
X32964933Y78476989D01*
X32479544Y78963226D01*
X31845029Y79226700D01*
X31157986Y79227299D01*
X30583918Y78990099D01*
X30966819Y79373000D01*
X41572462Y79373000D01*
X41121501Y78922825D01*
X40873283Y78325050D01*
X40872718Y77677789D01*
X41119892Y77079582D01*
X41577175Y76621501D01*
X42174950Y76373283D01*
X42822211Y76372718D01*
X43420418Y76619892D01*
X43878499Y77077175D01*
X44126717Y77674950D01*
X44127282Y78322211D01*
X43880108Y78920418D01*
X43428314Y79373000D01*
X49475131Y79373000D01*
X49906415Y79458788D01*
X50272040Y79703091D01*
X53227534Y82658585D01*
X62597597Y82658585D01*
X63053091Y82203091D01*
X63418716Y81958788D01*
X63850000Y81873000D01*
X64281284Y81958788D01*
X64646909Y82203091D01*
X64891212Y82568716D01*
X64977000Y83000000D01*
X64891212Y83431284D01*
X64646909Y83796909D01*
X64570662Y83873156D01*
X65072211Y83872718D01*
X65670418Y84119892D01*
X65898391Y84347468D01*
X67277073Y84347468D01*
X67375736Y84080613D01*
X67985461Y83854092D01*
X68635460Y83878144D01*
X69124264Y84080613D01*
X69222927Y84347468D01*
X68250000Y85320395D01*
X67277073Y84347468D01*
X65898391Y84347468D01*
X66128499Y84577175D01*
X66376717Y85174950D01*
X66377282Y85822211D01*
X66377000Y85822893D01*
X66377000Y86326074D01*
X66673926Y86623000D01*
X67018980Y86623000D01*
X66983186Y86587206D01*
X67097466Y86472926D01*
X66830613Y86374264D01*
X66604092Y85764539D01*
X66628144Y85114540D01*
X66830613Y84625736D01*
X67097468Y84527073D01*
X68070395Y85500000D01*
X68056253Y85514142D01*
X68235858Y85693747D01*
X68250000Y85679605D01*
X68264143Y85693747D01*
X68443748Y85514142D01*
X68429605Y85500000D01*
X69402532Y84527073D01*
X69669387Y84625736D01*
X69895908Y85235461D01*
X69871856Y85885460D01*
X69669387Y86374264D01*
X69402534Y86472926D01*
X69516814Y86587206D01*
X69481020Y86623000D01*
X73903532Y86623000D01*
X74873000Y85653532D01*
X74873000Y74500000D01*
X74996848Y73877374D01*
X75349537Y73349537D01*
X77849537Y70849537D01*
X78377374Y70496848D01*
X79000000Y70373000D01*
X83373000Y70373000D01*
X83373000Y66427925D01*
X80150463Y69650463D01*
X79622626Y70003152D01*
X79000000Y70127000D01*
X75000000Y70127000D01*
X74377374Y70003152D01*
X73849537Y69650463D01*
X73496848Y69122626D01*
X73373000Y68500000D01*
X73496848Y67877374D01*
X73849537Y67349537D01*
X74377374Y66996848D01*
X75000000Y66873000D01*
X78326074Y66873000D01*
X80873000Y64326075D01*
X80873000Y24000000D01*
X80996848Y23377374D01*
X81349537Y22849537D01*
X81877374Y22496848D01*
X82500000Y22373000D01*
X83122626Y22496848D01*
X83650463Y22849537D01*
X84003152Y23377374D01*
X84127000Y24000000D01*
X84127000Y46164142D01*
X84377374Y45996848D01*
X85000000Y45873000D01*
X85622626Y45996848D01*
X86150463Y46349537D01*
X86503152Y46877374D01*
X86627000Y47500000D01*
X86627000Y75849092D01*
X86628589Y75857080D01*
X86504740Y76479706D01*
X86152051Y77007543D01*
X85624214Y77360232D01*
X85001588Y77484081D01*
X84378962Y77360232D01*
X83851125Y77007543D01*
X83849537Y77005955D01*
X83496848Y76478118D01*
X83373000Y75855492D01*
X83373000Y73627000D01*
X79673926Y73627000D01*
X78127000Y75173926D01*
X78127000Y84347468D01*
X78777073Y84347468D01*
X78875736Y84080613D01*
X79485461Y83854092D01*
X80135460Y83878144D01*
X80624264Y84080613D01*
X80722927Y84347468D01*
X79750000Y85320395D01*
X78777073Y84347468D01*
X78127000Y84347468D01*
X78127000Y85145456D01*
X78128144Y85114540D01*
X78330613Y84625736D01*
X78597468Y84527073D01*
X79570395Y85500000D01*
X79929605Y85500000D01*
X80902532Y84527073D01*
X81169387Y84625736D01*
X81395908Y85235461D01*
X81371856Y85885460D01*
X81169387Y86374264D01*
X80902532Y86472927D01*
X79929605Y85500000D01*
X79570395Y85500000D01*
X78597468Y86472927D01*
X78330613Y86374264D01*
X78127000Y85826200D01*
X78127000Y86327458D01*
X78062339Y86652532D01*
X78777073Y86652532D01*
X79750000Y85679605D01*
X80722927Y86652532D01*
X80624264Y86919387D01*
X80014539Y87145908D01*
X79364540Y87121856D01*
X78875736Y86919387D01*
X78777073Y86652532D01*
X78062339Y86652532D01*
X78003152Y86950084D01*
X77650463Y87477921D01*
X75727921Y89400463D01*
X75200084Y89753152D01*
X74577458Y89877000D01*
X66000000Y89877000D01*
X65377374Y89753152D01*
X64849537Y89400463D01*
X64750000Y89300926D01*
X64107000Y89943926D01*
X64107000Y93736030D01*
X68685635Y93736030D01*
X68845418Y93417261D01*
X69636187Y93107277D01*
X70485387Y93123503D01*
X71194582Y93417261D01*
X71354365Y93736030D01*
X77645633Y93736030D01*
X77805416Y93417261D01*
X78596185Y93107277D01*
X79445385Y93123503D01*
X80154580Y93417261D01*
X80314363Y93736030D01*
X78979998Y95070395D01*
X77645633Y93736030D01*
X71354365Y93736030D01*
X70020000Y95070395D01*
X68685635Y93736030D01*
X64107000Y93736030D01*
X64107000Y93868753D01*
X64282131Y94043578D01*
X64606630Y94825057D01*
X64607335Y95633813D01*
X67877277Y95633813D01*
X67893503Y94784613D01*
X68187261Y94075418D01*
X68506030Y93915635D01*
X69840395Y95250000D01*
X70199605Y95250000D01*
X71533970Y93915635D01*
X71852739Y94075418D01*
X72162723Y94866187D01*
X72148056Y95633813D01*
X76837275Y95633813D01*
X76853501Y94784613D01*
X77147259Y94075418D01*
X77466028Y93915635D01*
X78800393Y95250000D01*
X79159603Y95250000D01*
X80493968Y93915635D01*
X80812737Y94075418D01*
X81122721Y94866187D01*
X81106495Y95715387D01*
X80812737Y96424582D01*
X80493968Y96584365D01*
X79159603Y95250000D01*
X78800393Y95250000D01*
X77466028Y96584365D01*
X77147259Y96424582D01*
X76837275Y95633813D01*
X72148056Y95633813D01*
X72146497Y95715387D01*
X71852739Y96424582D01*
X71533970Y96584365D01*
X70199605Y95250000D01*
X69840395Y95250000D01*
X68506030Y96584365D01*
X68187261Y96424582D01*
X67877277Y95633813D01*
X64607335Y95633813D01*
X64607368Y95671230D01*
X64284234Y96453274D01*
X63974081Y96763970D01*
X68685635Y96763970D01*
X70020000Y95429605D01*
X71354365Y96763970D01*
X77645633Y96763970D01*
X78979998Y95429605D01*
X80314363Y96763970D01*
X80154580Y97082739D01*
X79363811Y97392723D01*
X78514611Y97376497D01*
X77805416Y97082739D01*
X77645633Y96763970D01*
X71354365Y96763970D01*
X71194582Y97082739D01*
X70403813Y97392723D01*
X69554613Y97376497D01*
X68845418Y97082739D01*
X68685635Y96763970D01*
X63974081Y96763970D01*
X63686422Y97052131D01*
X62904943Y97376630D01*
X62058770Y97377368D01*
X61276726Y97054234D01*
X60677869Y96456422D01*
X60353370Y95674943D01*
X60352632Y94828770D01*
X60675766Y94046726D01*
X60853000Y93869182D01*
X60853000Y89270000D01*
X60976848Y88647374D01*
X61329537Y88119537D01*
X61429533Y88019542D01*
X61429535Y88019539D01*
X62822074Y86627000D01*
X52296597Y86627000D01*
X51936867Y86555445D01*
X51865312Y86541212D01*
X51499687Y86296909D01*
X48329779Y83127000D01*
X29250000Y83127000D01*
X28890270Y83055445D01*
X28818715Y83041212D01*
X28453090Y82796909D01*
X23703091Y78046909D01*
X23458788Y77681284D01*
X23373000Y77250000D01*
X23373000Y61377000D01*
X15673886Y61377000D01*
X15422825Y61628499D01*
X14825050Y61876717D01*
X14177789Y61877282D01*
X13579582Y61630108D01*
X13121501Y61172825D01*
X12873283Y60575050D01*
X12872718Y59927789D01*
X1127000Y59927789D01*
X1127000Y71177789D01*
X11122718Y71177789D01*
X11369892Y70579582D01*
X11827175Y70121501D01*
X12424950Y69873283D01*
X13072211Y69872718D01*
X13670418Y70119892D01*
X14128499Y70577175D01*
X14376717Y71174950D01*
X14376719Y71177789D01*
X14622718Y71177789D01*
X14869892Y70579582D01*
X15327175Y70121501D01*
X15924950Y69873283D01*
X16572211Y69872718D01*
X17170418Y70119892D01*
X17628499Y70577175D01*
X17876717Y71174950D01*
X17877282Y71822211D01*
X17630108Y72420418D01*
X17172825Y72878499D01*
X16575050Y73126717D01*
X15927789Y73127282D01*
X15329582Y72880108D01*
X14871501Y72422825D01*
X14623283Y71825050D01*
X14622718Y71177789D01*
X14376719Y71177789D01*
X14377282Y71822211D01*
X14130108Y72420418D01*
X13672825Y72878499D01*
X13075050Y73126717D01*
X12427789Y73127282D01*
X11829582Y72880108D01*
X11371501Y72422825D01*
X11123283Y71825050D01*
X11122718Y71177789D01*
X1127000Y71177789D01*
X1127000Y77657986D01*
X10272701Y77657986D01*
X10535067Y77023011D01*
X11020456Y76536774D01*
X11654971Y76273300D01*
X12342014Y76272701D01*
X12976989Y76535067D01*
X13463226Y77020456D01*
X13726700Y77654971D01*
X13726702Y77657986D01*
X15272701Y77657986D01*
X15535067Y77023011D01*
X16020456Y76536774D01*
X16654971Y76273300D01*
X17342014Y76272701D01*
X17976989Y76535067D01*
X18463226Y77020456D01*
X18726700Y77654971D01*
X18727299Y78342014D01*
X18464933Y78976989D01*
X17979544Y79463226D01*
X17345029Y79726700D01*
X16657986Y79727299D01*
X16023011Y79464933D01*
X15536774Y78979544D01*
X15273300Y78345029D01*
X15272701Y77657986D01*
X13726702Y77657986D01*
X13727299Y78342014D01*
X13464933Y78976989D01*
X12979544Y79463226D01*
X12345029Y79726700D01*
X11657986Y79727299D01*
X11023011Y79464933D01*
X10536774Y78979544D01*
X10273300Y78345029D01*
X10272701Y77657986D01*
X1127000Y77657986D01*
X1127000Y94341122D01*
X1672424Y94341122D01*
X2177862Y93117868D01*
X3112945Y92181151D01*
X4335315Y91673579D01*
X5658878Y91672424D01*
X6882132Y92177862D01*
X7427476Y92722255D01*
X12991861Y92722255D01*
X13065995Y92476136D01*
X13603223Y92283035D01*
X14173454Y92310222D01*
X14574005Y92476136D01*
X14648139Y92722255D01*
X13820000Y93550395D01*
X12991861Y92722255D01*
X7427476Y92722255D01*
X7818849Y93112945D01*
X8165086Y93946777D01*
X12373035Y93946777D01*
X12400222Y93376546D01*
X12566136Y92975995D01*
X12812255Y92901861D01*
X13640395Y93730000D01*
X13999605Y93730000D01*
X14827745Y92901861D01*
X15073864Y92975995D01*
X15098831Y93045456D01*
X15149543Y92922725D01*
X15550614Y92520953D01*
X16074907Y92303248D01*
X16642603Y92302752D01*
X17167275Y92519543D01*
X17569047Y92920614D01*
X17629881Y93067118D01*
X17689543Y92922725D01*
X18090614Y92520953D01*
X18614907Y92303248D01*
X19182603Y92302752D01*
X19707275Y92519543D01*
X20109047Y92920614D01*
X20169881Y93067118D01*
X20229543Y92922725D01*
X20630614Y92520953D01*
X21154907Y92303248D01*
X21722603Y92302752D01*
X22247275Y92519543D01*
X22649047Y92920614D01*
X22709881Y93067118D01*
X22769543Y92922725D01*
X23170614Y92520953D01*
X23694907Y92303248D01*
X24262603Y92302752D01*
X24787275Y92519543D01*
X25189047Y92920614D01*
X25249881Y93067118D01*
X25309543Y92922725D01*
X25710614Y92520953D01*
X26234907Y92303248D01*
X26802603Y92302752D01*
X27327275Y92519543D01*
X27729047Y92920614D01*
X27789881Y93067118D01*
X27849543Y92922725D01*
X28250614Y92520953D01*
X28774907Y92303248D01*
X29342603Y92302752D01*
X29867275Y92519543D01*
X30269047Y92920614D01*
X30329881Y93067118D01*
X30389543Y92922725D01*
X30790614Y92520953D01*
X31314907Y92303248D01*
X31882603Y92302752D01*
X32407275Y92519543D01*
X32809047Y92920614D01*
X32869881Y93067118D01*
X32929543Y92922725D01*
X33330614Y92520953D01*
X33854907Y92303248D01*
X34422603Y92302752D01*
X34947275Y92519543D01*
X35150341Y92722255D01*
X35851861Y92722255D01*
X35925995Y92476136D01*
X36463223Y92283035D01*
X37033454Y92310222D01*
X37434005Y92476136D01*
X37508139Y92722255D01*
X36680000Y93550395D01*
X35851861Y92722255D01*
X35150341Y92722255D01*
X35349047Y92920614D01*
X35399123Y93041210D01*
X35426136Y92975995D01*
X35672255Y92901861D01*
X36500395Y93730000D01*
X36859605Y93730000D01*
X37687745Y92901861D01*
X37933864Y92975995D01*
X38126965Y93513223D01*
X38099778Y94083454D01*
X37933864Y94484005D01*
X37687745Y94558139D01*
X36859605Y93730000D01*
X36500395Y93730000D01*
X35672255Y94558139D01*
X35426136Y94484005D01*
X35401169Y94414544D01*
X35350457Y94537275D01*
X34949386Y94939047D01*
X34828790Y94989123D01*
X34894005Y95016136D01*
X34968139Y95262255D01*
X35851861Y95262255D01*
X35925995Y95016136D01*
X35967709Y95001142D01*
X35925995Y94983864D01*
X35851861Y94737745D01*
X36680000Y93909605D01*
X37508139Y94737745D01*
X37434005Y94983864D01*
X37392291Y94998858D01*
X37434005Y95016136D01*
X37508139Y95262255D01*
X36680000Y96090395D01*
X35851861Y95262255D01*
X34968139Y95262255D01*
X34140000Y96090395D01*
X33311861Y95262255D01*
X33385995Y95016136D01*
X33455456Y94991169D01*
X33332725Y94940457D01*
X32930953Y94539386D01*
X32870119Y94392882D01*
X32810457Y94537275D01*
X32409386Y94939047D01*
X32288790Y94989123D01*
X32354005Y95016136D01*
X32428139Y95262255D01*
X31600000Y96090395D01*
X30771861Y95262255D01*
X30845995Y95016136D01*
X30915456Y94991169D01*
X30792725Y94940457D01*
X30390953Y94539386D01*
X30330119Y94392882D01*
X30270457Y94537275D01*
X29869386Y94939047D01*
X29748790Y94989123D01*
X29814005Y95016136D01*
X29888139Y95262255D01*
X29060000Y96090395D01*
X28231861Y95262255D01*
X28305995Y95016136D01*
X28375456Y94991169D01*
X28252725Y94940457D01*
X27850953Y94539386D01*
X27790119Y94392882D01*
X27730457Y94537275D01*
X27329386Y94939047D01*
X27208790Y94989123D01*
X27274005Y95016136D01*
X27348139Y95262255D01*
X26520000Y96090395D01*
X25691861Y95262255D01*
X25765995Y95016136D01*
X25835456Y94991169D01*
X25712725Y94940457D01*
X25310953Y94539386D01*
X25250119Y94392882D01*
X25190457Y94537275D01*
X24789386Y94939047D01*
X24668790Y94989123D01*
X24734005Y95016136D01*
X24808139Y95262255D01*
X23980000Y96090395D01*
X23151861Y95262255D01*
X23225995Y95016136D01*
X23295456Y94991169D01*
X23172725Y94940457D01*
X22770953Y94539386D01*
X22710119Y94392882D01*
X22650457Y94537275D01*
X22249386Y94939047D01*
X22128790Y94989123D01*
X22194005Y95016136D01*
X22268139Y95262255D01*
X21440000Y96090395D01*
X20611861Y95262255D01*
X20685995Y95016136D01*
X20755456Y94991169D01*
X20632725Y94940457D01*
X20230953Y94539386D01*
X20170119Y94392882D01*
X20110457Y94537275D01*
X19709386Y94939047D01*
X19588790Y94989123D01*
X19654005Y95016136D01*
X19728139Y95262255D01*
X18900000Y96090395D01*
X18071861Y95262255D01*
X18145995Y95016136D01*
X18215456Y94991169D01*
X18092725Y94940457D01*
X17690953Y94539386D01*
X17630119Y94392882D01*
X17570457Y94537275D01*
X17169386Y94939047D01*
X17048790Y94989123D01*
X17114005Y95016136D01*
X17188139Y95262255D01*
X16360000Y96090395D01*
X15531861Y95262255D01*
X15605995Y95016136D01*
X15675456Y94991169D01*
X15552725Y94940457D01*
X15150953Y94539386D01*
X15100877Y94418790D01*
X15073864Y94484005D01*
X14827745Y94558139D01*
X13999605Y93730000D01*
X13640395Y93730000D01*
X12812255Y94558139D01*
X12566136Y94484005D01*
X12373035Y93946777D01*
X8165086Y93946777D01*
X8326421Y94335315D01*
X8327229Y95262255D01*
X12991861Y95262255D01*
X13065995Y95016136D01*
X13107709Y95001142D01*
X13065995Y94983864D01*
X12991861Y94737745D01*
X13820000Y93909605D01*
X14648139Y94737745D01*
X14574005Y94983864D01*
X14532291Y94998858D01*
X14574005Y95016136D01*
X14648139Y95262255D01*
X13820000Y96090395D01*
X12991861Y95262255D01*
X8327229Y95262255D01*
X8327576Y95658878D01*
X7985496Y96486777D01*
X12373035Y96486777D01*
X12400222Y95916546D01*
X12566136Y95515995D01*
X12812255Y95441861D01*
X13640395Y96270000D01*
X13999605Y96270000D01*
X14827745Y95441861D01*
X15073864Y95515995D01*
X15088858Y95557709D01*
X15106136Y95515995D01*
X15352255Y95441861D01*
X16180395Y96270000D01*
X16539605Y96270000D01*
X17367745Y95441861D01*
X17613864Y95515995D01*
X17628858Y95557709D01*
X17646136Y95515995D01*
X17892255Y95441861D01*
X18720395Y96270000D01*
X19079605Y96270000D01*
X19907745Y95441861D01*
X20153864Y95515995D01*
X20168858Y95557709D01*
X20186136Y95515995D01*
X20432255Y95441861D01*
X21260395Y96270000D01*
X21619605Y96270000D01*
X22447745Y95441861D01*
X22693864Y95515995D01*
X22708858Y95557709D01*
X22726136Y95515995D01*
X22972255Y95441861D01*
X23800395Y96270000D01*
X24159605Y96270000D01*
X24987745Y95441861D01*
X25233864Y95515995D01*
X25248858Y95557709D01*
X25266136Y95515995D01*
X25512255Y95441861D01*
X26340395Y96270000D01*
X26699605Y96270000D01*
X27527745Y95441861D01*
X27773864Y95515995D01*
X27788858Y95557709D01*
X27806136Y95515995D01*
X28052255Y95441861D01*
X28880395Y96270000D01*
X29239605Y96270000D01*
X30067745Y95441861D01*
X30313864Y95515995D01*
X30328858Y95557709D01*
X30346136Y95515995D01*
X30592255Y95441861D01*
X31420395Y96270000D01*
X31779605Y96270000D01*
X32607745Y95441861D01*
X32853864Y95515995D01*
X32868858Y95557709D01*
X32886136Y95515995D01*
X33132255Y95441861D01*
X33960395Y96270000D01*
X34319605Y96270000D01*
X35147745Y95441861D01*
X35393864Y95515995D01*
X35408858Y95557709D01*
X35426136Y95515995D01*
X35672255Y95441861D01*
X36500395Y96270000D01*
X36859605Y96270000D01*
X37687745Y95441861D01*
X37933864Y95515995D01*
X38126965Y96053223D01*
X38099778Y96623454D01*
X37933864Y97024005D01*
X37687745Y97098139D01*
X36859605Y96270000D01*
X36500395Y96270000D01*
X35672255Y97098139D01*
X35426136Y97024005D01*
X35411142Y96982291D01*
X35393864Y97024005D01*
X35147745Y97098139D01*
X34319605Y96270000D01*
X33960395Y96270000D01*
X33132255Y97098139D01*
X32886136Y97024005D01*
X32871142Y96982291D01*
X32853864Y97024005D01*
X32607745Y97098139D01*
X31779605Y96270000D01*
X31420395Y96270000D01*
X30592255Y97098139D01*
X30346136Y97024005D01*
X30331142Y96982291D01*
X30313864Y97024005D01*
X30067745Y97098139D01*
X29239605Y96270000D01*
X28880395Y96270000D01*
X28052255Y97098139D01*
X27806136Y97024005D01*
X27791142Y96982291D01*
X27773864Y97024005D01*
X27527745Y97098139D01*
X26699605Y96270000D01*
X26340395Y96270000D01*
X25512255Y97098139D01*
X25266136Y97024005D01*
X25251142Y96982291D01*
X25233864Y97024005D01*
X24987745Y97098139D01*
X24159605Y96270000D01*
X23800395Y96270000D01*
X22972255Y97098139D01*
X22726136Y97024005D01*
X22711142Y96982291D01*
X22693864Y97024005D01*
X22447745Y97098139D01*
X21619605Y96270000D01*
X21260395Y96270000D01*
X20432255Y97098139D01*
X20186136Y97024005D01*
X20171142Y96982291D01*
X20153864Y97024005D01*
X19907745Y97098139D01*
X19079605Y96270000D01*
X18720395Y96270000D01*
X17892255Y97098139D01*
X17646136Y97024005D01*
X17631142Y96982291D01*
X17613864Y97024005D01*
X17367745Y97098139D01*
X16539605Y96270000D01*
X16180395Y96270000D01*
X15352255Y97098139D01*
X15106136Y97024005D01*
X15091142Y96982291D01*
X15073864Y97024005D01*
X14827745Y97098139D01*
X13999605Y96270000D01*
X13640395Y96270000D01*
X12812255Y97098139D01*
X12566136Y97024005D01*
X12373035Y96486777D01*
X7985496Y96486777D01*
X7822138Y96882132D01*
X7427216Y97277745D01*
X12991861Y97277745D01*
X13820000Y96449605D01*
X14648139Y97277745D01*
X15531861Y97277745D01*
X16360000Y96449605D01*
X17188139Y97277745D01*
X18071861Y97277745D01*
X18900000Y96449605D01*
X19728139Y97277745D01*
X20611861Y97277745D01*
X21440000Y96449605D01*
X22268139Y97277745D01*
X23151861Y97277745D01*
X23980000Y96449605D01*
X24808139Y97277745D01*
X25691861Y97277745D01*
X26520000Y96449605D01*
X27348139Y97277745D01*
X28231861Y97277745D01*
X29060000Y96449605D01*
X29888139Y97277745D01*
X30771861Y97277745D01*
X31600000Y96449605D01*
X32428139Y97277745D01*
X33311861Y97277745D01*
X34140000Y96449605D01*
X34968139Y97277745D01*
X35851861Y97277745D01*
X36680000Y96449605D01*
X37508139Y97277745D01*
X37434005Y97523864D01*
X36896777Y97716965D01*
X36326546Y97689778D01*
X35925995Y97523864D01*
X35851861Y97277745D01*
X34968139Y97277745D01*
X34894005Y97523864D01*
X34356777Y97716965D01*
X33786546Y97689778D01*
X33385995Y97523864D01*
X33311861Y97277745D01*
X32428139Y97277745D01*
X32354005Y97523864D01*
X31816777Y97716965D01*
X31246546Y97689778D01*
X30845995Y97523864D01*
X30771861Y97277745D01*
X29888139Y97277745D01*
X29814005Y97523864D01*
X29276777Y97716965D01*
X28706546Y97689778D01*
X28305995Y97523864D01*
X28231861Y97277745D01*
X27348139Y97277745D01*
X27274005Y97523864D01*
X26736777Y97716965D01*
X26166546Y97689778D01*
X25765995Y97523864D01*
X25691861Y97277745D01*
X24808139Y97277745D01*
X24734005Y97523864D01*
X24196777Y97716965D01*
X23626546Y97689778D01*
X23225995Y97523864D01*
X23151861Y97277745D01*
X22268139Y97277745D01*
X22194005Y97523864D01*
X21656777Y97716965D01*
X21086546Y97689778D01*
X20685995Y97523864D01*
X20611861Y97277745D01*
X19728139Y97277745D01*
X19654005Y97523864D01*
X19116777Y97716965D01*
X18546546Y97689778D01*
X18145995Y97523864D01*
X18071861Y97277745D01*
X17188139Y97277745D01*
X17114005Y97523864D01*
X16576777Y97716965D01*
X16006546Y97689778D01*
X15605995Y97523864D01*
X15531861Y97277745D01*
X14648139Y97277745D01*
X14574005Y97523864D01*
X14036777Y97716965D01*
X13466546Y97689778D01*
X13065995Y97523864D01*
X12991861Y97277745D01*
X7427216Y97277745D01*
X6887055Y97818849D01*
X5664685Y98326421D01*
X4341122Y98327576D01*
X3117868Y97822138D01*
X2181151Y96887055D01*
X1673579Y95664685D01*
X1672424Y94341122D01*
X1127000Y94341122D01*
X1127000Y98873000D01*
X98873000Y98873000D01*
X98873000Y1127000D01*
X98873000Y1127000D01*
G37*
X98873000Y1127000D02*
X46934912Y1127000D01*
X47302131Y1493578D01*
X47626630Y2275057D01*
X47626630Y2275132D01*
X52954737Y2275132D01*
X53065641Y1997901D01*
X53711593Y1754677D01*
X54401453Y1777164D01*
X54934359Y1997901D01*
X55045263Y2275132D01*
X54000000Y3320395D01*
X52954737Y2275132D01*
X47626630Y2275132D01*
X47627368Y3121230D01*
X47351697Y3788407D01*
X52254677Y3788407D01*
X52277164Y3098547D01*
X52497901Y2565641D01*
X52775132Y2454737D01*
X53820395Y3500000D01*
X54179605Y3500000D01*
X55224868Y2454737D01*
X55502099Y2565641D01*
X55641563Y2936030D01*
X57965635Y2936030D01*
X58125418Y2617261D01*
X58916187Y2307277D01*
X59765387Y2323503D01*
X60474582Y2617261D01*
X60634365Y2936030D01*
X69365635Y2936030D01*
X69525418Y2617261D01*
X70316187Y2307277D01*
X71165387Y2323503D01*
X71874582Y2617261D01*
X72034365Y2936030D01*
X75965635Y2936030D01*
X76125418Y2617261D01*
X76916187Y2307277D01*
X77765387Y2323503D01*
X78474582Y2617261D01*
X78634365Y2936030D01*
X87365635Y2936030D01*
X87525418Y2617261D01*
X88316187Y2307277D01*
X89165387Y2323503D01*
X89874582Y2617261D01*
X90034365Y2936030D01*
X88700000Y4270395D01*
X87365635Y2936030D01*
X78634365Y2936030D01*
X77300000Y4270395D01*
X75965635Y2936030D01*
X72034365Y2936030D01*
X70700000Y4270395D01*
X69365635Y2936030D01*
X60634365Y2936030D01*
X59300000Y4270395D01*
X57965635Y2936030D01*
X55641563Y2936030D01*
X55745323Y3211593D01*
X55722836Y3901453D01*
X55502099Y4434359D01*
X55224868Y4545263D01*
X54179605Y3500000D01*
X53820395Y3500000D01*
X52775132Y4545263D01*
X52497901Y4434359D01*
X52254677Y3788407D01*
X47351697Y3788407D01*
X47304234Y3903274D01*
X46706422Y4502131D01*
X46170013Y4724868D01*
X52954737Y4724868D01*
X54000000Y3679605D01*
X55045263Y4724868D01*
X55001681Y4833813D01*
X57157277Y4833813D01*
X57173503Y3984613D01*
X57467261Y3275418D01*
X57786030Y3115635D01*
X59120395Y4450000D01*
X59479605Y4450000D01*
X60813970Y3115635D01*
X61132739Y3275418D01*
X61442723Y4066187D01*
X61428056Y4833813D01*
X68557277Y4833813D01*
X68573503Y3984613D01*
X68867261Y3275418D01*
X69186030Y3115635D01*
X70520395Y4450000D01*
X70879605Y4450000D01*
X72213970Y3115635D01*
X72532739Y3275418D01*
X72842723Y4066187D01*
X72828056Y4833813D01*
X75157277Y4833813D01*
X75173503Y3984613D01*
X75467261Y3275418D01*
X75786030Y3115635D01*
X77120395Y4450000D01*
X77479605Y4450000D01*
X78813970Y3115635D01*
X79132739Y3275418D01*
X79442723Y4066187D01*
X79428056Y4833813D01*
X86557277Y4833813D01*
X86573503Y3984613D01*
X86867261Y3275418D01*
X87186030Y3115635D01*
X88520395Y4450000D01*
X88879605Y4450000D01*
X90213970Y3115635D01*
X90532739Y3275418D01*
X90842723Y4066187D01*
X90837470Y4341122D01*
X91672424Y4341122D01*
X92177862Y3117868D01*
X93112945Y2181151D01*
X94335315Y1673579D01*
X95658878Y1672424D01*
X96882132Y2177862D01*
X97818849Y3112945D01*
X98326421Y4335315D01*
X98327576Y5658878D01*
X97822138Y6882132D01*
X96887055Y7818849D01*
X95664685Y8326421D01*
X94341122Y8327576D01*
X93117868Y7822138D01*
X92181151Y6887055D01*
X91673579Y5664685D01*
X91672424Y4341122D01*
X90837470Y4341122D01*
X90826497Y4915387D01*
X90532739Y5624582D01*
X90213970Y5784365D01*
X88879605Y4450000D01*
X88520395Y4450000D01*
X87186030Y5784365D01*
X86867261Y5624582D01*
X86557277Y4833813D01*
X79428056Y4833813D01*
X79426497Y4915387D01*
X79132739Y5624582D01*
X78813970Y5784365D01*
X77479605Y4450000D01*
X77120395Y4450000D01*
X75786030Y5784365D01*
X75467261Y5624582D01*
X75157277Y4833813D01*
X72828056Y4833813D01*
X72826497Y4915387D01*
X72532739Y5624582D01*
X72213970Y5784365D01*
X70879605Y4450000D01*
X70520395Y4450000D01*
X69186030Y5784365D01*
X68867261Y5624582D01*
X68557277Y4833813D01*
X61428056Y4833813D01*
X61426497Y4915387D01*
X61132739Y5624582D01*
X60813970Y5784365D01*
X59479605Y4450000D01*
X59120395Y4450000D01*
X57786030Y5784365D01*
X57467261Y5624582D01*
X57157277Y4833813D01*
X55001681Y4833813D01*
X54934359Y5002099D01*
X54288407Y5245323D01*
X53598547Y5222836D01*
X53065641Y5002099D01*
X52954737Y4724868D01*
X46170013Y4724868D01*
X45924943Y4826630D01*
X45078770Y4827368D01*
X44296726Y4504234D01*
X43697869Y3906422D01*
X43373370Y3124943D01*
X43372632Y2278770D01*
X43695766Y1496726D01*
X44064847Y1127000D01*
X41934912Y1127000D01*
X42302131Y1493578D01*
X42626630Y2275057D01*
X42627368Y3121230D01*
X42304234Y3903274D01*
X41706422Y4502131D01*
X40924943Y4826630D01*
X40078770Y4827368D01*
X39296726Y4504234D01*
X38697869Y3906422D01*
X38373370Y3124943D01*
X38372632Y2278770D01*
X38695766Y1496726D01*
X39064847Y1127000D01*
X36804776Y1127000D01*
X36834365Y1186030D01*
X35500000Y2520395D01*
X34165635Y1186030D01*
X34195224Y1127000D01*
X24434912Y1127000D01*
X24802131Y1493578D01*
X25126630Y2275057D01*
X25127335Y3083813D01*
X33357277Y3083813D01*
X33373503Y2234613D01*
X33667261Y1525418D01*
X33986030Y1365635D01*
X35320395Y2700000D01*
X35679605Y2700000D01*
X37013970Y1365635D01*
X37332739Y1525418D01*
X37642723Y2316187D01*
X37626497Y3165387D01*
X37332739Y3874582D01*
X37013970Y4034365D01*
X35679605Y2700000D01*
X35320395Y2700000D01*
X33986030Y4034365D01*
X33667261Y3874582D01*
X33357277Y3083813D01*
X25127335Y3083813D01*
X25127368Y3121230D01*
X24804234Y3903274D01*
X24494081Y4213970D01*
X34165635Y4213970D01*
X35500000Y2879605D01*
X36834365Y4213970D01*
X36674582Y4532739D01*
X35883813Y4842723D01*
X35034613Y4826497D01*
X34325418Y4532739D01*
X34165635Y4213970D01*
X24494081Y4213970D01*
X24206422Y4502131D01*
X23424943Y4826630D01*
X22578770Y4827368D01*
X21796726Y4504234D01*
X21197869Y3906422D01*
X20873370Y3124943D01*
X20872632Y2278770D01*
X21195766Y1496726D01*
X21564847Y1127000D01*
X19434912Y1127000D01*
X19802131Y1493578D01*
X20126630Y2275057D01*
X20127368Y3121230D01*
X19804234Y3903274D01*
X19206422Y4502131D01*
X18424943Y4826630D01*
X17578770Y4827368D01*
X16796726Y4504234D01*
X16197869Y3906422D01*
X15873370Y3124943D01*
X15872632Y2278770D01*
X16195766Y1496726D01*
X16564847Y1127000D01*
X14304776Y1127000D01*
X14334365Y1186030D01*
X13000000Y2520395D01*
X11665635Y1186030D01*
X11695224Y1127000D01*
X1127000Y1127000D01*
X1127000Y4341122D01*
X1672424Y4341122D01*
X2177862Y3117868D01*
X3112945Y2181151D01*
X4335315Y1673579D01*
X5658878Y1672424D01*
X6882132Y2177862D01*
X7789666Y3083813D01*
X10857277Y3083813D01*
X10873503Y2234613D01*
X11167261Y1525418D01*
X11486030Y1365635D01*
X12820395Y2700000D01*
X13179605Y2700000D01*
X14513970Y1365635D01*
X14832739Y1525418D01*
X15142723Y2316187D01*
X15126497Y3165387D01*
X14832739Y3874582D01*
X14513970Y4034365D01*
X13179605Y2700000D01*
X12820395Y2700000D01*
X11486030Y4034365D01*
X11167261Y3874582D01*
X10857277Y3083813D01*
X7789666Y3083813D01*
X7818849Y3112945D01*
X8276034Y4213970D01*
X11665635Y4213970D01*
X13000000Y2879605D01*
X14334365Y4213970D01*
X14174582Y4532739D01*
X13383813Y4842723D01*
X12534613Y4826497D01*
X11825418Y4532739D01*
X11665635Y4213970D01*
X8276034Y4213970D01*
X8326421Y4335315D01*
X8327576Y5658878D01*
X7822138Y6882132D01*
X6887055Y7818849D01*
X5664685Y8326421D01*
X4341122Y8327576D01*
X3117868Y7822138D01*
X2181151Y6887055D01*
X1673579Y5664685D01*
X1672424Y4341122D01*
X1127000Y4341122D01*
X1127000Y10073000D01*
X10865000Y10073000D01*
X10865000Y7323000D01*
X11076118Y6515638D01*
X11580130Y5850524D01*
X12300304Y5428916D01*
X12541167Y5364887D01*
X12873000Y5477835D01*
X12873000Y10073000D01*
X13127000Y10073000D01*
X13127000Y5477835D01*
X13458833Y5364887D01*
X13699696Y5428916D01*
X14419870Y5850524D01*
X14923882Y6515638D01*
X15135000Y7323000D01*
X15135000Y10073000D01*
X13127000Y10073000D01*
X12873000Y10073000D01*
X10865000Y10073000D01*
X1127000Y10073000D01*
X1127000Y13077000D01*
X10865000Y13077000D01*
X10865000Y10327000D01*
X12873000Y10327000D01*
X12873000Y14922165D01*
X13127000Y14922165D01*
X13127000Y10327000D01*
X15135000Y10327000D01*
X15135000Y13045546D01*
X15873000Y13045546D01*
X15873000Y7354454D01*
X16034908Y6540486D01*
X16495984Y5850438D01*
X17186032Y5389362D01*
X18000000Y5227454D01*
X18813968Y5389362D01*
X19504016Y5850438D01*
X19965092Y6540486D01*
X20127000Y7354454D01*
X20127000Y13045546D01*
X20873000Y13045546D01*
X20873000Y7354454D01*
X21034908Y6540486D01*
X21495984Y5850438D01*
X22186032Y5389362D01*
X23000000Y5227454D01*
X23813968Y5389362D01*
X24504016Y5850438D01*
X24965092Y6540486D01*
X25127000Y7354454D01*
X25127000Y10073000D01*
X33365000Y10073000D01*
X33365000Y7323000D01*
X33576118Y6515638D01*
X34080130Y5850524D01*
X34800304Y5428916D01*
X35041167Y5364887D01*
X35373000Y5477835D01*
X35373000Y10073000D01*
X35627000Y10073000D01*
X35627000Y5477835D01*
X35958833Y5364887D01*
X36199696Y5428916D01*
X36919870Y5850524D01*
X37423882Y6515638D01*
X37635000Y7323000D01*
X37635000Y10073000D01*
X35627000Y10073000D01*
X35373000Y10073000D01*
X33365000Y10073000D01*
X25127000Y10073000D01*
X25127000Y13045546D01*
X25120744Y13077000D01*
X33365000Y13077000D01*
X33365000Y10327000D01*
X35373000Y10327000D01*
X35373000Y14922165D01*
X35627000Y14922165D01*
X35627000Y10327000D01*
X37635000Y10327000D01*
X37635000Y13045546D01*
X38373000Y13045546D01*
X38373000Y7354454D01*
X38534908Y6540486D01*
X38995984Y5850438D01*
X39686032Y5389362D01*
X40500000Y5227454D01*
X41313968Y5389362D01*
X42004016Y5850438D01*
X42465092Y6540486D01*
X42627000Y7354454D01*
X42627000Y13045546D01*
X43373000Y13045546D01*
X43373000Y7354454D01*
X43534908Y6540486D01*
X43995984Y5850438D01*
X44686032Y5389362D01*
X45500000Y5227454D01*
X46313968Y5389362D01*
X47004016Y5850438D01*
X47079875Y5963970D01*
X57965635Y5963970D01*
X59300000Y4629605D01*
X60634365Y5963970D01*
X60474582Y6282739D01*
X59683813Y6592723D01*
X58834613Y6576497D01*
X58125418Y6282739D01*
X57965635Y5963970D01*
X47079875Y5963970D01*
X47465092Y6540486D01*
X47627000Y7354454D01*
X47627000Y8157986D01*
X52272701Y8157986D01*
X52535067Y7523011D01*
X53020456Y7036774D01*
X53654971Y6773300D01*
X54342014Y6772701D01*
X54976989Y7035067D01*
X55463226Y7520456D01*
X55726700Y8154971D01*
X55727299Y8842014D01*
X55464933Y9476989D01*
X54979544Y9963226D01*
X54345029Y10226700D01*
X53657986Y10227299D01*
X53023011Y9964933D01*
X52536774Y9479544D01*
X52273300Y8845029D01*
X52272701Y8157986D01*
X47627000Y8157986D01*
X47627000Y10378770D01*
X57172632Y10378770D01*
X57495766Y9596726D01*
X58093578Y8997869D01*
X58875057Y8673370D01*
X59721230Y8672632D01*
X60503274Y8995766D01*
X61102131Y9593578D01*
X61426630Y10375057D01*
X61427368Y11221230D01*
X61104234Y12003274D01*
X60506422Y12602131D01*
X59724943Y12926630D01*
X58878770Y12927368D01*
X58096726Y12604234D01*
X57497869Y12006422D01*
X57173370Y11224943D01*
X57172632Y10378770D01*
X47627000Y10378770D01*
X47627000Y13045546D01*
X47481877Y13775132D01*
X52954737Y13775132D01*
X53065641Y13497901D01*
X53711593Y13254677D01*
X54401453Y13277164D01*
X54934359Y13497901D01*
X55045263Y13775132D01*
X54000000Y14820395D01*
X52954737Y13775132D01*
X47481877Y13775132D01*
X47465092Y13859514D01*
X47004016Y14549562D01*
X46313968Y15010638D01*
X45500000Y15172546D01*
X44686032Y15010638D01*
X43995984Y14549562D01*
X43534908Y13859514D01*
X43373000Y13045546D01*
X42627000Y13045546D01*
X42465092Y13859514D01*
X42004016Y14549562D01*
X41313968Y15010638D01*
X40500000Y15172546D01*
X39686032Y15010638D01*
X38995984Y14549562D01*
X38534908Y13859514D01*
X38373000Y13045546D01*
X37635000Y13045546D01*
X37635000Y13077000D01*
X37423882Y13884362D01*
X36919870Y14549476D01*
X36199696Y14971084D01*
X35958833Y15035113D01*
X35627000Y14922165D01*
X35373000Y14922165D01*
X35041167Y15035113D01*
X34800304Y14971084D01*
X34080130Y14549476D01*
X33576118Y13884362D01*
X33365000Y13077000D01*
X25120744Y13077000D01*
X24965092Y13859514D01*
X24504016Y14549562D01*
X23813968Y15010638D01*
X23000000Y15172546D01*
X22186032Y15010638D01*
X21495984Y14549562D01*
X21034908Y13859514D01*
X20873000Y13045546D01*
X20127000Y13045546D01*
X19965092Y13859514D01*
X19504016Y14549562D01*
X18813968Y15010638D01*
X18000000Y15172546D01*
X17186032Y15010638D01*
X16495984Y14549562D01*
X16034908Y13859514D01*
X15873000Y13045546D01*
X15135000Y13045546D01*
X15135000Y13077000D01*
X14923882Y13884362D01*
X14419870Y14549476D01*
X13699696Y14971084D01*
X13458833Y15035113D01*
X13127000Y14922165D01*
X12873000Y14922165D01*
X12541167Y15035113D01*
X12300304Y14971084D01*
X11580130Y14549476D01*
X11076118Y13884362D01*
X10865000Y13077000D01*
X1127000Y13077000D01*
X1127000Y15288407D01*
X52254677Y15288407D01*
X52277164Y14598547D01*
X52497901Y14065641D01*
X52775132Y13954737D01*
X53820395Y15000000D01*
X54179605Y15000000D01*
X55224868Y13954737D01*
X55502099Y14065641D01*
X55745323Y14711593D01*
X55722836Y15401453D01*
X55502099Y15934359D01*
X55224868Y16045263D01*
X54179605Y15000000D01*
X53820395Y15000000D01*
X52775132Y16045263D01*
X52497901Y15934359D01*
X52254677Y15288407D01*
X1127000Y15288407D01*
X1127000Y16224868D01*
X52954737Y16224868D01*
X54000000Y15179605D01*
X55045263Y16224868D01*
X54934359Y16502099D01*
X54288407Y16745323D01*
X53598547Y16722836D01*
X53065641Y16502099D01*
X52954737Y16224868D01*
X1127000Y16224868D01*
X1127000Y22657986D01*
X20272701Y22657986D01*
X20535067Y22023011D01*
X21020456Y21536774D01*
X21654971Y21273300D01*
X22342014Y21272701D01*
X22976989Y21535067D01*
X23463226Y22020456D01*
X23726700Y22654971D01*
X23727299Y23342014D01*
X23464933Y23976989D01*
X22979544Y24463226D01*
X22345029Y24726700D01*
X21657986Y24727299D01*
X21023011Y24464933D01*
X20536774Y23979544D01*
X20273300Y23345029D01*
X20272701Y22657986D01*
X1127000Y22657986D01*
X1127000Y24427789D01*
X7872718Y24427789D01*
X8119892Y23829582D01*
X8577175Y23371501D01*
X9174950Y23123283D01*
X9822211Y23122718D01*
X10420418Y23369892D01*
X10878499Y23827175D01*
X11126717Y24424950D01*
X11127282Y25072211D01*
X10880108Y25670418D01*
X10422825Y26128499D01*
X9825050Y26376717D01*
X9177789Y26377282D01*
X8579582Y26130108D01*
X8121501Y25672825D01*
X7873283Y25075050D01*
X7872718Y24427789D01*
X1127000Y24427789D01*
X1127000Y27927789D01*
X7872718Y27927789D01*
X8119892Y27329582D01*
X8577175Y26871501D01*
X9174950Y26623283D01*
X9822211Y26622718D01*
X10420418Y26869892D01*
X10878499Y27327175D01*
X11126717Y27924950D01*
X11127282Y28572211D01*
X11066985Y28718141D01*
X11321844Y28973000D01*
X20534057Y28973000D01*
X20273300Y28345029D01*
X20272701Y27657986D01*
X20535067Y27023011D01*
X21020456Y26536774D01*
X21654971Y26273300D01*
X22342014Y26272701D01*
X22544705Y26356451D01*
X32200578Y16700578D01*
X32452655Y16532146D01*
X32750000Y16473000D01*
X44250000Y16473000D01*
X44547345Y16532146D01*
X44799422Y16700578D01*
X47756830Y19657986D01*
X52272701Y19657986D01*
X52535067Y19023011D01*
X53020456Y18536774D01*
X53654971Y18273300D01*
X54342014Y18272701D01*
X54976989Y18535067D01*
X55463226Y19020456D01*
X55726700Y19654971D01*
X55727299Y20342014D01*
X55464933Y20976989D01*
X54979544Y21463226D01*
X54345029Y21726700D01*
X53657986Y21727299D01*
X53023011Y21464933D01*
X52536774Y20979544D01*
X52273300Y20345029D01*
X52272701Y19657986D01*
X47756830Y19657986D01*
X48549422Y20450578D01*
X48717854Y20702655D01*
X48777000Y21000000D01*
X48777000Y27324514D01*
X48870140Y27417492D01*
X49026821Y27794821D01*
X49027178Y28203387D01*
X48871156Y28580989D01*
X48582508Y28870140D01*
X48205179Y29026821D01*
X47796613Y29027178D01*
X47419011Y28871156D01*
X47277000Y28729392D01*
X47277000Y35678156D01*
X48549422Y36950578D01*
X48717854Y37202655D01*
X48777000Y37500000D01*
X48777000Y42074514D01*
X48870140Y42167492D01*
X49026821Y42544821D01*
X49027178Y42953387D01*
X48871156Y43330989D01*
X48582508Y43620140D01*
X48205179Y43776821D01*
X47796613Y43777178D01*
X47419011Y43621156D01*
X47129860Y43332508D01*
X47027000Y43084794D01*
X47027000Y53396613D01*
X51472822Y53396613D01*
X51628844Y53019011D01*
X51723000Y52924691D01*
X51723000Y29750000D01*
X51782146Y29452655D01*
X51950578Y29200578D01*
X58222937Y22928219D01*
X58222822Y22796613D01*
X58378844Y22419011D01*
X58667492Y22129860D01*
X59044821Y21973179D01*
X59453387Y21972822D01*
X59830989Y22128844D01*
X60120140Y22417492D01*
X60276821Y22794821D01*
X60277178Y23203387D01*
X60121156Y23580989D01*
X59832508Y23870140D01*
X59455179Y24026821D01*
X59321907Y24026937D01*
X53277000Y30071844D01*
X53277000Y30728526D01*
X53282146Y30702655D01*
X53450578Y30450578D01*
X61223000Y22678156D01*
X61223000Y18065838D01*
X61104234Y18353274D01*
X60506422Y18952131D01*
X59724943Y19276630D01*
X58878770Y19277368D01*
X58096726Y18954234D01*
X57497869Y18356422D01*
X57173370Y17574943D01*
X57172632Y16728770D01*
X57495766Y15946726D01*
X58093578Y15347869D01*
X58875057Y15023370D01*
X59721230Y15022632D01*
X60503274Y15345766D01*
X61102131Y15943578D01*
X61223000Y16234662D01*
X61223000Y14175486D01*
X61129860Y14082508D01*
X60973179Y13705179D01*
X60972822Y13296613D01*
X61128844Y12919011D01*
X61417492Y12629860D01*
X61794821Y12473179D01*
X62203387Y12472822D01*
X62391237Y12550440D01*
X62391237Y9081763D01*
X62450383Y8784418D01*
X62618815Y8532341D01*
X64700578Y6450578D01*
X64952655Y6282146D01*
X65250000Y6223000D01*
X69495474Y6223000D01*
X69365635Y5963970D01*
X70700000Y4629605D01*
X72034365Y5963970D01*
X71904526Y6223000D01*
X76095474Y6223000D01*
X75965635Y5963970D01*
X77300000Y4629605D01*
X78634365Y5963970D01*
X87365635Y5963970D01*
X88700000Y4629605D01*
X90034365Y5963970D01*
X89874582Y6282739D01*
X89083813Y6592723D01*
X88234613Y6576497D01*
X87525418Y6282739D01*
X87365635Y5963970D01*
X78634365Y5963970D01*
X78504526Y6223000D01*
X84900000Y6223000D01*
X85197345Y6282146D01*
X85449422Y6450578D01*
X87849091Y8850247D01*
X88275057Y8673370D01*
X89121230Y8672632D01*
X89903274Y8995766D01*
X90502131Y9593578D01*
X90736494Y10157986D01*
X95272701Y10157986D01*
X95535067Y9523011D01*
X96020456Y9036774D01*
X96654971Y8773300D01*
X97342014Y8772701D01*
X97976989Y9035067D01*
X98463226Y9520456D01*
X98726700Y10154971D01*
X98727299Y10842014D01*
X98464933Y11476989D01*
X97979544Y11963226D01*
X97345029Y12226700D01*
X96657986Y12227299D01*
X96023011Y11964933D01*
X95536774Y11479544D01*
X95273300Y10845029D01*
X95272701Y10157986D01*
X90736494Y10157986D01*
X90826630Y10375057D01*
X90827368Y11221230D01*
X90504234Y12003274D01*
X89906422Y12602131D01*
X89124943Y12926630D01*
X88278770Y12927368D01*
X87496726Y12604234D01*
X86897869Y12006422D01*
X86573370Y11224943D01*
X86572632Y10378770D01*
X86750194Y9949038D01*
X84578156Y7777000D01*
X80425844Y7777000D01*
X86923976Y14275132D01*
X95954737Y14275132D01*
X96065641Y13997901D01*
X96711593Y13754677D01*
X97401453Y13777164D01*
X97934359Y13997901D01*
X98045263Y14275132D01*
X97000000Y15320395D01*
X95954737Y14275132D01*
X86923976Y14275132D01*
X87849091Y15200247D01*
X88275057Y15023370D01*
X89121230Y15022632D01*
X89903274Y15345766D01*
X90346688Y15788407D01*
X95254677Y15788407D01*
X95277164Y15098547D01*
X95497901Y14565641D01*
X95775132Y14454737D01*
X96820395Y15500000D01*
X97179605Y15500000D01*
X98224868Y14454737D01*
X98502099Y14565641D01*
X98745323Y15211593D01*
X98722836Y15901453D01*
X98502099Y16434359D01*
X98224868Y16545263D01*
X97179605Y15500000D01*
X96820395Y15500000D01*
X95775132Y16545263D01*
X95497901Y16434359D01*
X95254677Y15788407D01*
X90346688Y15788407D01*
X90502131Y15943578D01*
X90826630Y16725057D01*
X90826849Y16975923D01*
X91126058Y17275132D01*
X95954737Y17275132D01*
X96064801Y17000000D01*
X95954737Y16724868D01*
X97000000Y15679605D01*
X98045263Y16724868D01*
X97935199Y17000000D01*
X98045263Y17275132D01*
X97000000Y18320395D01*
X95954737Y17275132D01*
X91126058Y17275132D01*
X92406506Y18555580D01*
X92562075Y18788407D01*
X95254677Y18788407D01*
X95277164Y18098547D01*
X95497901Y17565641D01*
X95775132Y17454737D01*
X96820395Y18500000D01*
X97179605Y18500000D01*
X98224868Y17454737D01*
X98502099Y17565641D01*
X98745323Y18211593D01*
X98722836Y18901453D01*
X98502099Y19434359D01*
X98224868Y19545263D01*
X97179605Y18500000D01*
X96820395Y18500000D01*
X95775132Y19545263D01*
X95497901Y19434359D01*
X95254677Y18788407D01*
X92562075Y18788407D01*
X92759195Y19083417D01*
X92883044Y19706043D01*
X92883043Y19706048D01*
X92883043Y19724868D01*
X95954737Y19724868D01*
X97000000Y18679605D01*
X98045263Y19724868D01*
X97934359Y20002099D01*
X97288407Y20245323D01*
X96598547Y20222836D01*
X96065641Y20002099D01*
X95954737Y19724868D01*
X92883043Y19724868D01*
X92883043Y23157986D01*
X95272701Y23157986D01*
X95535067Y22523011D01*
X96020456Y22036774D01*
X96654971Y21773300D01*
X97342014Y21772701D01*
X97976989Y22035067D01*
X98463226Y22520456D01*
X98726700Y23154971D01*
X98727299Y23842014D01*
X98464933Y24476989D01*
X97979544Y24963226D01*
X97345029Y25226700D01*
X96657986Y25227299D01*
X96023011Y24964933D01*
X95536774Y24479544D01*
X95273300Y23845029D01*
X95272701Y23157986D01*
X92883043Y23157986D01*
X92883043Y26843414D01*
X95150463Y29110834D01*
X95503152Y29638671D01*
X95627000Y30261297D01*
X95627000Y67668729D01*
X95743019Y67842364D01*
X95866867Y68464990D01*
X95743019Y69087616D01*
X95390330Y69615453D01*
X94862493Y69968142D01*
X94239867Y70091990D01*
X93617241Y69968142D01*
X93089404Y69615453D01*
X92849537Y69375586D01*
X92627000Y69042535D01*
X92627000Y74500000D01*
X92503152Y75122626D01*
X92150463Y75650463D01*
X84877000Y82923926D01*
X84877000Y84826074D01*
X87670458Y87619533D01*
X87670461Y87619535D01*
X88023150Y88147372D01*
X88043564Y88250000D01*
X88146999Y88769998D01*
X88146998Y88770003D01*
X88146998Y93868753D01*
X88322129Y94043578D01*
X88445680Y94341122D01*
X91672424Y94341122D01*
X92177862Y93117868D01*
X93112945Y92181151D01*
X94335315Y91673579D01*
X95658878Y91672424D01*
X96882132Y92177862D01*
X97818849Y93112945D01*
X98326421Y94335315D01*
X98327576Y95658878D01*
X97822138Y96882132D01*
X96887055Y97818849D01*
X95664685Y98326421D01*
X94341122Y98327576D01*
X93117868Y97822138D01*
X92181151Y96887055D01*
X91673579Y95664685D01*
X91672424Y94341122D01*
X88445680Y94341122D01*
X88646628Y94825057D01*
X88647366Y95671230D01*
X88324232Y96453274D01*
X87726420Y97052131D01*
X86944941Y97376630D01*
X86098768Y97377368D01*
X85316724Y97054234D01*
X84717867Y96456422D01*
X84393368Y95674943D01*
X84392630Y94828770D01*
X84715764Y94046726D01*
X84892998Y93869182D01*
X84892998Y89443923D01*
X82099968Y86650894D01*
X81871501Y86422825D01*
X81623283Y85825050D01*
X81622718Y85177789D01*
X81623000Y85177107D01*
X81623000Y82250000D01*
X81746848Y81627374D01*
X82099537Y81099537D01*
X82634140Y80564934D01*
X79849537Y77780332D01*
X79496848Y77252495D01*
X79373000Y76629869D01*
X79373000Y75500000D01*
X79496848Y74877374D01*
X79849537Y74349537D01*
X80377374Y73996848D01*
X81000000Y73873000D01*
X81622626Y73996848D01*
X82150463Y74349537D01*
X82503152Y74877374D01*
X82627000Y75500000D01*
X82627000Y75955943D01*
X84935065Y78264009D01*
X89373000Y73826074D01*
X89373000Y41317412D01*
X89150462Y41650462D01*
X88622626Y42003152D01*
X88000000Y42127000D01*
X87377374Y42003152D01*
X86849537Y41650462D01*
X86082386Y40883312D01*
X85729697Y40355475D01*
X85605849Y39732849D01*
X85605849Y23055720D01*
X84449550Y21899421D01*
X72151106Y21899421D01*
X72151101Y21899422D01*
X71528475Y21775573D01*
X71000638Y21422884D01*
X69549537Y19971783D01*
X69196848Y19443946D01*
X69073000Y18821320D01*
X69073000Y18531247D01*
X68897869Y18356422D01*
X68573370Y17574943D01*
X68572632Y16728770D01*
X68895766Y15946726D01*
X69493578Y15347869D01*
X70275057Y15023370D01*
X71121230Y15022632D01*
X71903274Y15345766D01*
X72502131Y15943578D01*
X72826630Y16725057D01*
X72827368Y17571230D01*
X72512610Y18333004D01*
X72825027Y18645421D01*
X75787373Y18645421D01*
X75497869Y18356422D01*
X75173370Y17574943D01*
X75172632Y16728770D01*
X75495766Y15946726D01*
X76093578Y15347869D01*
X76875057Y15023370D01*
X77721230Y15022632D01*
X78503274Y15345766D01*
X79102131Y15943578D01*
X79426630Y16725057D01*
X79427368Y17571230D01*
X79104234Y18353274D01*
X78812597Y18645421D01*
X85123476Y18645421D01*
X85746102Y18769269D01*
X86273939Y19121958D01*
X88383312Y21231331D01*
X88736001Y21759168D01*
X88859849Y22381794D01*
X88859849Y39058924D01*
X89150462Y39349537D01*
X89373000Y39682588D01*
X89373000Y32500000D01*
X89496848Y31877374D01*
X89849537Y31349537D01*
X90377374Y30996848D01*
X91000000Y30873000D01*
X91622626Y30996848D01*
X92150463Y31349537D01*
X92373000Y31682588D01*
X92373000Y30935223D01*
X90105580Y28667803D01*
X89752891Y28139966D01*
X89629043Y27517340D01*
X89629043Y20379969D01*
X88526226Y19277152D01*
X88278770Y19277368D01*
X87496726Y18954234D01*
X86897869Y18356422D01*
X86573370Y17574943D01*
X86572632Y16728770D01*
X86750194Y16299038D01*
X78978156Y8527000D01*
X66571844Y8527000D01*
X65027000Y10071844D01*
X65027000Y20216653D01*
X65296852Y20216653D01*
X65296852Y14576148D01*
X65420700Y13953522D01*
X65773389Y13425685D01*
X68572848Y10626226D01*
X68572632Y10378770D01*
X68895766Y9596726D01*
X69493578Y8997869D01*
X70275057Y8673370D01*
X71121230Y8672632D01*
X71903274Y8995766D01*
X72502131Y9593578D01*
X72826630Y10375057D01*
X72826633Y10378770D01*
X75172632Y10378770D01*
X75495766Y9596726D01*
X76093578Y8997869D01*
X76875057Y8673370D01*
X77721230Y8672632D01*
X78503274Y8995766D01*
X79102131Y9593578D01*
X79426630Y10375057D01*
X79427368Y11221230D01*
X79104234Y12003274D01*
X78506422Y12602131D01*
X77724943Y12926630D01*
X76878770Y12927368D01*
X76096726Y12604234D01*
X75497869Y12006422D01*
X75173370Y11224943D01*
X75172632Y10378770D01*
X72826633Y10378770D01*
X72827368Y11221230D01*
X72504234Y12003274D01*
X71906422Y12602131D01*
X71124943Y12926630D01*
X70874077Y12926849D01*
X68550852Y15250074D01*
X68550852Y19542727D01*
X74150463Y25142338D01*
X74503152Y25670175D01*
X74627000Y26292801D01*
X74627000Y40500000D01*
X74503152Y41122626D01*
X74150463Y41650463D01*
X73622626Y42003152D01*
X73000000Y42127000D01*
X72377374Y42003152D01*
X71849537Y41650463D01*
X71496848Y41122626D01*
X71373000Y40500000D01*
X71373000Y26966727D01*
X65773389Y21367116D01*
X65420700Y20839279D01*
X65296852Y20216653D01*
X65027000Y20216653D01*
X65027000Y25685596D01*
X65049422Y25700578D01*
X65217854Y25952656D01*
X65277000Y26250000D01*
X65217854Y26547345D01*
X65049422Y26799422D01*
X57777000Y34071844D01*
X57777000Y40421764D01*
X57827175Y40371501D01*
X58424950Y40123283D01*
X59072211Y40122718D01*
X59670418Y40369892D01*
X60128499Y40827175D01*
X60376717Y41424950D01*
X60376719Y41427789D01*
X60622718Y41427789D01*
X60869892Y40829582D01*
X61327175Y40371501D01*
X61924950Y40123283D01*
X62572211Y40122718D01*
X63170418Y40369892D01*
X63628499Y40827175D01*
X63876717Y41424950D01*
X63877282Y42072211D01*
X63630108Y42670418D01*
X63172825Y43128499D01*
X62575050Y43376717D01*
X61927789Y43377282D01*
X61329582Y43130108D01*
X60871501Y42672825D01*
X60623283Y42075050D01*
X60622718Y41427789D01*
X60376719Y41427789D01*
X60377282Y42072211D01*
X60130108Y42670418D01*
X59672825Y43128499D01*
X59075050Y43376717D01*
X58427789Y43377282D01*
X57829582Y43130108D01*
X57777000Y43077618D01*
X57777000Y61000000D01*
X63623000Y61000000D01*
X63708788Y60568716D01*
X63953091Y60203091D01*
X64318716Y59958788D01*
X64750000Y59873000D01*
X65181284Y59958788D01*
X65546909Y60203091D01*
X68296909Y62953090D01*
X68296911Y62953093D01*
X68466818Y63123000D01*
X76479891Y63123000D01*
X75877374Y63003152D01*
X75349537Y62650463D01*
X74996848Y62122626D01*
X74873000Y61500000D01*
X74873000Y50802805D01*
X74500000Y50877000D01*
X74068716Y50791212D01*
X73703091Y50546909D01*
X72783182Y49627000D01*
X64750000Y49627000D01*
X64318716Y49541212D01*
X63953091Y49296909D01*
X63708788Y48931284D01*
X63623000Y48500000D01*
X63708788Y48068716D01*
X63953091Y47703091D01*
X64318716Y47458788D01*
X64750000Y47373000D01*
X73250000Y47373000D01*
X73681284Y47458788D01*
X74046909Y47703091D01*
X74873000Y48529182D01*
X74873000Y32500000D01*
X74996848Y31877374D01*
X75349537Y31349537D01*
X75877374Y30996848D01*
X76500000Y30873000D01*
X77122626Y30996848D01*
X77650463Y31349537D01*
X78003152Y31877374D01*
X78127000Y32500000D01*
X78127000Y56066074D01*
X78201288Y55954894D01*
X78453091Y55703091D01*
X78818716Y55458788D01*
X79250000Y55373001D01*
X79681284Y55458788D01*
X80046909Y55703091D01*
X80291212Y56068716D01*
X80376999Y56500000D01*
X80291212Y56931284D01*
X80125197Y57179743D01*
X80125197Y62751803D01*
X80039409Y63183087D01*
X79947663Y63320395D01*
X79795107Y63548712D01*
X78296909Y65046909D01*
X77931284Y65291212D01*
X77500000Y65377000D01*
X68000000Y65377000D01*
X67568716Y65291212D01*
X67203091Y65046909D01*
X66703093Y64546911D01*
X66703090Y64546909D01*
X63953091Y61796909D01*
X63708788Y61431284D01*
X63623000Y61000000D01*
X57777000Y61000000D01*
X57777000Y67421764D01*
X57827175Y67371501D01*
X58424950Y67123283D01*
X59072211Y67122718D01*
X59670418Y67369892D01*
X60128499Y67827175D01*
X60376717Y68424950D01*
X60376719Y68427789D01*
X60622718Y68427789D01*
X60869892Y67829582D01*
X61327175Y67371501D01*
X61924950Y67123283D01*
X62572211Y67122718D01*
X63170418Y67369892D01*
X63628499Y67827175D01*
X63876717Y68424950D01*
X63877282Y69072211D01*
X63630108Y69670418D01*
X63172825Y70128499D01*
X62575050Y70376717D01*
X61927789Y70377282D01*
X61329582Y70130108D01*
X60871501Y69672825D01*
X60623283Y69075050D01*
X60622718Y68427789D01*
X60376719Y68427789D01*
X60377282Y69072211D01*
X60130108Y69670418D01*
X59672825Y70128499D01*
X59075050Y70376717D01*
X58427789Y70377282D01*
X57829582Y70130108D01*
X57777000Y70077618D01*
X57777000Y77304733D01*
X57717854Y77602078D01*
X57549422Y77854155D01*
X56890677Y78512900D01*
X56890792Y78644506D01*
X56734770Y79022108D01*
X56446122Y79311259D01*
X56068793Y79467940D01*
X55660227Y79468297D01*
X55282625Y79312275D01*
X54993474Y79023627D01*
X54836793Y78646298D01*
X54836436Y78237732D01*
X54992458Y77860130D01*
X55281106Y77570979D01*
X55658435Y77414298D01*
X55791707Y77414182D01*
X56223000Y76982889D01*
X56223000Y67729403D01*
X56082508Y67870140D01*
X55705179Y68026821D01*
X55296613Y68027178D01*
X54919011Y67871156D01*
X54629860Y67582508D01*
X54473179Y67205179D01*
X54472822Y66796613D01*
X54628844Y66419011D01*
X54917492Y66129860D01*
X55223000Y66003002D01*
X55223000Y31500000D01*
X55282146Y31202655D01*
X55450578Y30950578D01*
X62391237Y24009919D01*
X62391237Y23707607D01*
X54777000Y31321844D01*
X54777000Y39824514D01*
X54870140Y39917492D01*
X55026821Y40294821D01*
X55027178Y40703387D01*
X54871156Y41080989D01*
X54582508Y41370140D01*
X54205179Y41526821D01*
X53796613Y41527178D01*
X53419011Y41371156D01*
X53277000Y41229392D01*
X53277000Y52924514D01*
X53370140Y53017492D01*
X53526821Y53394821D01*
X53527178Y53803387D01*
X53371156Y54180989D01*
X53082508Y54470140D01*
X52705179Y54626821D01*
X52296613Y54627178D01*
X51919011Y54471156D01*
X51629860Y54182508D01*
X51473179Y53805179D01*
X51472822Y53396613D01*
X47027000Y53396613D01*
X47027000Y56324514D01*
X47120140Y56417492D01*
X47276821Y56794821D01*
X47277178Y57203387D01*
X47121156Y57580989D01*
X46832508Y57870140D01*
X46455179Y58026821D01*
X46046613Y58027178D01*
X45669011Y57871156D01*
X45527000Y57729392D01*
X45527000Y61226380D01*
X47049422Y62748802D01*
X47217854Y63000879D01*
X47277000Y63298224D01*
X47277000Y70324514D01*
X47370140Y70417492D01*
X47526821Y70794821D01*
X47527178Y71203387D01*
X47371156Y71580989D01*
X47082508Y71870140D01*
X46705179Y72026821D01*
X46296613Y72027178D01*
X45919011Y71871156D01*
X45629860Y71582508D01*
X45473179Y71205179D01*
X45472822Y70796613D01*
X45628844Y70419011D01*
X45723000Y70324691D01*
X45723000Y63620068D01*
X44200578Y62097646D01*
X44032146Y61845569D01*
X43973000Y61548224D01*
X43973000Y54945602D01*
X43880108Y55170418D01*
X43422825Y55628499D01*
X42825050Y55876717D01*
X42177789Y55877282D01*
X41579582Y55630108D01*
X41121501Y55172825D01*
X40873283Y54575050D01*
X40872718Y53927789D01*
X41119892Y53329582D01*
X41577175Y52871501D01*
X42174950Y52623283D01*
X42822211Y52622718D01*
X43420418Y52869892D01*
X43878499Y53327175D01*
X43973000Y53554759D01*
X43973000Y51494831D01*
X43919387Y51624264D01*
X43652532Y51722927D01*
X42679605Y50750000D01*
X43652532Y49777073D01*
X43919387Y49875736D01*
X43973000Y50020046D01*
X43973000Y45994831D01*
X43919387Y46124264D01*
X43652532Y46222927D01*
X42679605Y45250000D01*
X43652532Y44277073D01*
X43919387Y44375736D01*
X43973000Y44520046D01*
X43973000Y42445602D01*
X43880108Y42670418D01*
X43422825Y43128499D01*
X42825050Y43376717D01*
X42177789Y43377282D01*
X41579582Y43130108D01*
X41121501Y42672825D01*
X40873283Y42075050D01*
X40872718Y41427789D01*
X41119892Y40829582D01*
X41577175Y40371501D01*
X42174950Y40123283D01*
X42822211Y40122718D01*
X43420418Y40369892D01*
X43878499Y40827175D01*
X43973000Y41054759D01*
X43973000Y39071844D01*
X41428156Y36527000D01*
X39250000Y36527000D01*
X38952655Y36467854D01*
X38700578Y36299422D01*
X36678156Y34277000D01*
X33047567Y34277000D01*
X32964933Y34476989D01*
X32479544Y34963226D01*
X31845029Y35226700D01*
X31157986Y35227299D01*
X30523011Y34964933D01*
X30036774Y34479544D01*
X29773300Y33845029D01*
X29772701Y33157986D01*
X30035067Y32523011D01*
X30520456Y32036774D01*
X31154971Y31773300D01*
X31842014Y31772701D01*
X32476989Y32035067D01*
X32963226Y32520456D01*
X33047330Y32723000D01*
X36672200Y32723000D01*
X36371501Y32422825D01*
X36123283Y31825050D01*
X36122718Y31177789D01*
X36369892Y30579582D01*
X36827175Y30121501D01*
X37424950Y29873283D01*
X38072211Y29872718D01*
X38670418Y30119892D01*
X39128499Y30577175D01*
X39376717Y31174950D01*
X39377282Y31822211D01*
X39130108Y32420418D01*
X38672825Y32878499D01*
X38075050Y33126717D01*
X37725866Y33127022D01*
X39571844Y34973000D01*
X40874156Y34973000D01*
X40700578Y34799422D01*
X40532146Y34547345D01*
X40473000Y34250000D01*
X40473000Y32939367D01*
X40329582Y32880108D01*
X39871501Y32422825D01*
X39623283Y31825050D01*
X39622718Y31177789D01*
X39869892Y30579582D01*
X40327175Y30121501D01*
X40924950Y29873283D01*
X41572211Y29872718D01*
X42170418Y30119892D01*
X42628499Y30577175D01*
X42876717Y31174950D01*
X42877282Y31822211D01*
X42630108Y32420418D01*
X42172825Y32878499D01*
X42027000Y32939051D01*
X42027000Y33928156D01*
X46799422Y38700578D01*
X46967854Y38952655D01*
X47027000Y39250000D01*
X47027000Y42415492D01*
X47128844Y42169011D01*
X47223000Y42074691D01*
X47223000Y37821844D01*
X45950578Y36549422D01*
X45782146Y36297345D01*
X45723000Y36000000D01*
X45723000Y29465943D01*
X45095029Y29726700D01*
X44407986Y29727299D01*
X43773011Y29464933D01*
X43286774Y28979544D01*
X43023300Y28345029D01*
X43022701Y27657986D01*
X43285067Y27023011D01*
X43770456Y26536774D01*
X44404971Y26273300D01*
X45092014Y26272701D01*
X45723000Y26533419D01*
X45723000Y24465943D01*
X45095029Y24726700D01*
X44407986Y24727299D01*
X43773011Y24464933D01*
X43286774Y23979544D01*
X43023300Y23345029D01*
X43022701Y22657986D01*
X43285067Y22023011D01*
X43770456Y21536774D01*
X44404971Y21273300D01*
X45092014Y21272701D01*
X45657518Y21506362D01*
X43178156Y19027000D01*
X33571844Y19027000D01*
X28171055Y24427789D01*
X30372718Y24427789D01*
X30619892Y23829582D01*
X31077175Y23371501D01*
X31674950Y23123283D01*
X32322211Y23122718D01*
X32920418Y23369892D01*
X33378499Y23827175D01*
X33626717Y24424950D01*
X33627282Y25072211D01*
X33380108Y25670418D01*
X32922825Y26128499D01*
X32325050Y26376717D01*
X31677789Y26377282D01*
X31079582Y26130108D01*
X30621501Y25672825D01*
X30373283Y25075050D01*
X30372718Y24427789D01*
X28171055Y24427789D01*
X25277000Y27321844D01*
X25277000Y27927789D01*
X30372718Y27927789D01*
X30619892Y27329582D01*
X31077175Y26871501D01*
X31674950Y26623283D01*
X32322211Y26622718D01*
X32920418Y26869892D01*
X33378499Y27327175D01*
X33626717Y27924950D01*
X33627282Y28572211D01*
X33380108Y29170418D01*
X32922825Y29628499D01*
X32325050Y29876717D01*
X31677789Y29877282D01*
X31079582Y29630108D01*
X30621501Y29172825D01*
X30373283Y28575050D01*
X30372718Y27927789D01*
X25277000Y27927789D01*
X25277000Y28250000D01*
X25217854Y28547345D01*
X25049422Y28799422D01*
X23549422Y30299422D01*
X23297345Y30467854D01*
X23000000Y30527000D01*
X18945602Y30527000D01*
X19170418Y30619892D01*
X19628499Y31077175D01*
X19876717Y31674950D01*
X19877282Y32322211D01*
X19630108Y32920418D01*
X19392954Y33157986D01*
X24772701Y33157986D01*
X25035067Y32523011D01*
X25520456Y32036774D01*
X26154971Y31773300D01*
X26842014Y31772701D01*
X27476989Y32035067D01*
X27963226Y32520456D01*
X28226700Y33154971D01*
X28227299Y33842014D01*
X27964933Y34476989D01*
X27479544Y34963226D01*
X26845029Y35226700D01*
X26157986Y35227299D01*
X25523011Y34964933D01*
X25036774Y34479544D01*
X24773300Y33845029D01*
X24772701Y33157986D01*
X19392954Y33157986D01*
X19172825Y33378499D01*
X18575050Y33626717D01*
X17927789Y33627282D01*
X17329582Y33380108D01*
X16871501Y32922825D01*
X16623283Y32325050D01*
X16622718Y31677789D01*
X16869892Y31079582D01*
X17327175Y30621501D01*
X17554759Y30527000D01*
X15445602Y30527000D01*
X15670418Y30619892D01*
X16128499Y31077175D01*
X16376717Y31674950D01*
X16377282Y32322211D01*
X16130108Y32920418D01*
X15672825Y33378499D01*
X15075050Y33626717D01*
X14427789Y33627282D01*
X13829582Y33380108D01*
X13371501Y32922825D01*
X13123283Y32325050D01*
X13122718Y31677789D01*
X13369892Y31079582D01*
X13827175Y30621501D01*
X14054759Y30527000D01*
X11000000Y30527000D01*
X10702655Y30467854D01*
X10450578Y30299422D01*
X9968364Y29817208D01*
X9825050Y29876717D01*
X9177789Y29877282D01*
X8579582Y29630108D01*
X8121501Y29172825D01*
X7873283Y28575050D01*
X7872718Y27927789D01*
X1127000Y27927789D01*
X1127000Y33157986D01*
X3272701Y33157986D01*
X3535067Y32523011D01*
X4020456Y32036774D01*
X4654971Y31773300D01*
X5342014Y31772701D01*
X5976989Y32035067D01*
X6463226Y32520456D01*
X6726700Y33154971D01*
X6726702Y33157986D01*
X8272701Y33157986D01*
X8535067Y32523011D01*
X9020456Y32036774D01*
X9654971Y31773300D01*
X10342014Y31772701D01*
X10976989Y32035067D01*
X11463226Y32520456D01*
X11726700Y33154971D01*
X11727299Y33842014D01*
X11464933Y34476989D01*
X10979544Y34963226D01*
X10345029Y35226700D01*
X9657986Y35227299D01*
X9023011Y34964933D01*
X8536774Y34479544D01*
X8273300Y33845029D01*
X8272701Y33157986D01*
X6726702Y33157986D01*
X6727299Y33842014D01*
X6464933Y34476989D01*
X5979544Y34963226D01*
X5345029Y35226700D01*
X4657986Y35227299D01*
X4023011Y34964933D01*
X3536774Y34479544D01*
X3273300Y33845029D01*
X3272701Y33157986D01*
X1127000Y33157986D01*
X1127000Y38157986D01*
X10272701Y38157986D01*
X10535067Y37523011D01*
X11020456Y37036774D01*
X11654971Y36773300D01*
X12342014Y36772701D01*
X12976989Y37035067D01*
X13463226Y37520456D01*
X13726700Y38154971D01*
X13726702Y38157986D01*
X15272701Y38157986D01*
X15535067Y37523011D01*
X16020456Y37036774D01*
X16654971Y36773300D01*
X17342014Y36772701D01*
X17976989Y37035067D01*
X18463226Y37520456D01*
X18520333Y37657986D01*
X29772701Y37657986D01*
X30035067Y37023011D01*
X30520456Y36536774D01*
X31154971Y36273300D01*
X31842014Y36272701D01*
X32476989Y36535067D01*
X32963226Y37020456D01*
X33226700Y37654971D01*
X33226702Y37657986D01*
X34772701Y37657986D01*
X35035067Y37023011D01*
X35520456Y36536774D01*
X36154971Y36273300D01*
X36842014Y36272701D01*
X37476989Y36535067D01*
X37963226Y37020456D01*
X38226700Y37654971D01*
X38227299Y38342014D01*
X37964933Y38976989D01*
X37479544Y39463226D01*
X36845029Y39726700D01*
X36157986Y39727299D01*
X35523011Y39464933D01*
X35036774Y38979544D01*
X34773300Y38345029D01*
X34772701Y37657986D01*
X33226702Y37657986D01*
X33227299Y38342014D01*
X32964933Y38976989D01*
X32479544Y39463226D01*
X31845029Y39726700D01*
X31157986Y39727299D01*
X30523011Y39464933D01*
X30036774Y38979544D01*
X29773300Y38345029D01*
X29772701Y37657986D01*
X18520333Y37657986D01*
X18726700Y38154971D01*
X18727299Y38842014D01*
X18464933Y39476989D01*
X17979544Y39963226D01*
X17345029Y40226700D01*
X16657986Y40227299D01*
X16023011Y39964933D01*
X15536774Y39479544D01*
X15273300Y38845029D01*
X15272701Y38157986D01*
X13726702Y38157986D01*
X13727299Y38842014D01*
X13464933Y39476989D01*
X12979544Y39963226D01*
X12345029Y40226700D01*
X11657986Y40227299D01*
X11023011Y39964933D01*
X10536774Y39479544D01*
X10273300Y38845029D01*
X10272701Y38157986D01*
X1127000Y38157986D01*
X1127000Y44677789D01*
X11122718Y44677789D01*
X11369892Y44079582D01*
X11827175Y43621501D01*
X12424950Y43373283D01*
X13072211Y43372718D01*
X13670418Y43619892D01*
X14128499Y44077175D01*
X14376717Y44674950D01*
X14376719Y44677789D01*
X14622718Y44677789D01*
X14869892Y44079582D01*
X15327175Y43621501D01*
X15924950Y43373283D01*
X16572211Y43372718D01*
X17170418Y43619892D01*
X17628499Y44077175D01*
X17670277Y44177789D01*
X30622718Y44177789D01*
X30869892Y43579582D01*
X31327175Y43121501D01*
X31924950Y42873283D01*
X32572211Y42872718D01*
X33170418Y43119892D01*
X33628499Y43577175D01*
X33876717Y44174950D01*
X33876719Y44177789D01*
X34122718Y44177789D01*
X34369892Y43579582D01*
X34827175Y43121501D01*
X35424950Y42873283D01*
X36072211Y42872718D01*
X36670418Y43119892D01*
X37128499Y43577175D01*
X37344543Y44097468D01*
X41527073Y44097468D01*
X41625736Y43830613D01*
X42235461Y43604092D01*
X42885460Y43628144D01*
X43374264Y43830613D01*
X43472927Y44097468D01*
X42500000Y45070395D01*
X41527073Y44097468D01*
X37344543Y44097468D01*
X37376717Y44174950D01*
X37377282Y44822211D01*
X37130108Y45420418D01*
X37036151Y45514539D01*
X40854092Y45514539D01*
X40878144Y44864540D01*
X41080613Y44375736D01*
X41347468Y44277073D01*
X42320395Y45250000D01*
X41347468Y46222927D01*
X41080613Y46124264D01*
X40854092Y45514539D01*
X37036151Y45514539D01*
X36672825Y45878499D01*
X36075050Y46126717D01*
X35427789Y46127282D01*
X34829582Y45880108D01*
X34371501Y45422825D01*
X34123283Y44825050D01*
X34122718Y44177789D01*
X33876719Y44177789D01*
X33877282Y44822211D01*
X33630108Y45420418D01*
X33172825Y45878499D01*
X32575050Y46126717D01*
X31927789Y46127282D01*
X31329582Y45880108D01*
X30871501Y45422825D01*
X30623283Y44825050D01*
X30622718Y44177789D01*
X17670277Y44177789D01*
X17876717Y44674950D01*
X17877282Y45322211D01*
X17630108Y45920418D01*
X17172825Y46378499D01*
X17114948Y46402532D01*
X41527073Y46402532D01*
X42500000Y45429605D01*
X43472927Y46402532D01*
X43374264Y46669387D01*
X42764539Y46895908D01*
X42114540Y46871856D01*
X41625736Y46669387D01*
X41527073Y46402532D01*
X17114948Y46402532D01*
X16575050Y46626717D01*
X15927789Y46627282D01*
X15329582Y46380108D01*
X14871501Y45922825D01*
X14623283Y45325050D01*
X14622718Y44677789D01*
X14376719Y44677789D01*
X14377282Y45322211D01*
X14130108Y45920418D01*
X13672825Y46378499D01*
X13075050Y46626717D01*
X12427789Y46627282D01*
X11829582Y46380108D01*
X11371501Y45922825D01*
X11123283Y45325050D01*
X11122718Y44677789D01*
X1127000Y44677789D01*
X1127000Y49597468D01*
X41527073Y49597468D01*
X41625736Y49330613D01*
X42235461Y49104092D01*
X42885460Y49128144D01*
X43374264Y49330613D01*
X43472927Y49597468D01*
X42500000Y50570395D01*
X41527073Y49597468D01*
X1127000Y49597468D01*
X1127000Y51014539D01*
X40854092Y51014539D01*
X40878144Y50364540D01*
X41080613Y49875736D01*
X41347468Y49777073D01*
X42320395Y50750000D01*
X41347468Y51722927D01*
X41080613Y51624264D01*
X40854092Y51014539D01*
X1127000Y51014539D01*
X1127000Y51902532D01*
X41527073Y51902532D01*
X42500000Y50929605D01*
X43472927Y51902532D01*
X43374264Y52169387D01*
X42764539Y52395908D01*
X42114540Y52371856D01*
X41625736Y52169387D01*
X41527073Y51902532D01*
X1127000Y51902532D01*
X1127000Y59927789D01*
X12872718Y59927789D01*
X13119892Y59329582D01*
X13577175Y58871501D01*
X14174950Y58623283D01*
X14822211Y58622718D01*
X15420418Y58869892D01*
X15673968Y59123000D01*
X32826114Y59123000D01*
X33077175Y58871501D01*
X33674950Y58623283D01*
X34322211Y58622718D01*
X34920418Y58869892D01*
X35378499Y59327175D01*
X35623000Y59915998D01*
X35623000Y58966819D01*
X34825213Y58169031D01*
X34325050Y58376717D01*
X33677789Y58377282D01*
X33079582Y58130108D01*
X32826032Y57877000D01*
X15673886Y57877000D01*
X15422825Y58128499D01*
X14825050Y58376717D01*
X14177789Y58377282D01*
X13579582Y58130108D01*
X13121501Y57672825D01*
X12873283Y57075050D01*
X12872718Y56427789D01*
X13119892Y55829582D01*
X13577175Y55371501D01*
X14174950Y55123283D01*
X14822211Y55122718D01*
X15420418Y55369892D01*
X15673968Y55623000D01*
X32826114Y55623000D01*
X33077175Y55371501D01*
X33674950Y55123283D01*
X34322211Y55122718D01*
X34920418Y55369892D01*
X35217259Y55666216D01*
X35431284Y55708788D01*
X35796909Y55953091D01*
X37546910Y57703091D01*
X37791212Y58068716D01*
X37877000Y58500000D01*
X37877000Y61250000D01*
X37791212Y61681284D01*
X37546909Y62046909D01*
X37246350Y62347468D01*
X41527073Y62347468D01*
X41625736Y62080613D01*
X42235461Y61854092D01*
X42885460Y61878144D01*
X43374264Y62080613D01*
X43472927Y62347468D01*
X42500000Y63320395D01*
X41527073Y62347468D01*
X37246350Y62347468D01*
X35829279Y63764539D01*
X40854092Y63764539D01*
X40878144Y63114540D01*
X41080613Y62625736D01*
X41347468Y62527073D01*
X42320395Y63500000D01*
X42679605Y63500000D01*
X43652532Y62527073D01*
X43919387Y62625736D01*
X44145908Y63235461D01*
X44121856Y63885460D01*
X43919387Y64374264D01*
X43652532Y64472927D01*
X42679605Y63500000D01*
X42320395Y63500000D01*
X41347468Y64472927D01*
X41080613Y64374264D01*
X40854092Y63764539D01*
X35829279Y63764539D01*
X34941286Y64652532D01*
X41527073Y64652532D01*
X42500000Y63679605D01*
X43472927Y64652532D01*
X43374264Y64919387D01*
X42764539Y65145908D01*
X42114540Y65121856D01*
X41625736Y64919387D01*
X41527073Y64652532D01*
X34941286Y64652532D01*
X32916029Y66677789D01*
X40872718Y66677789D01*
X41119892Y66079582D01*
X41577175Y65621501D01*
X42174950Y65373283D01*
X42822211Y65372718D01*
X43420418Y65619892D01*
X43878499Y66077175D01*
X44126717Y66674950D01*
X44127282Y67322211D01*
X43880108Y67920418D01*
X43422825Y68378499D01*
X42825050Y68626717D01*
X42177789Y68627282D01*
X41579582Y68380108D01*
X41121501Y67922825D01*
X40873283Y67325050D01*
X40872718Y66677789D01*
X32916029Y66677789D01*
X28916029Y70677789D01*
X30622718Y70677789D01*
X30869892Y70079582D01*
X31327175Y69621501D01*
X31924950Y69373283D01*
X32572211Y69372718D01*
X33170418Y69619892D01*
X33628499Y70077175D01*
X33876717Y70674950D01*
X33876719Y70677789D01*
X34122718Y70677789D01*
X34369892Y70079582D01*
X34827175Y69621501D01*
X35424950Y69373283D01*
X36072211Y69372718D01*
X36670418Y69619892D01*
X37128499Y70077175D01*
X37376717Y70674950D01*
X37377282Y71322211D01*
X37130108Y71920418D01*
X36672825Y72378499D01*
X36075050Y72626717D01*
X35427789Y72627282D01*
X34829582Y72380108D01*
X34371501Y71922825D01*
X34123283Y71325050D01*
X34122718Y70677789D01*
X33876719Y70677789D01*
X33877282Y71322211D01*
X33630108Y71920418D01*
X33172825Y72378499D01*
X32575050Y72626717D01*
X31927789Y72627282D01*
X31329582Y72380108D01*
X30871501Y71922825D01*
X30623283Y71325050D01*
X30622718Y70677789D01*
X28916029Y70677789D01*
X28877000Y70716818D01*
X28877000Y73347468D01*
X41527073Y73347468D01*
X41625736Y73080613D01*
X42235461Y72854092D01*
X42885460Y72878144D01*
X43374264Y73080613D01*
X43472927Y73347468D01*
X42500000Y74320395D01*
X41527073Y73347468D01*
X28877000Y73347468D01*
X28877000Y74764539D01*
X40854092Y74764539D01*
X40878144Y74114540D01*
X41080613Y73625736D01*
X41347468Y73527073D01*
X42320395Y74500000D01*
X42679605Y74500000D01*
X43652532Y73527073D01*
X43919387Y73625736D01*
X44145908Y74235461D01*
X44121856Y74885460D01*
X43919387Y75374264D01*
X43652532Y75472927D01*
X42679605Y74500000D01*
X42320395Y74500000D01*
X41347468Y75472927D01*
X41080613Y75374264D01*
X40854092Y74764539D01*
X28877000Y74764539D01*
X28877000Y75652532D01*
X41527073Y75652532D01*
X42500000Y74679605D01*
X43472927Y75652532D01*
X43374264Y75919387D01*
X42764539Y76145908D01*
X42114540Y76121856D01*
X41625736Y75919387D01*
X41527073Y75652532D01*
X28877000Y75652532D01*
X28877000Y77283182D01*
X30010793Y78416974D01*
X29773300Y77845029D01*
X29772701Y77157986D01*
X30035067Y76523011D01*
X30520456Y76036774D01*
X31154971Y75773300D01*
X31842014Y75772701D01*
X32476989Y76035067D01*
X32963226Y76520456D01*
X33226700Y77154971D01*
X33226702Y77157986D01*
X34772701Y77157986D01*
X35035067Y76523011D01*
X35520456Y76036774D01*
X36154971Y75773300D01*
X36842014Y75772701D01*
X37476989Y76035067D01*
X37963226Y76520456D01*
X38226700Y77154971D01*
X38227299Y77842014D01*
X37964933Y78476989D01*
X37479544Y78963226D01*
X36845029Y79226700D01*
X36157986Y79227299D01*
X35523011Y78964933D01*
X35036774Y78479544D01*
X34773300Y77845029D01*
X34772701Y77157986D01*
X33226702Y77157986D01*
X33227299Y77842014D01*
X32964933Y78476989D01*
X32479544Y78963226D01*
X31845029Y79226700D01*
X31157986Y79227299D01*
X30583918Y78990099D01*
X30966819Y79373000D01*
X41572462Y79373000D01*
X41121501Y78922825D01*
X40873283Y78325050D01*
X40872718Y77677789D01*
X41119892Y77079582D01*
X41577175Y76621501D01*
X42174950Y76373283D01*
X42822211Y76372718D01*
X43420418Y76619892D01*
X43878499Y77077175D01*
X44126717Y77674950D01*
X44127282Y78322211D01*
X43880108Y78920418D01*
X43428314Y79373000D01*
X49475131Y79373000D01*
X49906415Y79458788D01*
X50272040Y79703091D01*
X53227534Y82658585D01*
X62597597Y82658585D01*
X63053091Y82203091D01*
X63418716Y81958788D01*
X63850000Y81873000D01*
X64281284Y81958788D01*
X64646909Y82203091D01*
X64891212Y82568716D01*
X64977000Y83000000D01*
X64891212Y83431284D01*
X64646909Y83796909D01*
X64570662Y83873156D01*
X65072211Y83872718D01*
X65670418Y84119892D01*
X65898391Y84347468D01*
X67277073Y84347468D01*
X67375736Y84080613D01*
X67985461Y83854092D01*
X68635460Y83878144D01*
X69124264Y84080613D01*
X69222927Y84347468D01*
X68250000Y85320395D01*
X67277073Y84347468D01*
X65898391Y84347468D01*
X66128499Y84577175D01*
X66376717Y85174950D01*
X66377282Y85822211D01*
X66377000Y85822893D01*
X66377000Y86326074D01*
X66673926Y86623000D01*
X67018980Y86623000D01*
X66983186Y86587206D01*
X67097466Y86472926D01*
X66830613Y86374264D01*
X66604092Y85764539D01*
X66628144Y85114540D01*
X66830613Y84625736D01*
X67097468Y84527073D01*
X68070395Y85500000D01*
X68056253Y85514142D01*
X68235858Y85693747D01*
X68250000Y85679605D01*
X68264143Y85693747D01*
X68443748Y85514142D01*
X68429605Y85500000D01*
X69402532Y84527073D01*
X69669387Y84625736D01*
X69895908Y85235461D01*
X69871856Y85885460D01*
X69669387Y86374264D01*
X69402534Y86472926D01*
X69516814Y86587206D01*
X69481020Y86623000D01*
X73903532Y86623000D01*
X74873000Y85653532D01*
X74873000Y74500000D01*
X74996848Y73877374D01*
X75349537Y73349537D01*
X77849537Y70849537D01*
X78377374Y70496848D01*
X79000000Y70373000D01*
X83373000Y70373000D01*
X83373000Y66427925D01*
X80150463Y69650463D01*
X79622626Y70003152D01*
X79000000Y70127000D01*
X75000000Y70127000D01*
X74377374Y70003152D01*
X73849537Y69650463D01*
X73496848Y69122626D01*
X73373000Y68500000D01*
X73496848Y67877374D01*
X73849537Y67349537D01*
X74377374Y66996848D01*
X75000000Y66873000D01*
X78326074Y66873000D01*
X80873000Y64326075D01*
X80873000Y24000000D01*
X80996848Y23377374D01*
X81349537Y22849537D01*
X81877374Y22496848D01*
X82500000Y22373000D01*
X83122626Y22496848D01*
X83650463Y22849537D01*
X84003152Y23377374D01*
X84127000Y24000000D01*
X84127000Y46164142D01*
X84377374Y45996848D01*
X85000000Y45873000D01*
X85622626Y45996848D01*
X86150463Y46349537D01*
X86503152Y46877374D01*
X86627000Y47500000D01*
X86627000Y75849092D01*
X86628589Y75857080D01*
X86504740Y76479706D01*
X86152051Y77007543D01*
X85624214Y77360232D01*
X85001588Y77484081D01*
X84378962Y77360232D01*
X83851125Y77007543D01*
X83849537Y77005955D01*
X83496848Y76478118D01*
X83373000Y75855492D01*
X83373000Y73627000D01*
X79673926Y73627000D01*
X78127000Y75173926D01*
X78127000Y84347468D01*
X78777073Y84347468D01*
X78875736Y84080613D01*
X79485461Y83854092D01*
X80135460Y83878144D01*
X80624264Y84080613D01*
X80722927Y84347468D01*
X79750000Y85320395D01*
X78777073Y84347468D01*
X78127000Y84347468D01*
X78127000Y85145456D01*
X78128144Y85114540D01*
X78330613Y84625736D01*
X78597468Y84527073D01*
X79570395Y85500000D01*
X79929605Y85500000D01*
X80902532Y84527073D01*
X81169387Y84625736D01*
X81395908Y85235461D01*
X81371856Y85885460D01*
X81169387Y86374264D01*
X80902532Y86472927D01*
X79929605Y85500000D01*
X79570395Y85500000D01*
X78597468Y86472927D01*
X78330613Y86374264D01*
X78127000Y85826200D01*
X78127000Y86327458D01*
X78062339Y86652532D01*
X78777073Y86652532D01*
X79750000Y85679605D01*
X80722927Y86652532D01*
X80624264Y86919387D01*
X80014539Y87145908D01*
X79364540Y87121856D01*
X78875736Y86919387D01*
X78777073Y86652532D01*
X78062339Y86652532D01*
X78003152Y86950084D01*
X77650463Y87477921D01*
X75727921Y89400463D01*
X75200084Y89753152D01*
X74577458Y89877000D01*
X66000000Y89877000D01*
X65377374Y89753152D01*
X64849537Y89400463D01*
X64750000Y89300926D01*
X64107000Y89943926D01*
X64107000Y93736030D01*
X68685635Y93736030D01*
X68845418Y93417261D01*
X69636187Y93107277D01*
X70485387Y93123503D01*
X71194582Y93417261D01*
X71354365Y93736030D01*
X77645633Y93736030D01*
X77805416Y93417261D01*
X78596185Y93107277D01*
X79445385Y93123503D01*
X80154580Y93417261D01*
X80314363Y93736030D01*
X78979998Y95070395D01*
X77645633Y93736030D01*
X71354365Y93736030D01*
X70020000Y95070395D01*
X68685635Y93736030D01*
X64107000Y93736030D01*
X64107000Y93868753D01*
X64282131Y94043578D01*
X64606630Y94825057D01*
X64607335Y95633813D01*
X67877277Y95633813D01*
X67893503Y94784613D01*
X68187261Y94075418D01*
X68506030Y93915635D01*
X69840395Y95250000D01*
X70199605Y95250000D01*
X71533970Y93915635D01*
X71852739Y94075418D01*
X72162723Y94866187D01*
X72148056Y95633813D01*
X76837275Y95633813D01*
X76853501Y94784613D01*
X77147259Y94075418D01*
X77466028Y93915635D01*
X78800393Y95250000D01*
X79159603Y95250000D01*
X80493968Y93915635D01*
X80812737Y94075418D01*
X81122721Y94866187D01*
X81106495Y95715387D01*
X80812737Y96424582D01*
X80493968Y96584365D01*
X79159603Y95250000D01*
X78800393Y95250000D01*
X77466028Y96584365D01*
X77147259Y96424582D01*
X76837275Y95633813D01*
X72148056Y95633813D01*
X72146497Y95715387D01*
X71852739Y96424582D01*
X71533970Y96584365D01*
X70199605Y95250000D01*
X69840395Y95250000D01*
X68506030Y96584365D01*
X68187261Y96424582D01*
X67877277Y95633813D01*
X64607335Y95633813D01*
X64607368Y95671230D01*
X64284234Y96453274D01*
X63974081Y96763970D01*
X68685635Y96763970D01*
X70020000Y95429605D01*
X71354365Y96763970D01*
X77645633Y96763970D01*
X78979998Y95429605D01*
X80314363Y96763970D01*
X80154580Y97082739D01*
X79363811Y97392723D01*
X78514611Y97376497D01*
X77805416Y97082739D01*
X77645633Y96763970D01*
X71354365Y96763970D01*
X71194582Y97082739D01*
X70403813Y97392723D01*
X69554613Y97376497D01*
X68845418Y97082739D01*
X68685635Y96763970D01*
X63974081Y96763970D01*
X63686422Y97052131D01*
X62904943Y97376630D01*
X62058770Y97377368D01*
X61276726Y97054234D01*
X60677869Y96456422D01*
X60353370Y95674943D01*
X60352632Y94828770D01*
X60675766Y94046726D01*
X60853000Y93869182D01*
X60853000Y89270000D01*
X60976848Y88647374D01*
X61329537Y88119537D01*
X61429533Y88019542D01*
X61429535Y88019539D01*
X62822074Y86627000D01*
X52296597Y86627000D01*
X51936867Y86555445D01*
X51865312Y86541212D01*
X51499687Y86296909D01*
X48329779Y83127000D01*
X29250000Y83127000D01*
X28890270Y83055445D01*
X28818715Y83041212D01*
X28453090Y82796909D01*
X23703091Y78046909D01*
X23458788Y77681284D01*
X23373000Y77250000D01*
X23373000Y61377000D01*
X15673886Y61377000D01*
X15422825Y61628499D01*
X14825050Y61876717D01*
X14177789Y61877282D01*
X13579582Y61630108D01*
X13121501Y61172825D01*
X12873283Y60575050D01*
X12872718Y59927789D01*
X1127000Y59927789D01*
X1127000Y71177789D01*
X11122718Y71177789D01*
X11369892Y70579582D01*
X11827175Y70121501D01*
X12424950Y69873283D01*
X13072211Y69872718D01*
X13670418Y70119892D01*
X14128499Y70577175D01*
X14376717Y71174950D01*
X14376719Y71177789D01*
X14622718Y71177789D01*
X14869892Y70579582D01*
X15327175Y70121501D01*
X15924950Y69873283D01*
X16572211Y69872718D01*
X17170418Y70119892D01*
X17628499Y70577175D01*
X17876717Y71174950D01*
X17877282Y71822211D01*
X17630108Y72420418D01*
X17172825Y72878499D01*
X16575050Y73126717D01*
X15927789Y73127282D01*
X15329582Y72880108D01*
X14871501Y72422825D01*
X14623283Y71825050D01*
X14622718Y71177789D01*
X14376719Y71177789D01*
X14377282Y71822211D01*
X14130108Y72420418D01*
X13672825Y72878499D01*
X13075050Y73126717D01*
X12427789Y73127282D01*
X11829582Y72880108D01*
X11371501Y72422825D01*
X11123283Y71825050D01*
X11122718Y71177789D01*
X1127000Y71177789D01*
X1127000Y77657986D01*
X10272701Y77657986D01*
X10535067Y77023011D01*
X11020456Y76536774D01*
X11654971Y76273300D01*
X12342014Y76272701D01*
X12976989Y76535067D01*
X13463226Y77020456D01*
X13726700Y77654971D01*
X13726702Y77657986D01*
X15272701Y77657986D01*
X15535067Y77023011D01*
X16020456Y76536774D01*
X16654971Y76273300D01*
X17342014Y76272701D01*
X17976989Y76535067D01*
X18463226Y77020456D01*
X18726700Y77654971D01*
X18727299Y78342014D01*
X18464933Y78976989D01*
X17979544Y79463226D01*
X17345029Y79726700D01*
X16657986Y79727299D01*
X16023011Y79464933D01*
X15536774Y78979544D01*
X15273300Y78345029D01*
X15272701Y77657986D01*
X13726702Y77657986D01*
X13727299Y78342014D01*
X13464933Y78976989D01*
X12979544Y79463226D01*
X12345029Y79726700D01*
X11657986Y79727299D01*
X11023011Y79464933D01*
X10536774Y78979544D01*
X10273300Y78345029D01*
X10272701Y77657986D01*
X1127000Y77657986D01*
X1127000Y94341122D01*
X1672424Y94341122D01*
X2177862Y93117868D01*
X3112945Y92181151D01*
X4335315Y91673579D01*
X5658878Y91672424D01*
X6882132Y92177862D01*
X7427476Y92722255D01*
X12991861Y92722255D01*
X13065995Y92476136D01*
X13603223Y92283035D01*
X14173454Y92310222D01*
X14574005Y92476136D01*
X14648139Y92722255D01*
X13820000Y93550395D01*
X12991861Y92722255D01*
X7427476Y92722255D01*
X7818849Y93112945D01*
X8165086Y93946777D01*
X12373035Y93946777D01*
X12400222Y93376546D01*
X12566136Y92975995D01*
X12812255Y92901861D01*
X13640395Y93730000D01*
X13999605Y93730000D01*
X14827745Y92901861D01*
X15073864Y92975995D01*
X15098831Y93045456D01*
X15149543Y92922725D01*
X15550614Y92520953D01*
X16074907Y92303248D01*
X16642603Y92302752D01*
X17167275Y92519543D01*
X17569047Y92920614D01*
X17629881Y93067118D01*
X17689543Y92922725D01*
X18090614Y92520953D01*
X18614907Y92303248D01*
X19182603Y92302752D01*
X19707275Y92519543D01*
X20109047Y92920614D01*
X20169881Y93067118D01*
X20229543Y92922725D01*
X20630614Y92520953D01*
X21154907Y92303248D01*
X21722603Y92302752D01*
X22247275Y92519543D01*
X22649047Y92920614D01*
X22709881Y93067118D01*
X22769543Y92922725D01*
X23170614Y92520953D01*
X23694907Y92303248D01*
X24262603Y92302752D01*
X24787275Y92519543D01*
X25189047Y92920614D01*
X25249881Y93067118D01*
X25309543Y92922725D01*
X25710614Y92520953D01*
X26234907Y92303248D01*
X26802603Y92302752D01*
X27327275Y92519543D01*
X27729047Y92920614D01*
X27789881Y93067118D01*
X27849543Y92922725D01*
X28250614Y92520953D01*
X28774907Y92303248D01*
X29342603Y92302752D01*
X29867275Y92519543D01*
X30269047Y92920614D01*
X30329881Y93067118D01*
X30389543Y92922725D01*
X30790614Y92520953D01*
X31314907Y92303248D01*
X31882603Y92302752D01*
X32407275Y92519543D01*
X32809047Y92920614D01*
X32869881Y93067118D01*
X32929543Y92922725D01*
X33330614Y92520953D01*
X33854907Y92303248D01*
X34422603Y92302752D01*
X34947275Y92519543D01*
X35150341Y92722255D01*
X35851861Y92722255D01*
X35925995Y92476136D01*
X36463223Y92283035D01*
X37033454Y92310222D01*
X37434005Y92476136D01*
X37508139Y92722255D01*
X36680000Y93550395D01*
X35851861Y92722255D01*
X35150341Y92722255D01*
X35349047Y92920614D01*
X35399123Y93041210D01*
X35426136Y92975995D01*
X35672255Y92901861D01*
X36500395Y93730000D01*
X36859605Y93730000D01*
X37687745Y92901861D01*
X37933864Y92975995D01*
X38126965Y93513223D01*
X38099778Y94083454D01*
X37933864Y94484005D01*
X37687745Y94558139D01*
X36859605Y93730000D01*
X36500395Y93730000D01*
X35672255Y94558139D01*
X35426136Y94484005D01*
X35401169Y94414544D01*
X35350457Y94537275D01*
X34949386Y94939047D01*
X34828790Y94989123D01*
X34894005Y95016136D01*
X34968139Y95262255D01*
X35851861Y95262255D01*
X35925995Y95016136D01*
X35967709Y95001142D01*
X35925995Y94983864D01*
X35851861Y94737745D01*
X36680000Y93909605D01*
X37508139Y94737745D01*
X37434005Y94983864D01*
X37392291Y94998858D01*
X37434005Y95016136D01*
X37508139Y95262255D01*
X36680000Y96090395D01*
X35851861Y95262255D01*
X34968139Y95262255D01*
X34140000Y96090395D01*
X33311861Y95262255D01*
X33385995Y95016136D01*
X33455456Y94991169D01*
X33332725Y94940457D01*
X32930953Y94539386D01*
X32870119Y94392882D01*
X32810457Y94537275D01*
X32409386Y94939047D01*
X32288790Y94989123D01*
X32354005Y95016136D01*
X32428139Y95262255D01*
X31600000Y96090395D01*
X30771861Y95262255D01*
X30845995Y95016136D01*
X30915456Y94991169D01*
X30792725Y94940457D01*
X30390953Y94539386D01*
X30330119Y94392882D01*
X30270457Y94537275D01*
X29869386Y94939047D01*
X29748790Y94989123D01*
X29814005Y95016136D01*
X29888139Y95262255D01*
X29060000Y96090395D01*
X28231861Y95262255D01*
X28305995Y95016136D01*
X28375456Y94991169D01*
X28252725Y94940457D01*
X27850953Y94539386D01*
X27790119Y94392882D01*
X27730457Y94537275D01*
X27329386Y94939047D01*
X27208790Y94989123D01*
X27274005Y95016136D01*
X27348139Y95262255D01*
X26520000Y96090395D01*
X25691861Y95262255D01*
X25765995Y95016136D01*
X25835456Y94991169D01*
X25712725Y94940457D01*
X25310953Y94539386D01*
X25250119Y94392882D01*
X25190457Y94537275D01*
X24789386Y94939047D01*
X24668790Y94989123D01*
X24734005Y95016136D01*
X24808139Y95262255D01*
X23980000Y96090395D01*
X23151861Y95262255D01*
X23225995Y95016136D01*
X23295456Y94991169D01*
X23172725Y94940457D01*
X22770953Y94539386D01*
X22710119Y94392882D01*
X22650457Y94537275D01*
X22249386Y94939047D01*
X22128790Y94989123D01*
X22194005Y95016136D01*
X22268139Y95262255D01*
X21440000Y96090395D01*
X20611861Y95262255D01*
X20685995Y95016136D01*
X20755456Y94991169D01*
X20632725Y94940457D01*
X20230953Y94539386D01*
X20170119Y94392882D01*
X20110457Y94537275D01*
X19709386Y94939047D01*
X19588790Y94989123D01*
X19654005Y95016136D01*
X19728139Y95262255D01*
X18900000Y96090395D01*
X18071861Y95262255D01*
X18145995Y95016136D01*
X18215456Y94991169D01*
X18092725Y94940457D01*
X17690953Y94539386D01*
X17630119Y94392882D01*
X17570457Y94537275D01*
X17169386Y94939047D01*
X17048790Y94989123D01*
X17114005Y95016136D01*
X17188139Y95262255D01*
X16360000Y96090395D01*
X15531861Y95262255D01*
X15605995Y95016136D01*
X15675456Y94991169D01*
X15552725Y94940457D01*
X15150953Y94539386D01*
X15100877Y94418790D01*
X15073864Y94484005D01*
X14827745Y94558139D01*
X13999605Y93730000D01*
X13640395Y93730000D01*
X12812255Y94558139D01*
X12566136Y94484005D01*
X12373035Y93946777D01*
X8165086Y93946777D01*
X8326421Y94335315D01*
X8327229Y95262255D01*
X12991861Y95262255D01*
X13065995Y95016136D01*
X13107709Y95001142D01*
X13065995Y94983864D01*
X12991861Y94737745D01*
X13820000Y93909605D01*
X14648139Y94737745D01*
X14574005Y94983864D01*
X14532291Y94998858D01*
X14574005Y95016136D01*
X14648139Y95262255D01*
X13820000Y96090395D01*
X12991861Y95262255D01*
X8327229Y95262255D01*
X8327576Y95658878D01*
X7985496Y96486777D01*
X12373035Y96486777D01*
X12400222Y95916546D01*
X12566136Y95515995D01*
X12812255Y95441861D01*
X13640395Y96270000D01*
X13999605Y96270000D01*
X14827745Y95441861D01*
X15073864Y95515995D01*
X15088858Y95557709D01*
X15106136Y95515995D01*
X15352255Y95441861D01*
X16180395Y96270000D01*
X16539605Y96270000D01*
X17367745Y95441861D01*
X17613864Y95515995D01*
X17628858Y95557709D01*
X17646136Y95515995D01*
X17892255Y95441861D01*
X18720395Y96270000D01*
X19079605Y96270000D01*
X19907745Y95441861D01*
X20153864Y95515995D01*
X20168858Y95557709D01*
X20186136Y95515995D01*
X20432255Y95441861D01*
X21260395Y96270000D01*
X21619605Y96270000D01*
X22447745Y95441861D01*
X22693864Y95515995D01*
X22708858Y95557709D01*
X22726136Y95515995D01*
X22972255Y95441861D01*
X23800395Y96270000D01*
X24159605Y96270000D01*
X24987745Y95441861D01*
X25233864Y95515995D01*
X25248858Y95557709D01*
X25266136Y95515995D01*
X25512255Y95441861D01*
X26340395Y96270000D01*
X26699605Y96270000D01*
X27527745Y95441861D01*
X27773864Y95515995D01*
X27788858Y95557709D01*
X27806136Y95515995D01*
X28052255Y95441861D01*
X28880395Y96270000D01*
X29239605Y96270000D01*
X30067745Y95441861D01*
X30313864Y95515995D01*
X30328858Y95557709D01*
X30346136Y95515995D01*
X30592255Y95441861D01*
X31420395Y96270000D01*
X31779605Y96270000D01*
X32607745Y95441861D01*
X32853864Y95515995D01*
X32868858Y95557709D01*
X32886136Y95515995D01*
X33132255Y95441861D01*
X33960395Y96270000D01*
X34319605Y96270000D01*
X35147745Y95441861D01*
X35393864Y95515995D01*
X35408858Y95557709D01*
X35426136Y95515995D01*
X35672255Y95441861D01*
X36500395Y96270000D01*
X36859605Y96270000D01*
X37687745Y95441861D01*
X37933864Y95515995D01*
X38126965Y96053223D01*
X38099778Y96623454D01*
X37933864Y97024005D01*
X37687745Y97098139D01*
X36859605Y96270000D01*
X36500395Y96270000D01*
X35672255Y97098139D01*
X35426136Y97024005D01*
X35411142Y96982291D01*
X35393864Y97024005D01*
X35147745Y97098139D01*
X34319605Y96270000D01*
X33960395Y96270000D01*
X33132255Y97098139D01*
X32886136Y97024005D01*
X32871142Y96982291D01*
X32853864Y97024005D01*
X32607745Y97098139D01*
X31779605Y96270000D01*
X31420395Y96270000D01*
X30592255Y97098139D01*
X30346136Y97024005D01*
X30331142Y96982291D01*
X30313864Y97024005D01*
X30067745Y97098139D01*
X29239605Y96270000D01*
X28880395Y96270000D01*
X28052255Y97098139D01*
X27806136Y97024005D01*
X27791142Y96982291D01*
X27773864Y97024005D01*
X27527745Y97098139D01*
X26699605Y96270000D01*
X26340395Y96270000D01*
X25512255Y97098139D01*
X25266136Y97024005D01*
X25251142Y96982291D01*
X25233864Y97024005D01*
X24987745Y97098139D01*
X24159605Y96270000D01*
X23800395Y96270000D01*
X22972255Y97098139D01*
X22726136Y97024005D01*
X22711142Y96982291D01*
X22693864Y97024005D01*
X22447745Y97098139D01*
X21619605Y96270000D01*
X21260395Y96270000D01*
X20432255Y97098139D01*
X20186136Y97024005D01*
X20171142Y96982291D01*
X20153864Y97024005D01*
X19907745Y97098139D01*
X19079605Y96270000D01*
X18720395Y96270000D01*
X17892255Y97098139D01*
X17646136Y97024005D01*
X17631142Y96982291D01*
X17613864Y97024005D01*
X17367745Y97098139D01*
X16539605Y96270000D01*
X16180395Y96270000D01*
X15352255Y97098139D01*
X15106136Y97024005D01*
X15091142Y96982291D01*
X15073864Y97024005D01*
X14827745Y97098139D01*
X13999605Y96270000D01*
X13640395Y96270000D01*
X12812255Y97098139D01*
X12566136Y97024005D01*
X12373035Y96486777D01*
X7985496Y96486777D01*
X7822138Y96882132D01*
X7427216Y97277745D01*
X12991861Y97277745D01*
X13820000Y96449605D01*
X14648139Y97277745D01*
X15531861Y97277745D01*
X16360000Y96449605D01*
X17188139Y97277745D01*
X18071861Y97277745D01*
X18900000Y96449605D01*
X19728139Y97277745D01*
X20611861Y97277745D01*
X21440000Y96449605D01*
X22268139Y97277745D01*
X23151861Y97277745D01*
X23980000Y96449605D01*
X24808139Y97277745D01*
X25691861Y97277745D01*
X26520000Y96449605D01*
X27348139Y97277745D01*
X28231861Y97277745D01*
X29060000Y96449605D01*
X29888139Y97277745D01*
X30771861Y97277745D01*
X31600000Y96449605D01*
X32428139Y97277745D01*
X33311861Y97277745D01*
X34140000Y96449605D01*
X34968139Y97277745D01*
X35851861Y97277745D01*
X36680000Y96449605D01*
X37508139Y97277745D01*
X37434005Y97523864D01*
X36896777Y97716965D01*
X36326546Y97689778D01*
X35925995Y97523864D01*
X35851861Y97277745D01*
X34968139Y97277745D01*
X34894005Y97523864D01*
X34356777Y97716965D01*
X33786546Y97689778D01*
X33385995Y97523864D01*
X33311861Y97277745D01*
X32428139Y97277745D01*
X32354005Y97523864D01*
X31816777Y97716965D01*
X31246546Y97689778D01*
X30845995Y97523864D01*
X30771861Y97277745D01*
X29888139Y97277745D01*
X29814005Y97523864D01*
X29276777Y97716965D01*
X28706546Y97689778D01*
X28305995Y97523864D01*
X28231861Y97277745D01*
X27348139Y97277745D01*
X27274005Y97523864D01*
X26736777Y97716965D01*
X26166546Y97689778D01*
X25765995Y97523864D01*
X25691861Y97277745D01*
X24808139Y97277745D01*
X24734005Y97523864D01*
X24196777Y97716965D01*
X23626546Y97689778D01*
X23225995Y97523864D01*
X23151861Y97277745D01*
X22268139Y97277745D01*
X22194005Y97523864D01*
X21656777Y97716965D01*
X21086546Y97689778D01*
X20685995Y97523864D01*
X20611861Y97277745D01*
X19728139Y97277745D01*
X19654005Y97523864D01*
X19116777Y97716965D01*
X18546546Y97689778D01*
X18145995Y97523864D01*
X18071861Y97277745D01*
X17188139Y97277745D01*
X17114005Y97523864D01*
X16576777Y97716965D01*
X16006546Y97689778D01*
X15605995Y97523864D01*
X15531861Y97277745D01*
X14648139Y97277745D01*
X14574005Y97523864D01*
X14036777Y97716965D01*
X13466546Y97689778D01*
X13065995Y97523864D01*
X12991861Y97277745D01*
X7427216Y97277745D01*
X6887055Y97818849D01*
X5664685Y98326421D01*
X4341122Y98327576D01*
X3117868Y97822138D01*
X2181151Y96887055D01*
X1673579Y95664685D01*
X1672424Y94341122D01*
X1127000Y94341122D01*
X1127000Y98873000D01*
X98873000Y98873000D01*
X98873000Y1127000D01*
G36*
X26623000Y77750000D02*
X26623000Y70250000D01*
X26708788Y69818716D01*
X26953091Y69453091D01*
X34674619Y61731563D01*
X34325050Y61876717D01*
X33677789Y61877282D01*
X33079582Y61630108D01*
X32826032Y61377000D01*
X25627000Y61377000D01*
X25627000Y76783182D01*
X26630246Y77786428D01*
X26623000Y77750000D01*
X26623000Y77750000D01*
G37*
X26623000Y77750000D02*
X26623000Y70250000D01*
X26708788Y69818716D01*
X26953091Y69453091D01*
X34674619Y61731563D01*
X34325050Y61876717D01*
X33677789Y61877282D01*
X33079582Y61630108D01*
X32826032Y61377000D01*
X25627000Y61377000D01*
X25627000Y76783182D01*
X26630246Y77786428D01*
X26623000Y77750000D01*
M02*
