G04 #@! TF.FileFunction,Legend,Bot*
%FSLAX46Y46*%
G04 Gerber Fmt 4.6, Leading zero omitted, Abs format (unit mm)*
G04 Created by KiCad (PCBNEW 4.0.5) date 03/22/17 11:59:18*
%MOMM*%
%LPD*%
G01*
G04 APERTURE LIST*
%ADD10C,0.150000*%
%ADD11C,0.300000*%
%ADD12C,0.200000*%
%ADD13C,0.100000*%
G04 APERTURE END LIST*
D10*
D11*
X21821429Y80157143D02*
X23321429Y80157143D01*
X21821429Y80871429D02*
X23321429Y80871429D01*
X21821429Y81728572D01*
X23321429Y81728572D01*
X21821429Y84300001D02*
X21821429Y83585715D01*
X23321429Y83585715D01*
X22607143Y84800001D02*
X22607143Y85300001D01*
X21821429Y85514287D02*
X21821429Y84800001D01*
X23321429Y84800001D01*
X23321429Y85514287D01*
X22607143Y86657144D02*
X22607143Y86157144D01*
X21821429Y86157144D02*
X23321429Y86157144D01*
X23321429Y86871430D01*
X23321429Y87228572D02*
X23321429Y88085715D01*
X21821429Y87657144D02*
X23321429Y87657144D01*
X23178571Y89657143D02*
X23250000Y89728572D01*
X23321429Y89871429D01*
X23321429Y90228572D01*
X23250000Y90371429D01*
X23178571Y90442858D01*
X23035714Y90514286D01*
X22892857Y90514286D01*
X22678571Y90442858D01*
X21821429Y89585715D01*
X21821429Y90514286D01*
X18221429Y78842857D02*
X19721429Y78842857D01*
X18221429Y79557143D02*
X19721429Y79557143D01*
X18221429Y80414286D01*
X19721429Y80414286D01*
X18221429Y83128572D02*
X18935714Y82628572D01*
X18221429Y82271429D02*
X19721429Y82271429D01*
X19721429Y82842857D01*
X19650000Y82985715D01*
X19578571Y83057143D01*
X19435714Y83128572D01*
X19221429Y83128572D01*
X19078571Y83057143D01*
X19007143Y82985715D01*
X18935714Y82842857D01*
X18935714Y82271429D01*
X18221429Y83771429D02*
X19721429Y83771429D01*
X19650000Y85271429D02*
X19721429Y85128572D01*
X19721429Y84914286D01*
X19650000Y84700001D01*
X19507143Y84557143D01*
X19364286Y84485715D01*
X19078571Y84414286D01*
X18864286Y84414286D01*
X18578571Y84485715D01*
X18435714Y84557143D01*
X18292857Y84700001D01*
X18221429Y84914286D01*
X18221429Y85057143D01*
X18292857Y85271429D01*
X18364286Y85342858D01*
X18864286Y85342858D01*
X18864286Y85057143D01*
X18221429Y85985715D02*
X19721429Y85985715D01*
X19007143Y85985715D02*
X19007143Y86842858D01*
X18221429Y86842858D02*
X19721429Y86842858D01*
X19721429Y87342858D02*
X19721429Y88200001D01*
X18221429Y87771430D02*
X19721429Y87771430D01*
X19578571Y89771429D02*
X19650000Y89842858D01*
X19721429Y89985715D01*
X19721429Y90342858D01*
X19650000Y90485715D01*
X19578571Y90557144D01*
X19435714Y90628572D01*
X19292857Y90628572D01*
X19078571Y90557144D01*
X18221429Y89700001D01*
X18221429Y90628572D01*
X27321429Y78942857D02*
X28821429Y78942857D01*
X27321429Y79657143D02*
X28821429Y79657143D01*
X27321429Y80514286D01*
X28821429Y80514286D01*
X27321429Y83228572D02*
X28035714Y82728572D01*
X27321429Y82371429D02*
X28821429Y82371429D01*
X28821429Y82942857D01*
X28750000Y83085715D01*
X28678571Y83157143D01*
X28535714Y83228572D01*
X28321429Y83228572D01*
X28178571Y83157143D01*
X28107143Y83085715D01*
X28035714Y82942857D01*
X28035714Y82371429D01*
X27321429Y83871429D02*
X28821429Y83871429D01*
X28750000Y85371429D02*
X28821429Y85228572D01*
X28821429Y85014286D01*
X28750000Y84800001D01*
X28607143Y84657143D01*
X28464286Y84585715D01*
X28178571Y84514286D01*
X27964286Y84514286D01*
X27678571Y84585715D01*
X27535714Y84657143D01*
X27392857Y84800001D01*
X27321429Y85014286D01*
X27321429Y85157143D01*
X27392857Y85371429D01*
X27464286Y85442858D01*
X27964286Y85442858D01*
X27964286Y85157143D01*
X27321429Y86085715D02*
X28821429Y86085715D01*
X28107143Y86085715D02*
X28107143Y86942858D01*
X27321429Y86942858D02*
X28821429Y86942858D01*
X28821429Y87442858D02*
X28821429Y88300001D01*
X27321429Y87871430D02*
X28821429Y87871430D01*
X27321429Y90728572D02*
X27321429Y89871429D01*
X27321429Y90300001D02*
X28821429Y90300001D01*
X28607143Y90157144D01*
X28464286Y90014286D01*
X28392857Y89871429D01*
X32321429Y80357143D02*
X33821429Y80357143D01*
X32321429Y81071429D02*
X33821429Y81071429D01*
X32321429Y81928572D01*
X33821429Y81928572D01*
X32321429Y84500001D02*
X32321429Y83785715D01*
X33821429Y83785715D01*
X33107143Y85000001D02*
X33107143Y85500001D01*
X32321429Y85714287D02*
X32321429Y85000001D01*
X33821429Y85000001D01*
X33821429Y85714287D01*
X33107143Y86857144D02*
X33107143Y86357144D01*
X32321429Y86357144D02*
X33821429Y86357144D01*
X33821429Y87071430D01*
X33821429Y87428572D02*
X33821429Y88285715D01*
X32321429Y87857144D02*
X33821429Y87857144D01*
X32321429Y90714286D02*
X32321429Y89857143D01*
X32321429Y90285715D02*
X33821429Y90285715D01*
X33607143Y90142858D01*
X33464286Y90000000D01*
X33392857Y89857143D01*
X87321429Y21521429D02*
X87035715Y21521429D01*
X86892857Y21450000D01*
X86750000Y21307143D01*
X86678572Y21021429D01*
X86678572Y20521429D01*
X86750000Y20235714D01*
X86892857Y20092857D01*
X87035715Y20021429D01*
X87321429Y20021429D01*
X87464286Y20092857D01*
X87607143Y20235714D01*
X87678572Y20521429D01*
X87678572Y21021429D01*
X87607143Y21307143D01*
X87464286Y21450000D01*
X87321429Y21521429D01*
X86035714Y21521429D02*
X86035714Y20307143D01*
X85964286Y20164286D01*
X85892857Y20092857D01*
X85750000Y20021429D01*
X85464286Y20021429D01*
X85321428Y20092857D01*
X85250000Y20164286D01*
X85178571Y20307143D01*
X85178571Y21521429D01*
X84678571Y21521429D02*
X83821428Y21521429D01*
X84249999Y20021429D02*
X84249999Y21521429D01*
X83321428Y20021429D02*
X83321428Y21521429D01*
X82750000Y21521429D01*
X82607142Y21450000D01*
X82535714Y21378571D01*
X82464285Y21235714D01*
X82464285Y21021429D01*
X82535714Y20878571D01*
X82607142Y20807143D01*
X82750000Y20735714D01*
X83321428Y20735714D01*
X81821428Y21521429D02*
X81821428Y20307143D01*
X81750000Y20164286D01*
X81678571Y20092857D01*
X81535714Y20021429D01*
X81250000Y20021429D01*
X81107142Y20092857D01*
X81035714Y20164286D01*
X80964285Y20307143D01*
X80964285Y21521429D01*
X80464285Y21521429D02*
X79607142Y21521429D01*
X80035713Y20021429D02*
X80035713Y21521429D01*
X78321428Y20021429D02*
X79178571Y20021429D01*
X78749999Y20021429D02*
X78749999Y21521429D01*
X78892856Y21307143D01*
X79035714Y21164286D01*
X79178571Y21092857D01*
X85842856Y15921429D02*
X86557142Y15921429D01*
X86557142Y17421429D01*
X85342856Y16707143D02*
X84842856Y16707143D01*
X84628570Y15921429D02*
X85342856Y15921429D01*
X85342856Y17421429D01*
X84628570Y17421429D01*
X83485713Y16707143D02*
X83985713Y16707143D01*
X83985713Y15921429D02*
X83985713Y17421429D01*
X83271427Y17421429D01*
X82914285Y17421429D02*
X82057142Y17421429D01*
X82485713Y15921429D02*
X82485713Y17421429D01*
X80771428Y15921429D02*
X81628571Y15921429D01*
X81199999Y15921429D02*
X81199999Y17421429D01*
X81342856Y17207143D01*
X81485714Y17064286D01*
X81628571Y16992857D01*
X85614285Y9521429D02*
X86114285Y10235714D01*
X86471428Y9521429D02*
X86471428Y11021429D01*
X85900000Y11021429D01*
X85757142Y10950000D01*
X85685714Y10878571D01*
X85614285Y10735714D01*
X85614285Y10521429D01*
X85685714Y10378571D01*
X85757142Y10307143D01*
X85900000Y10235714D01*
X86471428Y10235714D01*
X84971428Y9521429D02*
X84971428Y11021429D01*
X83471428Y10950000D02*
X83614285Y11021429D01*
X83828571Y11021429D01*
X84042856Y10950000D01*
X84185714Y10807143D01*
X84257142Y10664286D01*
X84328571Y10378571D01*
X84328571Y10164286D01*
X84257142Y9878571D01*
X84185714Y9735714D01*
X84042856Y9592857D01*
X83828571Y9521429D01*
X83685714Y9521429D01*
X83471428Y9592857D01*
X83399999Y9664286D01*
X83399999Y10164286D01*
X83685714Y10164286D01*
X82757142Y9521429D02*
X82757142Y11021429D01*
X82757142Y10307143D02*
X81899999Y10307143D01*
X81899999Y9521429D02*
X81899999Y11021429D01*
X81399999Y11021429D02*
X80542856Y11021429D01*
X80971427Y9521429D02*
X80971427Y11021429D01*
X79257142Y9521429D02*
X80114285Y9521429D01*
X79685713Y9521429D02*
X79685713Y11021429D01*
X79828570Y10807143D01*
X79971428Y10664286D01*
X80114285Y10592857D01*
X85642857Y4450000D02*
X85785714Y4521429D01*
X86000000Y4521429D01*
X86214285Y4450000D01*
X86357143Y4307143D01*
X86428571Y4164286D01*
X86500000Y3878571D01*
X86500000Y3664286D01*
X86428571Y3378571D01*
X86357143Y3235714D01*
X86214285Y3092857D01*
X86000000Y3021429D01*
X85857143Y3021429D01*
X85642857Y3092857D01*
X85571428Y3164286D01*
X85571428Y3664286D01*
X85857143Y3664286D01*
X84928571Y3021429D02*
X84928571Y4521429D01*
X84071428Y3021429D01*
X84071428Y4521429D01*
X83357142Y3021429D02*
X83357142Y4521429D01*
X82999999Y4521429D01*
X82785714Y4450000D01*
X82642856Y4307143D01*
X82571428Y4164286D01*
X82499999Y3878571D01*
X82499999Y3664286D01*
X82571428Y3378571D01*
X82642856Y3235714D01*
X82785714Y3092857D01*
X82999999Y3021429D01*
X83357142Y3021429D01*
X67642857Y4550000D02*
X67785714Y4621429D01*
X68000000Y4621429D01*
X68214285Y4550000D01*
X68357143Y4407143D01*
X68428571Y4264286D01*
X68500000Y3978571D01*
X68500000Y3764286D01*
X68428571Y3478571D01*
X68357143Y3335714D01*
X68214285Y3192857D01*
X68000000Y3121429D01*
X67857143Y3121429D01*
X67642857Y3192857D01*
X67571428Y3264286D01*
X67571428Y3764286D01*
X67857143Y3764286D01*
X66928571Y3121429D02*
X66928571Y4621429D01*
X66071428Y3121429D01*
X66071428Y4621429D01*
X65357142Y3121429D02*
X65357142Y4621429D01*
X64999999Y4621429D01*
X64785714Y4550000D01*
X64642856Y4407143D01*
X64571428Y4264286D01*
X64499999Y3978571D01*
X64499999Y3764286D01*
X64571428Y3478571D01*
X64642856Y3335714D01*
X64785714Y3192857D01*
X64999999Y3121429D01*
X65357142Y3121429D01*
X67714285Y9521429D02*
X68214285Y10235714D01*
X68571428Y9521429D02*
X68571428Y11021429D01*
X68000000Y11021429D01*
X67857142Y10950000D01*
X67785714Y10878571D01*
X67714285Y10735714D01*
X67714285Y10521429D01*
X67785714Y10378571D01*
X67857142Y10307143D01*
X68000000Y10235714D01*
X68571428Y10235714D01*
X67071428Y9521429D02*
X67071428Y11021429D01*
X65571428Y10950000D02*
X65714285Y11021429D01*
X65928571Y11021429D01*
X66142856Y10950000D01*
X66285714Y10807143D01*
X66357142Y10664286D01*
X66428571Y10378571D01*
X66428571Y10164286D01*
X66357142Y9878571D01*
X66285714Y9735714D01*
X66142856Y9592857D01*
X65928571Y9521429D01*
X65785714Y9521429D01*
X65571428Y9592857D01*
X65499999Y9664286D01*
X65499999Y10164286D01*
X65785714Y10164286D01*
X64857142Y9521429D02*
X64857142Y11021429D01*
X64857142Y10307143D02*
X63999999Y10307143D01*
X63999999Y9521429D02*
X63999999Y11021429D01*
X63499999Y11021429D02*
X62642856Y11021429D01*
X63071427Y9521429D02*
X63071427Y11021429D01*
X62214285Y10878571D02*
X62142856Y10950000D01*
X61999999Y11021429D01*
X61642856Y11021429D01*
X61499999Y10950000D01*
X61428570Y10878571D01*
X61357142Y10735714D01*
X61357142Y10592857D01*
X61428570Y10378571D01*
X62285713Y9521429D01*
X61357142Y9521429D01*
X67842856Y15921429D02*
X68557142Y15921429D01*
X68557142Y17421429D01*
X67342856Y16707143D02*
X66842856Y16707143D01*
X66628570Y15921429D02*
X67342856Y15921429D01*
X67342856Y17421429D01*
X66628570Y17421429D01*
X65485713Y16707143D02*
X65985713Y16707143D01*
X65985713Y15921429D02*
X65985713Y17421429D01*
X65271427Y17421429D01*
X64914285Y17421429D02*
X64057142Y17421429D01*
X64485713Y15921429D02*
X64485713Y17421429D01*
X63628571Y17278571D02*
X63557142Y17350000D01*
X63414285Y17421429D01*
X63057142Y17421429D01*
X62914285Y17350000D01*
X62842856Y17278571D01*
X62771428Y17135714D01*
X62771428Y16992857D01*
X62842856Y16778571D01*
X63699999Y15921429D01*
X62771428Y15921429D01*
X69321429Y21621429D02*
X69035715Y21621429D01*
X68892857Y21550000D01*
X68750000Y21407143D01*
X68678572Y21121429D01*
X68678572Y20621429D01*
X68750000Y20335714D01*
X68892857Y20192857D01*
X69035715Y20121429D01*
X69321429Y20121429D01*
X69464286Y20192857D01*
X69607143Y20335714D01*
X69678572Y20621429D01*
X69678572Y21121429D01*
X69607143Y21407143D01*
X69464286Y21550000D01*
X69321429Y21621429D01*
X68035714Y21621429D02*
X68035714Y20407143D01*
X67964286Y20264286D01*
X67892857Y20192857D01*
X67750000Y20121429D01*
X67464286Y20121429D01*
X67321428Y20192857D01*
X67250000Y20264286D01*
X67178571Y20407143D01*
X67178571Y21621429D01*
X66678571Y21621429D02*
X65821428Y21621429D01*
X66249999Y20121429D02*
X66249999Y21621429D01*
X65321428Y20121429D02*
X65321428Y21621429D01*
X64750000Y21621429D01*
X64607142Y21550000D01*
X64535714Y21478571D01*
X64464285Y21335714D01*
X64464285Y21121429D01*
X64535714Y20978571D01*
X64607142Y20907143D01*
X64750000Y20835714D01*
X65321428Y20835714D01*
X63821428Y21621429D02*
X63821428Y20407143D01*
X63750000Y20264286D01*
X63678571Y20192857D01*
X63535714Y20121429D01*
X63250000Y20121429D01*
X63107142Y20192857D01*
X63035714Y20264286D01*
X62964285Y20407143D01*
X62964285Y21621429D01*
X62464285Y21621429D02*
X61607142Y21621429D01*
X62035713Y20121429D02*
X62035713Y21621429D01*
X61178571Y21478571D02*
X61107142Y21550000D01*
X60964285Y21621429D01*
X60607142Y21621429D01*
X60464285Y21550000D01*
X60392856Y21478571D01*
X60321428Y21335714D01*
X60321428Y21192857D01*
X60392856Y20978571D01*
X61249999Y20121429D01*
X60321428Y20121429D01*
D12*
X74500000Y95500000D02*
X74500000Y95000000D01*
D11*
X60371429Y92407143D02*
X61514286Y92407143D01*
X62300000Y92978571D02*
X62585715Y92978571D01*
X62728572Y92907143D01*
X62800000Y92835714D01*
X62942858Y92621429D01*
X63014286Y92335714D01*
X63014286Y91764286D01*
X62942858Y91621429D01*
X62871429Y91550000D01*
X62728572Y91478571D01*
X62442858Y91478571D01*
X62300000Y91550000D01*
X62228572Y91621429D01*
X62157143Y91764286D01*
X62157143Y92121429D01*
X62228572Y92264286D01*
X62300000Y92335714D01*
X62442858Y92407143D01*
X62728572Y92407143D01*
X62871429Y92335714D01*
X62942858Y92264286D01*
X63014286Y92121429D01*
X63442857Y91478571D02*
X63942857Y92978571D01*
X64442857Y91478571D01*
X84471429Y92407143D02*
X85614286Y92407143D01*
X85042857Y92978571D02*
X85042857Y91835714D01*
X86400000Y92978571D02*
X86685715Y92978571D01*
X86828572Y92907143D01*
X86900000Y92835714D01*
X87042858Y92621429D01*
X87114286Y92335714D01*
X87114286Y91764286D01*
X87042858Y91621429D01*
X86971429Y91550000D01*
X86828572Y91478571D01*
X86542858Y91478571D01*
X86400000Y91550000D01*
X86328572Y91621429D01*
X86257143Y91764286D01*
X86257143Y92121429D01*
X86328572Y92264286D01*
X86400000Y92335714D01*
X86542858Y92407143D01*
X86828572Y92407143D01*
X86971429Y92335714D01*
X87042858Y92264286D01*
X87114286Y92121429D01*
X87542857Y91478571D02*
X88042857Y92978571D01*
X88542857Y91478571D01*
D12*
X71800000Y95500000D02*
X77300000Y95500000D01*
D11*
X73357143Y93250000D02*
X73214286Y93178571D01*
X73000000Y93178571D01*
X72785715Y93250000D01*
X72642857Y93392857D01*
X72571429Y93535714D01*
X72500000Y93821429D01*
X72500000Y94035714D01*
X72571429Y94321429D01*
X72642857Y94464286D01*
X72785715Y94607143D01*
X73000000Y94678571D01*
X73142857Y94678571D01*
X73357143Y94607143D01*
X73428572Y94535714D01*
X73428572Y94035714D01*
X73142857Y94035714D01*
X74071429Y94678571D02*
X74071429Y93178571D01*
X74928572Y94678571D01*
X74928572Y93178571D01*
X75642858Y94678571D02*
X75642858Y93178571D01*
X76000001Y93178571D01*
X76214286Y93250000D01*
X76357144Y93392857D01*
X76428572Y93535714D01*
X76500001Y93821429D01*
X76500001Y94035714D01*
X76428572Y94321429D01*
X76357144Y94464286D01*
X76214286Y94607143D01*
X76000001Y94678571D01*
X75642858Y94678571D01*
X66964286Y89878571D02*
X66964286Y88378571D01*
X67535714Y88378571D01*
X67678572Y88450000D01*
X67750000Y88521429D01*
X67821429Y88664286D01*
X67821429Y88878571D01*
X67750000Y89021429D01*
X67678572Y89092857D01*
X67535714Y89164286D01*
X66964286Y89164286D01*
X68678572Y89878571D02*
X68535714Y89807143D01*
X68464286Y89735714D01*
X68392857Y89592857D01*
X68392857Y89164286D01*
X68464286Y89021429D01*
X68535714Y88950000D01*
X68678572Y88878571D01*
X68892857Y88878571D01*
X69035714Y88950000D01*
X69107143Y89021429D01*
X69178572Y89164286D01*
X69178572Y89592857D01*
X69107143Y89735714D01*
X69035714Y89807143D01*
X68892857Y89878571D01*
X68678572Y89878571D01*
X69678572Y88878571D02*
X69964286Y89878571D01*
X70250000Y89164286D01*
X70535715Y89878571D01*
X70821429Y88878571D01*
X71964286Y89807143D02*
X71821429Y89878571D01*
X71535715Y89878571D01*
X71392858Y89807143D01*
X71321429Y89664286D01*
X71321429Y89092857D01*
X71392858Y88950000D01*
X71535715Y88878571D01*
X71821429Y88878571D01*
X71964286Y88950000D01*
X72035715Y89092857D01*
X72035715Y89235714D01*
X71321429Y89378571D01*
X72678572Y89878571D02*
X72678572Y88878571D01*
X72678572Y89164286D02*
X72750000Y89021429D01*
X72821429Y88950000D01*
X72964286Y88878571D01*
X73107143Y88878571D01*
X74750000Y89307143D02*
X75892857Y89307143D01*
X75321428Y89878571D02*
X75321428Y88735714D01*
X77678571Y88307143D02*
X76392857Y90235714D01*
X78178572Y89307143D02*
X79321429Y89307143D01*
X80107143Y89878571D02*
X80392858Y89878571D01*
X80535715Y89807143D01*
X80607143Y89735714D01*
X80750001Y89521429D01*
X80821429Y89235714D01*
X80821429Y88664286D01*
X80750001Y88521429D01*
X80678572Y88450000D01*
X80535715Y88378571D01*
X80250001Y88378571D01*
X80107143Y88450000D01*
X80035715Y88521429D01*
X79964286Y88664286D01*
X79964286Y89021429D01*
X80035715Y89164286D01*
X80107143Y89235714D01*
X80250001Y89307143D01*
X80535715Y89307143D01*
X80678572Y89235714D01*
X80750001Y89164286D01*
X80821429Y89021429D01*
X81250000Y88378571D02*
X81750000Y89878571D01*
X82250000Y88378571D01*
D12*
X39099726Y93900000D02*
X38499726Y93900000D01*
X39099726Y98500000D02*
X39099726Y93900000D01*
X36799726Y98500000D02*
X39099726Y98500000D01*
X11450000Y93900000D02*
X12050000Y93900000D01*
X11450000Y98500000D02*
X11450000Y93900000D01*
X13750000Y98500000D02*
X11450000Y98500000D01*
X36850000Y97800000D02*
X36850000Y98400000D01*
X34150000Y97900000D02*
X34150000Y98500000D01*
X31650000Y97900000D02*
X31650000Y98500000D01*
X29050000Y97800000D02*
X29050000Y98400000D01*
X21450000Y97700000D02*
X21450000Y98300000D01*
X18950000Y97700000D02*
X18950000Y98300000D01*
X16350000Y97800000D02*
X16350000Y98400000D01*
X36850000Y98500000D02*
X27850000Y98500000D01*
X13750000Y97900000D02*
X13750000Y98500000D01*
X22750000Y98500000D02*
X13750000Y98500000D01*
D11*
X24157143Y97750000D02*
X24014286Y97678571D01*
X23800000Y97678571D01*
X23585715Y97750000D01*
X23442857Y97892857D01*
X23371429Y98035714D01*
X23300000Y98321429D01*
X23300000Y98535714D01*
X23371429Y98821429D01*
X23442857Y98964286D01*
X23585715Y99107143D01*
X23800000Y99178571D01*
X23942857Y99178571D01*
X24157143Y99107143D01*
X24228572Y99035714D01*
X24228572Y98535714D01*
X23942857Y98535714D01*
X24871429Y99178571D02*
X24871429Y97678571D01*
X25728572Y99178571D01*
X25728572Y97678571D01*
X26442858Y99178571D02*
X26442858Y97678571D01*
X26800001Y97678571D01*
X27014286Y97750000D01*
X27157144Y97892857D01*
X27228572Y98035714D01*
X27300001Y98321429D01*
X27300001Y98535714D01*
X27228572Y98821429D01*
X27157144Y98964286D01*
X27014286Y99107143D01*
X26800001Y99178571D01*
X26442858Y99178571D01*
X18957143Y92471428D02*
X18957143Y91328571D01*
X19528571Y91900000D02*
X18385714Y91900000D01*
X15878572Y91907143D02*
X17021429Y91907143D01*
X23957143Y92471428D02*
X23957143Y91328571D01*
X24528571Y91900000D02*
X23385714Y91900000D01*
X20878572Y91907143D02*
X22021429Y91907143D01*
X29057143Y92471428D02*
X29057143Y91328571D01*
X29628571Y91900000D02*
X28485714Y91900000D01*
X25978572Y91907143D02*
X27121429Y91907143D01*
X31178572Y91907143D02*
X32321429Y91907143D01*
X34257143Y92471428D02*
X34257143Y91328571D01*
X34828571Y91900000D02*
X33685714Y91900000D01*
X40142857Y97178571D02*
X40142857Y95678571D01*
X40857143Y97178571D02*
X40857143Y95678571D01*
X41714286Y97178571D01*
X41714286Y95678571D01*
X42428572Y97178571D02*
X42428572Y95678571D01*
X43000000Y95678571D01*
X43142858Y95750000D01*
X43214286Y95821429D01*
X43285715Y95964286D01*
X43285715Y96178571D01*
X43214286Y96321429D01*
X43142858Y96392857D01*
X43000000Y96464286D01*
X42428572Y96464286D01*
X43928572Y95678571D02*
X43928572Y96892857D01*
X44000000Y97035714D01*
X44071429Y97107143D01*
X44214286Y97178571D01*
X44500000Y97178571D01*
X44642858Y97107143D01*
X44714286Y97035714D01*
X44785715Y96892857D01*
X44785715Y95678571D01*
X45285715Y95678571D02*
X46142858Y95678571D01*
X45714287Y97178571D02*
X45714287Y95678571D01*
X46571429Y97107143D02*
X46785715Y97178571D01*
X47142858Y97178571D01*
X47285715Y97107143D01*
X47357144Y97035714D01*
X47428572Y96892857D01*
X47428572Y96750000D01*
X47357144Y96607143D01*
X47285715Y96535714D01*
X47142858Y96464286D01*
X46857144Y96392857D01*
X46714286Y96321429D01*
X46642858Y96250000D01*
X46571429Y96107143D01*
X46571429Y95964286D01*
X46642858Y95821429D01*
X46714286Y95750000D01*
X46857144Y95678571D01*
X47214286Y95678571D01*
X47428572Y95750000D01*
D13*
X0Y100000000D02*
X100000000Y100000000D01*
X15000000Y0D02*
X0Y0D01*
X100000000Y0D02*
X15000000Y0D01*
X100000000Y100000000D02*
X100000000Y0D01*
X0Y0D02*
X0Y100000000D01*
M02*
