M48
;DRILL file {KiCad 4.0.5} date 03/22/17 11:59:19
;FORMAT={-:-/ absolute / metric / decimal}
FMAT,2
METRIC,TZ
T1C0.500
T2C0.800
T3C1.000
T4C1.500
T5C1.600
T6C1.800
T7C3.000
%
G90
G05
M71
T1
X1.5Y53.75
X1.543Y45.91
X1.75Y90.5
X1.75Y78.5
X2.25Y36.5
X3.25Y83.5
X3.25Y70.25
X3.402Y62.051
X4.Y21.
X4.75Y90.5
X5.75Y77.
X6.Y48.5
X6.5Y22.75
X6.75Y70.25
X7.Y26.75
X7.5Y91.75
X7.5Y36.25
X7.745Y79.976
X8.Y98.25
X8.5Y39.25
X9.Y17.25
X10.Y70.25
X10.75Y95.
X11.Y22.
X11.25Y61.75
X11.5Y53.75
X11.585Y83.481
X11.75Y91.25
X12.25Y33.5
X12.5Y49.5
X12.5Y27.5
X14.Y53.75
X14.25Y41.75
X14.5Y78.5
X14.5Y74.5
X14.5Y37.25
X14.5Y17.
X15.25Y83.5
X17.Y20.25
X17.5Y91.25
X17.5Y43.
X17.75Y58.5
X17.75Y49.
X18.Y62.25
X18.Y53.75
X18.25Y22.75
X18.5Y76.5
X19.25Y27.75
X19.75Y17.5
X20.25Y37.75
X20.75Y53.
X20.906Y78.896
X21.25Y74.25
X21.25Y62.5
X21.25Y45.75
X21.25Y32.5
X21.75Y20.25
X22.Y70.
X22.25Y31.25
X22.75Y91.25
X23.25Y55.
X24.25Y83.5
X24.5Y37.75
X24.5Y35.
X25.25Y91.25
X25.5Y49.
X25.5Y42.5
X26.Y76.5
X26.Y73.
X26.Y66.75
X26.Y15.75
X26.5Y20.25
X26.669Y83.481
X27.5Y10.25
X28.25Y91.25
X28.25Y37.75
X28.25Y29.5
X29.25Y26.5
X29.25Y1.75
X29.75Y42.5
X30.25Y73.5
X30.25Y62.
X30.25Y55.
X31.Y53.5
X31.Y16.5
X31.75Y22.
X32.75Y40.5
X33.25Y91.25
X33.75Y78.
X33.75Y73.75
X33.75Y20.5
X33.75Y15.75
X34.5Y35.25
X34.5Y31.5
X35.Y25.75
X36.25Y83.5
X37.Y19.5
X37.5Y54.75
X37.5Y50.75
X37.5Y47.75
X38.Y41.
X38.245Y36.587
X38.5Y68.
X38.75Y15.75
X39.Y72.5
X39.25Y91.25
X39.25Y60.5
X39.25Y57.75
X39.25Y19.5
X39.5Y83.5
X39.5Y77.75
X40.5Y22.75
X40.75Y95.
X42.5Y15.8
X43.Y58.75
X43.1Y19.5
X43.25Y98.
X44.5Y91.75
X44.5Y70.
X45.5Y77.5
X46.25Y58.75
X46.25Y57.
X46.5Y71.
X47.75Y14.75
X47.963Y83.541
X48.Y69.
X48.Y42.75
X48.Y28.
X48.25Y98.
X49.5Y91.25
X49.75Y25.
X50.Y20.75
X50.Y17.25
X51.Y76.
X51.Y70.
X51.Y62.
X51.Y56.
X51.Y49.25
X51.Y43.
X51.Y27.
X52.5Y98.
X52.5Y53.6
X52.638Y87.433
X53.5Y26.5
X54.Y69.5
X54.Y55.75
X54.Y43.
X54.Y40.5
X54.25Y94.25
X54.25Y90.25
X55.5Y67.
X55.864Y78.441
X57.Y81.25
X57.25Y98.
X57.25Y87.5
X57.25Y79.5
X59.25Y23.
X60.Y89.
X62.Y13.5
X63.85Y83.
X64.1Y55.3
X64.3Y72.4
X64.4Y66.2
X64.4Y29.4
X64.75Y80.25
X64.75Y61.
X64.75Y48.5
X65.4Y45.
X65.4Y37.6
X66.75Y97.75
X66.75Y92.25
X69.Y33.6
X69.75Y92.25
X71.25Y85.5
X72.Y86.25
X72.5Y85.5
X73.Y98.
X73.Y92.25
X73.Y86.25
X73.Y40.5
X73.75Y85.5
X74.5Y49.75
X75.Y68.5
X76.5Y98.
X76.5Y92.25
X76.5Y61.5
X76.5Y32.5
X79.25Y92.25
X79.25Y56.5
X81.Y75.5
X81.75Y98.
X81.75Y92.25
X82.5Y24.
X84.941Y61.519
X85.Y47.5
X85.002Y75.857
X88.Y84.
X88.Y40.5
X91.Y98.25
X91.Y61.5
X91.Y32.5
X91.75Y91.25
X91.75Y82.75
X94.24Y68.465
X96.75Y84.25
X97.5Y90.5
T2
X5.Y33.5
X9.5Y28.25
X9.5Y24.75
X10.Y33.5
X12.Y78.
X12.Y38.5
X12.75Y71.5
X12.75Y45.
X14.5Y60.25
X14.5Y56.75
X14.75Y32.
X16.25Y71.5
X16.25Y45.
X17.Y78.
X17.Y38.5
X18.25Y32.
X22.Y28.
X22.Y23.
X26.5Y33.5
X31.5Y77.5
X31.5Y38.
X31.5Y33.5
X32.Y28.25
X32.Y24.75
X32.25Y71.
X32.25Y44.5
X34.Y60.25
X34.Y56.75
X35.75Y71.
X35.75Y44.5
X36.5Y77.5
X36.5Y38.
X37.75Y31.5
X41.25Y31.5
X42.5Y78.
X42.5Y74.5
X42.5Y67.
X42.5Y63.5
X42.5Y54.25
X42.5Y50.75
X42.5Y45.25
X42.5Y41.75
X44.75Y28.
X44.75Y23.
X54.Y20.
X54.Y15.
X54.Y8.5
X54.Y3.5
X58.75Y68.75
X58.75Y41.75
X62.25Y68.75
X62.25Y41.75
X64.75Y85.5
X68.25Y85.5
X79.75Y85.5
X83.25Y85.5
X97.Y23.5
X97.Y18.5
X97.Y15.5
X97.Y10.5
T3
X13.82Y96.27
X13.82Y93.73
X16.36Y96.27
X16.36Y93.73
X18.9Y96.27
X18.9Y93.73
X21.44Y96.27
X21.44Y93.73
X23.98Y96.27
X23.98Y93.73
X26.52Y96.27
X26.52Y93.73
X29.06Y96.27
X29.06Y93.73
X31.6Y96.27
X31.6Y93.73
X34.14Y96.27
X34.14Y93.73
X36.68Y96.27
X36.68Y93.73
T4
X13.Y2.7
X18.Y2.7
X23.Y2.7
X35.5Y2.7
X40.5Y2.7
X45.5Y2.7
T5
X59.3Y17.15
X59.3Y10.8
X59.3Y4.45
X70.7Y17.15
X70.7Y10.8
X70.7Y4.45
X77.3Y17.15
X77.3Y10.8
X77.3Y4.45
X88.7Y17.15
X88.7Y10.8
X88.7Y4.45
T6
X62.48Y95.25
X70.02Y95.25
X78.98Y95.25
X86.52Y95.25
T7
X5.Y95.
X5.Y5.
X95.Y95.
X95.Y5.
T4
X13.Y12.95G85X13.Y7.45
G05
X18.Y12.95G85X18.Y7.45
G05
X23.Y12.95G85X23.Y7.45
G05
X35.5Y12.95G85X35.5Y7.45
G05
X40.5Y12.95G85X40.5Y7.45
G05
X45.5Y12.95G85X45.5Y7.45
G05
T0
M30
