G04 #@! TF.FileFunction,Soldermask,Top*
%FSLAX46Y46*%
G04 Gerber Fmt 4.6, Leading zero omitted, Abs format (unit mm)*
G04 Created by KiCad (PCBNEW 4.0.5) date 03/22/17 11:59:18*
%MOMM*%
%LPD*%
G01*
G04 APERTURE LIST*
%ADD10C,0.150000*%
%ADD11C,0.100000*%
%ADD12C,3.000000*%
%ADD13R,2.000000X3.600000*%
%ADD14R,2.000000X1.200000*%
%ADD15O,3.000000X8.500000*%
%ADD16R,2.200000X0.600000*%
%ADD17R,0.600000X2.200000*%
%ADD18R,1.100000X1.700000*%
%ADD19R,1.700000X1.100000*%
%ADD20R,1.000000X1.000000*%
%ADD21C,2.000000*%
%ADD22C,2.200000*%
%ADD23R,1.300000X0.900000*%
%ADD24R,0.900000X1.300000*%
%ADD25C,6.200000*%
%ADD26C,1.600000*%
G04 APERTURE END LIST*
D10*
D11*
X0Y100000000D02*
X100000000Y100000000D01*
X15000000Y0D02*
X0Y0D01*
X100000000Y0D02*
X15000000Y0D01*
X100000000Y100000000D02*
X100000000Y0D01*
X0Y0D02*
X0Y100000000D01*
D12*
X59300000Y4450000D03*
X59300000Y10800000D03*
X59300000Y17150000D03*
X70700000Y4450000D03*
X70700000Y17150000D03*
X70700000Y10800000D03*
X77300000Y4450000D03*
X77300000Y10800000D03*
X77300000Y17150000D03*
X88700000Y4450000D03*
X88700000Y17150000D03*
X88700000Y10800000D03*
D13*
X73198000Y32500000D03*
D14*
X79802000Y32500000D03*
X79802000Y34786000D03*
X79802000Y30214000D03*
D13*
X73198000Y61500000D03*
D14*
X79802000Y61500000D03*
X79802000Y63786000D03*
X79802000Y59214000D03*
D13*
X87698000Y32500000D03*
D14*
X94302000Y32500000D03*
X94302000Y34786000D03*
X94302000Y30214000D03*
D13*
X87698000Y61500000D03*
D14*
X94302000Y61500000D03*
X94302000Y63786000D03*
X94302000Y59214000D03*
D13*
X93302000Y47500000D03*
D14*
X86698000Y47500000D03*
X86698000Y45214000D03*
X86698000Y49786000D03*
D13*
X93302000Y75500000D03*
D14*
X86698000Y75500000D03*
X86698000Y73214000D03*
X86698000Y77786000D03*
D13*
X78802000Y47500000D03*
D14*
X72198000Y47500000D03*
X72198000Y45214000D03*
X72198000Y49786000D03*
D13*
X78802000Y75500000D03*
D14*
X72198000Y75500000D03*
X72198000Y73214000D03*
X72198000Y77786000D03*
D12*
X13000000Y2700000D03*
X18000000Y2700000D03*
X23000000Y2700000D03*
D15*
X13000000Y10200000D03*
X18000000Y10200000D03*
X23000000Y10200000D03*
D12*
X35500000Y2700000D03*
X40500000Y2700000D03*
X45500000Y2700000D03*
D15*
X35500000Y10200000D03*
X40500000Y10200000D03*
X45500000Y10200000D03*
D16*
X58000000Y36040000D03*
X58000000Y34770000D03*
X58000000Y33500000D03*
X58000000Y32230000D03*
X63200000Y32230000D03*
X63200000Y33500000D03*
X63200000Y34770000D03*
X63200000Y36040000D03*
X58000000Y63520000D03*
X58000000Y62250000D03*
X58000000Y60980000D03*
X58000000Y59710000D03*
X63200000Y59710000D03*
X63200000Y60980000D03*
X63200000Y62250000D03*
X63200000Y63520000D03*
X58000000Y51040000D03*
X58000000Y49770000D03*
X58000000Y48500000D03*
X58000000Y47230000D03*
X63200000Y47230000D03*
X63200000Y48500000D03*
X63200000Y49770000D03*
X63200000Y51040000D03*
X58000000Y77790000D03*
X58000000Y76520000D03*
X58000000Y75250000D03*
X58000000Y73980000D03*
X63200000Y73980000D03*
X63200000Y75250000D03*
X63200000Y76520000D03*
X63200000Y77790000D03*
D17*
X9040000Y61000000D03*
X7770000Y61000000D03*
X6500000Y61000000D03*
X5230000Y61000000D03*
X5230000Y55800000D03*
X6500000Y55800000D03*
X7770000Y55800000D03*
X9040000Y55800000D03*
X28540000Y60450000D03*
X27270000Y60450000D03*
X26000000Y60450000D03*
X24730000Y60450000D03*
X24730000Y55250000D03*
X26000000Y55250000D03*
X27270000Y55250000D03*
X28540000Y55250000D03*
D18*
X73200000Y27500000D03*
X69800000Y27500000D03*
X73200000Y56500000D03*
X69800000Y56500000D03*
D19*
X48000000Y35800000D03*
X48000000Y39200000D03*
X48000000Y63550000D03*
X48000000Y66950000D03*
D18*
X52300000Y11500000D03*
X55700000Y11500000D03*
X69800000Y42500000D03*
X73200000Y42500000D03*
X69800000Y38500000D03*
X73200000Y38500000D03*
D19*
X93000000Y13700000D03*
X93000000Y10300000D03*
D18*
X69800000Y70500000D03*
X73200000Y70500000D03*
X69800000Y66500000D03*
X73200000Y66500000D03*
D19*
X54000000Y32700000D03*
X54000000Y29300000D03*
X54000000Y60450000D03*
X54000000Y57050000D03*
X54000000Y39200000D03*
X54000000Y35800000D03*
X54000000Y66950000D03*
X54000000Y63550000D03*
X48000000Y32700000D03*
X48000000Y29300000D03*
X48000000Y60450000D03*
X48000000Y57050000D03*
D18*
X80200000Y38500000D03*
X76800000Y38500000D03*
X80200000Y42500000D03*
X76800000Y42500000D03*
X80200000Y66500000D03*
X76800000Y66500000D03*
X80200000Y70500000D03*
X76800000Y70500000D03*
X97700000Y27500000D03*
X94300000Y27500000D03*
X97700000Y56500000D03*
X94300000Y56500000D03*
X94300000Y52500000D03*
X97700000Y52500000D03*
X94300000Y80500000D03*
X97700000Y80500000D03*
D19*
X48000000Y50800000D03*
X48000000Y54200000D03*
X48000000Y77550000D03*
X48000000Y80950000D03*
D18*
X52300000Y23000000D03*
X55700000Y23000000D03*
X97700000Y38500000D03*
X94300000Y38500000D03*
X97700000Y42500000D03*
X94300000Y42500000D03*
D19*
X93000000Y21700000D03*
X93000000Y18300000D03*
D18*
X97700000Y66500000D03*
X94300000Y66500000D03*
X97700000Y70500000D03*
X94300000Y70500000D03*
D19*
X54000000Y47700000D03*
X54000000Y44300000D03*
X54000000Y74450000D03*
X54000000Y71050000D03*
X54000000Y54200000D03*
X54000000Y50800000D03*
X54000000Y80950000D03*
X54000000Y77550000D03*
X48000000Y47700000D03*
X48000000Y44300000D03*
X48000000Y74450000D03*
X48000000Y71050000D03*
D18*
X87300000Y42500000D03*
X90700000Y42500000D03*
X87300000Y38500000D03*
X90700000Y38500000D03*
X87295262Y70500000D03*
X90695262Y70500000D03*
X87295262Y66500000D03*
X90695262Y66500000D03*
X69800000Y52500000D03*
X73200000Y52500000D03*
X69800000Y80500000D03*
X73200000Y80500000D03*
D19*
X16000000Y22800000D03*
X16000000Y26200000D03*
D18*
X10700000Y51500000D03*
X7300000Y51500000D03*
X6200000Y40500000D03*
X2800000Y40500000D03*
D19*
X9250000Y85300000D03*
X9250000Y88700000D03*
X12250000Y88700000D03*
X12250000Y85300000D03*
D18*
X17200000Y51500000D03*
X13800000Y51500000D03*
X4700000Y51500000D03*
X1300000Y51500000D03*
D19*
X3250000Y88700000D03*
X3250000Y85300000D03*
X4000000Y22800000D03*
X4000000Y26200000D03*
D18*
X6200000Y44000000D03*
X2800000Y44000000D03*
D19*
X6250000Y85300000D03*
X6250000Y88700000D03*
D18*
X11950000Y65000000D03*
X8550000Y65000000D03*
D19*
X8500000Y71800000D03*
X8500000Y75200000D03*
X18250000Y85300000D03*
X18250000Y88700000D03*
X15250000Y88700000D03*
X15250000Y85300000D03*
D18*
X17700000Y65000000D03*
X14300000Y65000000D03*
X6200000Y65000000D03*
X2800000Y65000000D03*
D19*
X24250000Y88700000D03*
X24250000Y85300000D03*
X38500000Y22800000D03*
X38500000Y26200000D03*
X4500000Y71800000D03*
X4500000Y75200000D03*
X21250000Y85300000D03*
X21250000Y88700000D03*
D18*
X30200000Y51000000D03*
X26800000Y51000000D03*
D19*
X27500000Y44200000D03*
X27500000Y40800000D03*
X30250000Y85300000D03*
X30250000Y88700000D03*
D12*
X70020000Y95250000D03*
X62480000Y95250000D03*
X86519998Y95250000D03*
X78979998Y95250000D03*
D20*
X76800000Y27500000D03*
X80200000Y27500000D03*
X76800000Y56500000D03*
X80200000Y56500000D03*
X88300000Y27500000D03*
X91700000Y27500000D03*
X87300000Y56500000D03*
X90700000Y56500000D03*
X90700000Y52500000D03*
X87300000Y52500000D03*
X90700000Y80500000D03*
X87300000Y80500000D03*
X80200000Y52500000D03*
X76800000Y52500000D03*
D21*
X42500000Y41750000D03*
X42500000Y45250000D03*
X42500000Y67000000D03*
X42500000Y63500000D03*
D22*
X54000000Y3500000D03*
X54000000Y8500000D03*
X97000000Y15500000D03*
X97000000Y10500000D03*
D23*
X51000000Y32100000D03*
X51000000Y29900000D03*
X51000000Y59850000D03*
X51000000Y57650000D03*
X51000000Y36400000D03*
X51000000Y38600000D03*
X51000000Y64150000D03*
X51000000Y66350000D03*
D24*
X59400000Y29500000D03*
X61600000Y29500000D03*
D21*
X42500000Y54250000D03*
X42500000Y50750000D03*
X42500000Y78000000D03*
X42500000Y74500000D03*
D22*
X54000000Y15000000D03*
X54000000Y20000000D03*
X97000000Y18500000D03*
X97000000Y23500000D03*
D23*
X51000000Y47100000D03*
X51000000Y44900000D03*
X51000000Y73850000D03*
X51000000Y71650000D03*
X51000000Y78150000D03*
X51000000Y80350000D03*
D24*
X59400000Y54000000D03*
X61600000Y54000000D03*
D21*
X62250000Y41750000D03*
X58750000Y41750000D03*
X62250000Y68750000D03*
X58750000Y68750000D03*
D23*
X3000000Y59700000D03*
X3000000Y57500000D03*
D21*
X14500000Y56750000D03*
X14500000Y60250000D03*
D22*
X22000000Y28000000D03*
X22000000Y23000000D03*
X12000000Y38500000D03*
X17000000Y38500000D03*
D24*
X10100000Y48000000D03*
X7900000Y48000000D03*
D21*
X18250000Y32000000D03*
X14750000Y32000000D03*
X16250000Y45000000D03*
X12750000Y45000000D03*
D24*
X4100000Y48000000D03*
X1900000Y48000000D03*
D22*
X10000000Y33500000D03*
X5000000Y33500000D03*
X12000000Y78000000D03*
X17000000Y78000000D03*
D24*
X10600000Y68500000D03*
X8400000Y68500000D03*
D21*
X9500000Y28250000D03*
X9500000Y24750000D03*
X16250000Y71500000D03*
X12750000Y71500000D03*
D24*
X5350000Y68500000D03*
X3150000Y68500000D03*
D22*
X44750000Y28000000D03*
X44750000Y23000000D03*
X36500000Y38000000D03*
X31500000Y38000000D03*
D24*
X29600000Y47500000D03*
X27400000Y47500000D03*
D21*
X41250000Y31500000D03*
X37750000Y31500000D03*
X32250000Y44500000D03*
X35750000Y44500000D03*
D24*
X23600000Y47500000D03*
X21400000Y47500000D03*
D22*
X31500000Y33500000D03*
X26500000Y33500000D03*
X31500000Y77500000D03*
X36500000Y77500000D03*
D24*
X30100000Y68000000D03*
X27900000Y68000000D03*
D21*
X32000000Y28250000D03*
X32000000Y24750000D03*
X35750000Y71000000D03*
X32250000Y71000000D03*
D24*
X24100000Y68000000D03*
X21900000Y68000000D03*
D21*
X34000000Y56750000D03*
X34000000Y60250000D03*
D23*
X60000000Y85400000D03*
X60000000Y87600000D03*
D21*
X68250000Y85500000D03*
X64750000Y85500000D03*
X83250000Y85500000D03*
X79750000Y85500000D03*
D25*
X95000000Y95000000D03*
D24*
X59400000Y80750000D03*
X61600000Y80750000D03*
D23*
X88000000Y85400000D03*
X88000000Y87600000D03*
D25*
X5000000Y95000000D03*
D24*
X6650000Y82500000D03*
X8850000Y82500000D03*
X20850000Y82500000D03*
X18650000Y82500000D03*
D20*
X79200000Y80500000D03*
X75800000Y80500000D03*
D25*
X95000000Y5000000D03*
D19*
X27250000Y88700000D03*
X27250000Y85300000D03*
X34000000Y49800000D03*
X34000000Y53200000D03*
D18*
X24200000Y51000000D03*
X20800000Y51000000D03*
D19*
X36250000Y88700000D03*
X36250000Y85300000D03*
D18*
X24700000Y64500000D03*
X21300000Y64500000D03*
D25*
X5000000Y5000000D03*
D23*
X21500000Y59100000D03*
X21500000Y56900000D03*
D24*
X42900000Y82500000D03*
X45100000Y82500000D03*
X32850000Y82500000D03*
X30650000Y82500000D03*
X59400000Y56750000D03*
X61600000Y56750000D03*
D23*
X51000000Y51400000D03*
X51000000Y53600000D03*
D19*
X26500000Y22800000D03*
X26500000Y26200000D03*
X33250000Y85300000D03*
X33250000Y88700000D03*
D18*
X30700000Y64500000D03*
X27300000Y64500000D03*
D19*
X23500000Y44200000D03*
X23500000Y40800000D03*
X45500000Y85300000D03*
X45500000Y88700000D03*
D18*
X37000000Y64500000D03*
X33600000Y64500000D03*
D19*
X28000000Y71300000D03*
X28000000Y74700000D03*
X48500000Y88700000D03*
X48500000Y85300000D03*
D26*
X36680000Y96270000D03*
X36680000Y93730000D03*
X34140000Y96270000D03*
X34140000Y93730000D03*
X31600000Y96270000D03*
X31600000Y93730000D03*
X29060000Y96270000D03*
X29060000Y93730000D03*
X26520000Y96270000D03*
X26520000Y93730000D03*
X23980000Y96270000D03*
X23980000Y93730000D03*
X21440000Y96270000D03*
X21440000Y93730000D03*
X18900000Y96270000D03*
X18900000Y93730000D03*
X16360000Y96270000D03*
X16360000Y93730000D03*
X13820000Y96270000D03*
X13820000Y93730000D03*
D19*
X39500000Y88700000D03*
X39500000Y85300000D03*
X24000000Y71300000D03*
X24000000Y74700000D03*
X42500000Y85300000D03*
X42500000Y88700000D03*
M02*
